<svg version="1.2" xmlns="http://www.w3.org/2000/svg" viewBox="0 0 1000 1000" width="1000" height="1000">
	<title>326177-P9Y00Q-841-ai</title>
	<defs>
		<radialGradient id="g1" cx="0" cy="0" r="1" gradientUnits="userSpaceOnUse" gradientTransform="matrix(623.196,194.405,-194.405,623.196,458.416,515.333)">
			<stop offset="0" stop-color="#ffd172"/>
			<stop offset="1" stop-color="#f6ab36"/>
		</radialGradient>
		<clipPath clipPathUnits="userSpaceOnUse" id="cp1">
			<path d="m1000 1000h-1000v-1000h1000z"/>
		</clipPath>
	</defs>
	<style>
		.s0 { fill: url(#g1) } 
		.s1 { fill: #ffd071 } 
		.s2 { fill: #f7b140 } 
		.s3 { fill: none;stroke: #ffdf9f;stroke-linecap: round;stroke-linejoin: round;stroke-width: 4 } 
		.s4 { fill: none;stroke: #fefbff;stroke-linecap: round;stroke-linejoin: round;stroke-width: 4 } 
		.s5 { opacity: .8;mix-blend-mode: overlay;fill: #67c4e4 } 
		.s6 { opacity: .6;mix-blend-mode: overlay;fill: #67c4e4 } 
		.s7 { fill: none;stroke: #ffd071;stroke-linecap: round;stroke-linejoin: round;stroke-width: 4 } 
	</style>
	<g id="background">
		<path id="&lt;Path&gt;" class="s0" d="m1000 1000h-1000v-1000h1000z"/>
	</g>
	<g id="objects">
		<g id="&lt;Clip Group&gt;">
			<g id="&lt;Group&gt;">
				<g id="&lt;Group&gt;">
					<g id="&lt;Group&gt;">
						<path id="&lt;Path&gt;" class="s1" d="m917.6 726.1c-0.5 0-1-0.2-1.4-0.6l-12.2-12.2c-0.8-0.8-0.8-2.1 0-2.9 0.8-0.7 2-0.7 2.8 0l12.3 12.3c0.7 0.8 0.7 2 0 2.8-0.4 0.4-0.9 0.6-1.5 0.6z"/>
					</g>
					<g id="&lt;Group&gt;">
						<path id="&lt;Path&gt;" class="s1" d="m905.4 726.1c-0.5 0-1-0.2-1.4-0.6-0.8-0.8-0.8-2 0-2.8l12.2-12.3c0.8-0.7 2.1-0.7 2.9 0 0.7 0.8 0.7 2.1 0 2.9l-12.3 12.2c-0.4 0.4-0.9 0.6-1.4 0.6z"/>
					</g>
				</g>
				<g id="&lt;Group&gt;">
					<g id="&lt;Group&gt;">
						<path id="&lt;Path&gt;" class="s1" d="m943 726.1c-0.6 0-1.1-0.2-1.5-0.6l-12.2-12.2c-0.8-0.8-0.8-2.1 0-2.9 0.8-0.7 2.1-0.7 2.8 0l12.3 12.3c0.8 0.8 0.8 2 0 2.8-0.4 0.4-0.9 0.6-1.4 0.6z"/>
					</g>
					<g id="&lt;Group&gt;">
						<path id="&lt;Path&gt;" class="s1" d="m930.7 726.1c-0.5 0-1-0.2-1.4-0.6-0.8-0.8-0.8-2 0-2.8l12.2-12.3c0.8-0.7 2.1-0.7 2.9 0 0.8 0.8 0.8 2.1 0 2.9l-12.3 12.2c-0.4 0.4-0.9 0.6-1.4 0.6z"/>
					</g>
				</g>
				<g id="&lt;Group&gt;">
					<g id="&lt;Group&gt;">
						<path id="&lt;Path&gt;" class="s1" d="m968.3 726.1c-0.5 0-1.1-0.2-1.4-0.6l-12.3-12.2c-0.8-0.8-0.8-2.1 0-2.9 0.8-0.7 2.1-0.7 2.8 0l12.3 12.3c0.8 0.8 0.8 2 0 2.8-0.4 0.4-0.9 0.6-1.4 0.6z"/>
					</g>
					<g id="&lt;Group&gt;">
						<path id="&lt;Path&gt;" class="s1" d="m956 726.1c-0.5 0-1-0.2-1.4-0.6-0.8-0.8-0.8-2 0-2.8l12.3-12.3c0.7-0.7 2-0.7 2.8 0 0.8 0.8 0.8 2.1 0 2.9l-12.3 12.2c-0.4 0.4-0.9 0.6-1.4 0.6z"/>
					</g>
				</g>
			</g>
			<g id="&lt;Group&gt;">
				<g id="&lt;Group&gt;">
					<g id="&lt;Group&gt;">
						<path id="&lt;Path&gt;" class="s1" d="m521.7 749.3c-0.5 0-1-0.2-1.4-0.6l-12.3-12.2c-0.7-0.8-0.7-2 0-2.8 0.8-0.8 2.1-0.8 2.9 0l12.2 12.2c0.8 0.8 0.8 2.1 0 2.8-0.4 0.4-0.9 0.6-1.4 0.6z"/>
					</g>
					<g id="&lt;Group&gt;">
						<path id="&lt;Path&gt;" class="s1" d="m509.5 749.3c-0.6 0-1.1-0.2-1.5-0.6-0.7-0.7-0.7-2 0-2.8l12.3-12.2c0.8-0.8 2-0.8 2.8 0 0.8 0.8 0.8 2 0 2.8l-12.2 12.2c-0.4 0.4-0.9 0.6-1.4 0.6z"/>
					</g>
				</g>
				<g id="&lt;Group&gt;">
					<g id="&lt;Group&gt;">
						<path id="&lt;Path&gt;" class="s1" d="m547 749.3c-0.5 0-1-0.2-1.4-0.6l-12.2-12.2c-0.8-0.8-0.8-2 0-2.8 0.7-0.8 2-0.8 2.8 0l12.2 12.2c0.8 0.8 0.8 2.1 0 2.8-0.4 0.4-0.9 0.6-1.4 0.6z"/>
					</g>
					<g id="&lt;Group&gt;">
						<path id="&lt;Path&gt;" class="s1" d="m534.8 749.3c-0.5 0-1.1-0.2-1.4-0.6-0.8-0.7-0.8-2 0-2.8l12.2-12.2c0.8-0.8 2-0.8 2.8 0 0.8 0.8 0.8 2 0 2.8l-12.2 12.2c-0.4 0.4-0.9 0.6-1.4 0.6z"/>
					</g>
				</g>
			</g>
			<g id="&lt;Group&gt;">
				<g id="&lt;Group&gt;">
					<path id="&lt;Compound Path&gt;" fill-rule="evenodd" class="s1" d="m866.5 816.5c-5.8 0-11.2-2.2-15.3-6.3-4.1-4.1-6.4-9.6-6.4-15.4 0-5.7 2.3-11.2 6.4-15.3 4.1-4.1 9.5-6.3 15.3-6.3 5.8 0 11.3 2.2 15.4 6.3 8.4 8.5 8.4 22.2 0 30.7-4.1 4.1-9.6 6.3-15.4 6.3zm0-39.3c-4.7 0-9.1 1.8-12.5 5.1-3.3 3.4-5.2 7.8-5.2 12.5 0 4.8 1.9 9.2 5.2 12.6 3.4 3.3 7.8 5.1 12.5 5.1 4.8 0 9.2-1.8 12.6-5.1 6.9-6.9 6.9-18.2 0-25.1-3.4-3.3-7.8-5.1-12.6-5.1z"/>
				</g>
				<g id="&lt;Group&gt;">
					<path id="&lt;Compound Path&gt;" fill-rule="evenodd" class="s1" d="m866.5 811c-4.3 0-8.3-1.7-11.4-4.7-3-3.1-4.7-7.1-4.7-11.5 0-4.3 1.7-8.3 4.7-11.4 3.1-3 7.1-4.7 11.4-4.7 4.4 0 8.4 1.7 11.5 4.7 6.2 6.3 6.2 16.6 0 22.9-3.1 3-7.1 4.7-11.5 4.7zm0-28.3c-3.2 0-6.3 1.3-8.5 3.6-2.3 2.3-3.6 5.3-3.6 8.5 0 3.3 1.3 6.3 3.6 8.6 2.2 2.3 5.3 3.6 8.5 3.6 3.3 0 6.3-1.3 8.6-3.6 4.8-4.7 4.8-12.4 0-17.1-2.3-2.3-5.3-3.6-8.6-3.6z"/>
				</g>
				<g id="&lt;Group&gt;">
					<path id="&lt;Path&gt;" class="s1" d="m884 817.9c-0.5 0-1-0.2-1.4-0.6l-4.6-4.6c-0.8-0.8-0.8-2.1 0-2.8 0.8-0.8 2-0.8 2.8 0l3.2 3.2 0.8-0.8-3.2-3.2c-0.8-0.8-0.8-2 0-2.8 0.7-0.8 2-0.8 2.8 0l4.6 4.6c0.4 0.4 0.6 0.9 0.6 1.4 0 0.6-0.2 1.1-0.6 1.5l-3.6 3.5c-0.4 0.4-0.9 0.6-1.4 0.6z"/>
				</g>
				<g id="&lt;Group&gt;">
					<path id="&lt;Compound Path&gt;" fill-rule="evenodd" class="s1" d="m898.9 834.8c-2 0-3.9-0.8-5.3-2.3l-13.1-13c-0.4-0.4-0.6-0.9-0.6-1.5 0-0.5 0.2-1 0.6-1.4l7.8-7.8c0.8-0.8 2.1-0.8 2.9 0l13 13.1c3 2.9 3 7.7 0 10.6-1.4 1.5-3.3 2.3-5.3 2.3zm-14.2-16.8l11.7 11.7c1.3 1.4 3.7 1.4 5 0 0.7-0.7 1-1.5 1-2.5 0-0.9-0.3-1.8-1-2.5l-11.7-11.7z"/>
				</g>
			</g>
			<g id="&lt;Group&gt;">
				<g id="&lt;Group&gt;">
					<path id="&lt;Compound Path&gt;" fill-rule="evenodd" class="s1" d="m476.9 822.1c-5.8 0-11.2-2.2-15.3-6.3-4.1-4.1-6.4-9.6-6.4-15.4 0-5.8 2.3-11.2 6.4-15.3 4.1-4.1 9.5-6.4 15.3-6.4 5.8 0 11.3 2.3 15.4 6.4 8.4 8.5 8.4 22.2 0 30.7-4.1 4.1-9.6 6.3-15.4 6.3zm0-39.4c-4.7 0-9.1 1.9-12.5 5.2-3.3 3.4-5.2 7.8-5.2 12.5 0 4.8 1.9 9.2 5.2 12.5 3.4 3.4 7.8 5.2 12.5 5.2 4.8 0 9.2-1.8 12.6-5.2 6.9-6.9 6.9-18.1 0-25-3.4-3.3-7.8-5.2-12.6-5.2z"/>
				</g>
				<g id="&lt;Group&gt;">
					<path id="&lt;Compound Path&gt;" fill-rule="evenodd" class="s1" d="m476.9 816.6c-4.3 0-8.3-1.7-11.4-4.8-3-3-4.7-7.1-4.7-11.4 0-4.3 1.7-8.3 4.7-11.4 3.1-3 7.1-4.7 11.4-4.7 4.4 0 8.4 1.7 11.5 4.7 3 3.1 4.7 7.1 4.7 11.4 0 4.3-1.7 8.4-4.7 11.4-3.1 3.1-7.1 4.8-11.5 4.8zm0-28.3c-3.2 0-6.2 1.3-8.5 3.6-2.3 2.2-3.6 5.3-3.6 8.5 0 3.3 1.3 6.3 3.6 8.6 2.3 2.3 5.3 3.6 8.5 3.6 3.3 0 6.3-1.3 8.6-3.6 2.3-2.3 3.6-5.3 3.6-8.6 0-3.2-1.3-6.3-3.6-8.5-2.3-2.3-5.3-3.6-8.6-3.6z"/>
				</g>
				<g id="&lt;Group&gt;">
					<path id="&lt;Path&gt;" class="s1" d="m494.4 823.5c-0.5 0-1-0.2-1.4-0.6l-4.6-4.6c-0.8-0.8-0.8-2.1 0-2.9 0.8-0.7 2-0.7 2.8 0l3.2 3.3 0.8-0.8-3.2-3.2c-0.8-0.8-0.8-2 0-2.8 0.7-0.8 2-0.8 2.8 0l4.6 4.6c0.8 0.8 0.8 2.1 0 2.8l-3.6 3.6c-0.3 0.4-0.8 0.6-1.4 0.6z"/>
				</g>
				<g id="&lt;Group&gt;">
					<path id="&lt;Compound Path&gt;" fill-rule="evenodd" class="s1" d="m509.3 840.3c-2 0-3.9-0.7-5.3-2.2l-13.1-13c-0.8-0.8-0.8-2.1 0-2.9l7.8-7.8c0.8-0.8 2.1-0.8 2.9 0l13 13c3 3 3 7.8 0 10.7-1.4 1.5-3.3 2.2-5.3 2.2zm-14.2-16.7l11.7 11.7c1.3 1.3 3.7 1.3 5 0 1.4-1.4 1.4-3.6 0-5l-11.7-11.7z"/>
				</g>
			</g>
			<g id="&lt;Group&gt;">
				<g id="&lt;Group&gt;">
					<path id="&lt;Compound Path&gt;" fill-rule="evenodd" class="s1" d="m363.7 707.3h-10.1c-1.1 0-2-0.9-2-2v-2.9h-2.8c-1.6 0-3-1.3-3-3v-3.4c-0.7-0.1-1.4-0.5-1.8-1.2-0.5-0.7-0.5-1.6-0.2-2.4l2-4c0.3-6 5.5-10.8 11.6-10.4 5.3 0.3 9.7 4.5 10.3 9.8 0.3 2.9-0.6 5.9-2.5 8.1l0.5 9.3c0 0.6-0.2 1.1-0.6 1.5-0.4 0.4-0.9 0.6-1.4 0.6zm-8.1-4h6l-0.4-8c-0.1-0.6 0.1-1.1 0.5-1.5 1.5-1.5 2.2-3.5 2-5.6-0.4-3.4-3.2-6-6.5-6.2-4-0.3-7.3 2.9-7.4 6.8q0 0.6-0.3 1.1l-1.1 2.2c0.8 0.3 1.4 1 1.4 1.9v4.4h3.5c0.6 0 1.2 0.2 1.6 0.6 0.4 0.3 0.7 0.9 0.7 1.4z"/>
				</g>
				<g id="&lt;Group&gt;">
					<g id="&lt;Group&gt;">
						<path id="&lt;Compound Path&gt;" fill-rule="evenodd" class="s1" d="m349.8 720.6c-2.1 0-5.1-1.1-6.3-2.4-0.7-0.8-0.9-1.5-0.8-2 0-0.3 0-0.5 1.1-4.7q-2.5-1.8-4.5-4.1c-3.5 1-4.3 1.1-4.7 1.1-0.4 0-0.9-0.1-1.3-0.3-2-1.3-3.4-4.7-3.6-6.5q-0.1-1.6 0.8-2.5c0.2-0.1 0.4-0.3 4-2.4q-0.5-3.1-0.2-6.3c-4.2-2.2-4.5-2.6-4.7-3.5-0.5-2.4 0.9-5.7 2-7.1q1-1.3 2.2-1.3c0.4 0.1 0.7 0.1 4.6 1.1q1.8-2.3 4-4.2c-0.9-2.7-1.5-4.5-1.5-4.5-0.3-0.8 0-1.8 0.8-2.3 2.1-1.3 5-2.9 6.5-2.9q0.8 0 1.4 0.4c0.4 0.2 0.7 0.4 3.3 4.5 2-0.4 4.1-0.5 6.2-0.3 1.2-2.6 2.1-4.4 2.1-4.4 0.4-0.8 1.3-1.2 2.2-1 6.9 1.5 7.2 2.9 7.4 3.7 0.1 0.5 0.2 0.9-0.9 5.7q2.5 1.8 4.4 4.1c2.9-1 4.8-1.6 4.8-1.6 0.9-0.3 1.9 0 2.3 0.8 3.8 5.9 3.1 7.2 2.6 7.9-0.3 0.4-0.4 0.7-4.8 3.4q0.5 3 0.2 5.9c2.8 1.3 4.7 2.3 4.7 2.3 0.9 0.4 1.3 1.3 1.1 2.2-1.5 6.9-2.9 7.2-3.8 7.4-0.1 0-0.3 0.1-0.5 0.1-0.3 0-0.9 0-5.4-1.1q-1.8 2.7-4.2 4.7c1.5 5 1.4 5.5 0.9 6.3-1.4 2.2-5.1 3.7-6.9 3.7-1.1 0-1.7-0.5-2-0.8-0.2-0.3-0.4-0.5-2.7-4.4q-2.9 0.5-5.9 0.2c-2.4 4.5-2.8 4.8-3.7 5q-0.6 0.1-1.2 0.1zm-3-4.9c0.7 0.4 1.8 0.8 2.7 0.9 0.4-0.5 1.1-1.7 2.3-4.1 0.4-0.8 1.3-1.2 2.1-1.1 2.4 0.4 4.9 0.3 7.3-0.3 0.9-0.2 1.8 0.2 2.2 1 1.3 2.3 2.1 3.6 2.5 4.3 0.7-0.3 1.9-0.8 2.5-1.3-0.2-0.7-0.5-2-1.4-4.8-0.2-0.8 0.1-1.7 0.8-2.2 2-1.5 3.8-3.3 5.1-5.6 0.4-0.7 1.3-1.1 2.2-0.9 2.7 0.7 4.2 1 5 1.1 0.2-0.6 0.5-1.6 0.8-2.6-1.1-0.6-2.6-1.3-4.5-2.2-0.8-0.4-1.2-1.3-1.1-2.1 0.4-2.4 0.3-4.9-0.3-7.2-0.2-0.9 0.1-1.8 0.9-2.2 2.3-1.5 3.6-2.3 4.3-2.7-0.3-0.7-0.8-1.6-1.3-2.5-1.1 0.4-2.7 0.9-4.6 1.6-0.9 0.3-1.8 0-2.3-0.8-1.5-2-3.3-3.6-5.4-4.9-0.7-0.5-1.1-1.4-0.9-2.2 0.6-2.6 0.9-4 1-4.8-0.6-0.3-1.6-0.6-2.6-0.9-0.5 1.1-1.2 2.5-2.1 4.3-0.4 0.8-1.2 1.2-2.1 1.1-2.5-0.4-5-0.3-7.5 0.3-0.9 0.2-1.7-0.2-2.2-0.9-1.3-2.2-2.1-3.4-2.5-4-0.6 0.2-1.5 0.7-2.5 1.3 0.3 1 0.9 2.5 1.5 4.3 0.3 0.8 0 1.7-0.8 2.2-1.9 1.5-3.6 3.2-4.9 5.3-0.5 0.8-1.4 1.1-2.2 0.9-2.4-0.7-3.7-1-4.4-1.2-0.4 0.7-0.8 1.9-0.9 2.7 0.6 0.3 1.7 1 3.9 2.2 0.8 0.4 1.2 1.2 1.1 2.1-0.5 2.5-0.4 5 0.2 7.6 0.2 0.8-0.2 1.7-0.9 2.2-2.2 1.2-3.4 1.9-4 2.3 0.2 0.7 0.8 1.8 1.3 2.5 0.6-0.2 1.9-0.5 4.4-1.3 0.8-0.2 1.7 0.1 2.2 0.8 1.4 2 3.3 3.7 5.5 5 0.7 0.5 1.1 1.4 0.9 2.3-0.7 2.4-1.1 3.8-1.3 4.5z"/>
					</g>
				</g>
			</g>
			<g id="&lt;Group&gt;">
				<g id="&lt;Group&gt;">
					<g id="&lt;Group&gt;">
						<path id="&lt;Compound Path&gt;" fill-rule="evenodd" class="s1" d="m701.4 491.8q-0.5 0-1-0.3l-14.6-9.1c-0.6-0.3-1-1-1-1.7 0-0.7 0.4-1.3 1-1.7l14.6-9c0.6-0.5 1.4-0.5 2.1 0l14.6 9c0.6 0.4 1 1 1 1.7 0 0.7-0.4 1.4-1 1.7l-14.6 9.1q-0.5 0.3-1.1 0.3zm-10.8-11.1l10.8 6.8 10.9-6.8-10.9-6.7z"/>
					</g>
					<g id="&lt;Group&gt;">
						<path id="&lt;Compound Path&gt;" fill-rule="evenodd" class="s1" d="m701.4 508q-0.5 0-1-0.3l-14.6-9.1c-0.6-0.4-1-1-1-1.7v-16.2c0-0.7 0.4-1.4 1-1.7 0.7-0.4 1.5-0.3 2.1 0l14.6 9.1c0.6 0.4 0.9 1 0.9 1.7v16.2c0 0.7-0.4 1.4-1 1.8q-0.5 0.2-1 0.2zm-12.6-12.2l10.6 6.6v-11.5l-10.6-6.6z"/>
					</g>
					<g id="&lt;Group&gt;">
						<path id="&lt;Compound Path&gt;" fill-rule="evenodd" class="s1" d="m701.4 508q-0.5 0-0.9-0.2c-0.7-0.4-1.1-1.1-1.1-1.8v-16.2c0-0.7 0.4-1.3 1-1.7l14.6-9.1c0.6-0.3 1.4-0.4 2 0 0.7 0.3 1.1 1 1.1 1.7v16.2c0 0.7-0.4 1.3-1 1.7l-14.6 9.1q-0.5 0.3-1.1 0.3zm2-17.1v11.5l10.7-6.6v-11.5z"/>
					</g>
				</g>
				<g id="&lt;Group&gt;">
					<g id="&lt;Group&gt;">
						<path id="&lt;Compound Path&gt;" fill-rule="evenodd" class="s1" d="m89 376.2c-0.5 0-0.9-0.1-1.3-0.4l-8.7-7.2h-28c-1.1 0-2-0.9-2-2v-31.3c0-1.1 0.9-2 2-2h47.8c1.1 0 2 0.9 2 2v31.3c0 1.1-0.9 2-2 2h-7.8v5.6c0 0.8-0.5 1.5-1.2 1.8q-0.4 0.2-0.8 0.2zm-36-11.6h26.7c0.5 0 0.9 0.2 1.3 0.5l6 4.9v-3.4c0-1.1 0.9-2 2-2h7.8v-27.3h-43.8z"/>
					</g>
					<g id="&lt;Group&gt;">
						<g id="&lt;Group&gt;">
							<path id="&lt;Path&gt;" class="s1" d="m91 345.1h-32.2c-1.1 0-2-0.9-2-2 0-1.1 0.9-2 2-2h32.2c1.1 0 2 0.9 2 2 0 1.1-0.9 2-2 2z"/>
						</g>
						<g id="&lt;Group&gt;">
							<path id="&lt;Path&gt;" class="s1" d="m91 353h-32.2c-1.1 0-2-0.9-2-2 0-1.1 0.9-2 2-2h32.2c1.1 0 2 0.9 2 2 0 1.1-0.9 2-2 2z"/>
						</g>
						<g id="&lt;Group&gt;">
							<path id="&lt;Path&gt;" class="s1" d="m74.9 360.8h-16.1c-1.1 0-2-0.9-2-2 0-1.1 0.9-2 2-2h16.1c1.1 0 2 0.9 2 2 0 1.1-0.9 2-2 2z"/>
						</g>
					</g>
				</g>
				<g id="&lt;Group&gt;">
					<path id="&lt;Compound Path&gt;" fill-rule="evenodd" class="s1" d="m930 589.2c-0.5 0-1-0.2-1.4-0.6l-13-13c-2.1-2.1-3.3-4.9-3.3-7.9 0-3 1.2-5.8 3.3-7.9 2.1-2.1 4.9-3.3 7.9-3.3 2.4 0 4.6 0.8 6.5 2.1 1.9-1.3 4.1-2.1 6.5-2.1 3 0 5.8 1.2 7.9 3.3 2.1 2.1 3.3 4.9 3.3 7.9 0 3-1.2 5.8-3.3 7.9l-13 13c-0.4 0.4-0.9 0.6-1.4 0.6zm-6.5-28.7c-1.9 0-3.7 0.8-5.1 2.1-1.3 1.4-2.1 3.2-2.1 5.1 0 1.9 0.8 3.7 2.1 5.1l11.6 11.6 11.6-11.6c1.3-1.4 2.1-3.2 2.1-5.1 0-1.9-0.8-3.7-2.1-5.1-2.7-2.7-7.5-2.7-10.2 0-0.7 0.8-2.1 0.8-2.8 0-1.4-1.3-3.2-2.1-5.1-2.1z"/>
				</g>
			</g>
			<g id="&lt;Group&gt;">
				<g id="&lt;Group&gt;">
					<path id="&lt;Compound Path&gt;" fill-rule="evenodd" class="s1" d="m216.9 148c-14.3 0-26.8-10.1-29.9-24-1.7-8-0.2-16.2 4.2-23 4.4-6.9 11.2-11.7 19.2-13.4 2.1-0.5 4.3-0.7 6.5-0.7 14.3 0 26.8 10.1 29.9 24.1 1.7 8 0.2 16.1-4.2 23-4.4 6.9-11.2 11.6-19.2 13.3q-3.2 0.7-6.5 0.7zm0-57.1q-2.8 0-5.7 0.6c-6.9 1.5-12.8 5.6-16.7 11.6-3.8 6-5.1 13.1-3.6 20 2.7 12.1 13.6 20.9 26 20.9q2.8 0 5.6-0.6c7-1.5 12.9-5.6 16.7-11.6 3.9-5.9 5.2-13 3.7-20-2.7-12.1-13.6-20.9-26-20.9z"/>
				</g>
				<g id="&lt;Group&gt;">
					<path id="&lt;Compound Path&gt;" fill-rule="evenodd" class="s1" d="m216.9 138.3c-9.8 0-18.3-6.9-20.4-16.4-1.2-5.4-0.2-11 2.8-15.7 3.1-4.7 7.7-7.9 13.2-9.1q2.2-0.5 4.4-0.5c9.7 0 18.3 6.9 20.4 16.4 2.4 11.3-4.7 22.4-16 24.9q-2.2 0.4-4.4 0.4zm0-37.7q-1.8 0-3.6 0.4c-4.4 1-8.2 3.6-10.6 7.4-2.4 3.8-3.2 8.3-2.3 12.7 1.7 7.7 8.6 13.2 16.5 13.2q1.8 0 3.6-0.4c9.1-1.9 14.8-10.9 12.9-20-1.7-7.7-8.6-13.3-16.5-13.3z"/>
				</g>
				<g id="&lt;Group&gt;">
					<path id="&lt;Compound Path&gt;" fill-rule="evenodd" class="s1" d="m216.9 127.1c-4.5 0-8.5-3.2-9.4-7.6-0.6-2.5-0.1-5.1 1.3-7.2 1.4-2.2 3.5-3.7 6-4.3q1.1-0.2 2.1-0.2c4.5 0 8.5 3.2 9.4 7.6 0.6 2.5 0.1 5.1-1.3 7.3-1.4 2.2-3.5 3.7-6.1 4.2q-1 0.2-2 0.2zm0-15.3q-0.6 0-1.2 0.1c-1.5 0.4-2.8 1.2-3.6 2.5-0.8 1.3-1.1 2.8-0.7 4.3 0.6 3 3.7 5 6.7 4.3 1.5-0.3 2.7-1.2 3.6-2.5 0.8-1.2 1-2.7 0.7-4.2-0.5-2.6-2.9-4.5-5.5-4.5z"/>
				</g>
				<g id="&lt;Group&gt;">
					<path id="&lt;Path&gt;" class="s1" d="m167.1 130.3c-0.9 0-1.8-0.6-2-1.6-0.2-1 0.5-2.1 1.5-2.3l50.4-11c1-0.2 2.1 0.5 2.3 1.5 0.3 1.1-0.4 2.2-1.5 2.4l-50.3 11q-0.2 0-0.4 0z"/>
				</g>
				<g id="&lt;Group&gt;">
					<path id="&lt;Compound Path&gt;" fill-rule="evenodd" class="s1" d="m170.2 129.6c-0.6 0-1.2-0.3-1.6-0.9l-3-4.4c-0.4-0.5-0.5-1.2-0.2-1.9 0.2-0.6 0.8-1 1.4-1.2l9.8-2.1c0.8-0.2 1.6 0.2 2.1 0.8l3 4.5c0.3 0.5 0.4 1.2 0.2 1.8-0.3 0.7-0.8 1.1-1.5 1.3l-9.7 2.1q-0.2 0-0.5 0zm0.3-5.1l0.6 0.9 5.6-1.2-0.6-0.9z"/>
				</g>
				<g id="&lt;Group&gt;">
					<path id="&lt;Compound Path&gt;" fill-rule="evenodd" class="s1" d="m169.4 134.9c-0.6 0-1.1-0.2-1.4-0.5-0.5-0.5-0.7-1.2-0.6-1.8l0.9-5.3c0.1-0.8 0.7-1.5 1.5-1.6l9.8-2.2c0.6-0.1 1.3 0.1 1.8 0.6 0.5 0.4 0.7 1.1 0.6 1.7l-0.9 5.3c-0.1 0.8-0.8 1.5-1.6 1.6l-9.7 2.2q-0.2 0-0.4 0zm2.6-5.6l-0.2 1 5.6-1.2 0.2-1z"/>
				</g>
				<g id="&lt;Group&gt;">
					<g id="&lt;Group&gt;">
						<path id="&lt;Path&gt;" class="s1" d="m123.6 123.2c-1 0-1.8-0.7-2-1.6-0.2-1.1 0.5-2.2 1.5-2.4l50.4-10.9c1-0.3 2.1 0.4 2.3 1.5 0.3 1.1-0.4 2.1-1.5 2.4l-50.3 10.9q-0.2 0.1-0.4 0.1z"/>
					</g>
					<g id="&lt;Group&gt;">
						<path id="&lt;Compound Path&gt;" fill-rule="evenodd" class="s1" d="m126.7 122.5c-0.6 0-1.2-0.3-1.6-0.9l-3-4.4c-0.4-0.6-0.5-1.3-0.2-1.9 0.2-0.6 0.7-1.1 1.4-1.2l9.8-2.1c0.8-0.2 1.6 0.1 2 0.8l3.1 4.4c0.3 0.6 0.4 1.3 0.2 1.9-0.3 0.6-0.8 1.1-1.5 1.2l-9.7 2.1q-0.3 0.1-0.5 0.1zm0.3-5.1l0.6 0.8 5.6-1.2-0.6-0.9z"/>
					</g>
					<g id="&lt;Group&gt;">
						<path id="&lt;Compound Path&gt;" fill-rule="evenodd" class="s1" d="m125.8 127.8c-0.5 0-1-0.2-1.3-0.6-0.5-0.4-0.7-1.1-0.6-1.8l0.9-5.3c0.1-0.8 0.7-1.4 1.5-1.6l9.8-2.1c0.6-0.1 1.3 0 1.8 0.5 0.5 0.5 0.7 1.1 0.6 1.8l-0.9 5.3c-0.2 0.8-0.8 1.4-1.6 1.6l-9.7 2.1q-0.2 0.1-0.5 0.1zm2.7-5.7l-0.2 1.1 5.6-1.2 0.1-1.1z"/>
					</g>
					<g id="&lt;Group&gt;">
						<path id="&lt;Path&gt;" class="s1" d="m173.6 112.3q-0.5 0-1.1-0.4l-3.5-2.3c-1-0.6-1.2-1.9-0.6-2.8 0.6-0.9 1.8-1.2 2.8-0.6l3.5 2.4c1 0.6 1.2 1.9 0.6 2.8-0.4 0.6-1 0.9-1.7 0.9z"/>
					</g>
					<g id="&lt;Group&gt;">
						<path id="&lt;Path&gt;" class="s1" d="m171.4 115.9q-0.6 0-1.1-0.3c-0.9-0.6-1.2-1.8-0.6-2.8l2.2-3.6c0.6-0.9 1.9-1.2 2.8-0.6 0.9 0.6 1.2 1.8 0.6 2.7l-2.2 3.7c-0.4 0.6-1.1 0.9-1.7 0.9z"/>
					</g>
				</g>
				<g id="&lt;Group&gt;">
					<g id="&lt;Group&gt;">
						<path id="&lt;Path&gt;" class="s1" d="m103.9 153.8c-0.9 0-1.8-0.6-2-1.6-0.2-1.1 0.5-2.1 1.5-2.4l50.4-10.9c1-0.2 2.1 0.5 2.3 1.5 0.3 1.1-0.4 2.2-1.5 2.4l-50.3 11q-0.2 0-0.4 0z"/>
					</g>
					<g id="&lt;Group&gt;">
						<path id="&lt;Compound Path&gt;" fill-rule="evenodd" class="s1" d="m107 153.1c-0.6 0-1.2-0.3-1.6-0.9l-3-4.4c-0.4-0.6-0.5-1.3-0.2-1.9 0.2-0.6 0.8-1 1.4-1.2l9.8-2.1c0.8-0.2 1.6 0.1 2.1 0.8l3 4.5c0.3 0.5 0.4 1.2 0.2 1.8-0.3 0.6-0.8 1.1-1.5 1.2l-9.7 2.2q-0.2 0-0.5 0zm0.3-5.1l0.6 0.9 5.6-1.2-0.6-0.9z"/>
					</g>
					<g id="&lt;Group&gt;">
						<path id="&lt;Compound Path&gt;" fill-rule="evenodd" class="s1" d="m106.2 158.4c-0.6 0-1.1-0.2-1.4-0.5-0.5-0.5-0.7-1.2-0.6-1.8l0.9-5.3c0.1-0.8 0.7-1.5 1.5-1.6l9.8-2.2c0.6-0.1 1.3 0.1 1.8 0.5 0.5 0.5 0.7 1.2 0.6 1.8l-0.9 5.3c-0.1 0.8-0.8 1.5-1.6 1.6l-9.7 2.2q-0.2 0-0.4 0zm2.6-5.6l-0.2 1 5.6-1.2 0.2-1z"/>
					</g>
					<g id="&lt;Group&gt;">
						<path id="&lt;Path&gt;" class="s1" d="m153.9 142.9q-0.5 0-1-0.3l-3.6-2.4c-1-0.6-1.2-1.8-0.6-2.7 0.6-1 1.8-1.2 2.8-0.6l3.5 2.3c1 0.6 1.2 1.9 0.6 2.8-0.4 0.6-1 0.9-1.7 0.9z"/>
					</g>
					<g id="&lt;Group&gt;">
						<path id="&lt;Path&gt;" class="s1" d="m151.7 146.5q-0.6 0-1.1-0.3c-0.9-0.5-1.2-1.8-0.6-2.7l2.3-3.7c0.5-0.9 1.8-1.2 2.7-0.6 0.9 0.6 1.2 1.8 0.6 2.8l-2.2 3.6c-0.4 0.6-1.1 0.9-1.7 0.9z"/>
					</g>
				</g>
			</g>
			<g id="&lt;Group&gt;">
				<g id="&lt;Group&gt;">
					<path id="&lt;Compound Path&gt;" fill-rule="evenodd" class="s1" d="m76 984.8h-34.3c-1.1 0-2-0.9-2-2v-21.6c0-1.1 0.9-2 2-2h34.3c1.1 0 2 0.9 2 2v21.6c0 1.1-0.9 2-2 2zm-32.3-4h30.3v-17.6h-30.3z"/>
				</g>
				<g id="&lt;Group&gt;">
					<path id="&lt;Path&gt;" class="s1" d="m58.8 977.1c-0.4 0-0.9-0.2-1.2-0.5l-17.2-13.9c-0.8-0.7-0.9-1.9-0.2-2.8 0.7-0.9 1.9-1 2.8-0.3l15.8 12.9 15.9-12.9c0.9-0.7 2.1-0.6 2.8 0.3 0.7 0.9 0.6 2.1-0.3 2.8l-17.1 13.9c-0.4 0.3-0.8 0.5-1.3 0.5z"/>
				</g>
			</g>
			<g id="&lt;Group&gt;">
				<path id="&lt;Compound Path&gt;" fill-rule="evenodd" class="s1" d="m717.2 303.7q-0.1 0-0.3-0.1c-0.8-0.1-1.4-0.6-1.6-1.4l-6.6-22.3c-0.6-1.9-0.7-3.9-0.5-5.9 1-6.2 6.5-11 12.8-11q1 0 1.9 0.2c3.4 0.5 6.4 2.3 8.5 5 2.1 2.8 2.9 6.2 2.4 9.6q-0.4 3-2.2 5.6l-12.7 19.4c-0.4 0.5-1 0.9-1.7 0.9zm3.8-36.7c-4.4 0-8.2 3.3-8.8 7.6q-0.3 2.1 0.4 4.1l5.3 18.2 10.4-15.8q1.2-1.8 1.5-3.9c0.4-2.3-0.2-4.7-1.6-6.6-1.4-1.9-3.5-3.1-5.9-3.5q-0.6-0.1-1.3-0.1zm0 14.7q-0.4 0-0.8-0.1c-3.1-0.5-5.3-3.4-4.8-6.5 0.4-3.1 3.3-5.3 6.5-4.8 1.5 0.2 2.8 1 3.7 2.2 0.9 1.3 1.3 2.8 1.1 4.3-0.4 2.8-2.9 4.9-5.7 4.9zm0-7.5c-0.8 0-1.5 0.7-1.7 1.5-0.1 0.9 0.5 1.8 1.5 1.9 0.9 0.2 1.8-0.5 1.9-1.4 0.1-0.5 0-0.9-0.3-1.3-0.3-0.4-0.7-0.6-1.1-0.7q-0.2 0-0.3 0z"/>
			</g>
			<g id="&lt;Group&gt;">
				<g id="&lt;Group&gt;">
					<path id="&lt;Compound Path&gt;" fill-rule="evenodd" class="s1" d="m943.1 127.1h-29.7c-1.1 0-2-0.9-2-2v-39.6c0-1.1 0.9-2 2-2h6.9c1.1 0 2 0.9 2 2v30.6h20.8c1.1 0 2 0.9 2 2v7c0 1.1-0.9 2-2 2zm-27.7-4h25.7v-3h-20.8c-1.1 0-2-0.8-2-2v-30.6h-2.9z"/>
				</g>
				<g id="&lt;Group&gt;">
					<g id="&lt;Group&gt;">
						<path id="&lt;Compound Path&gt;" fill-rule="evenodd" class="s1" d="m950 120.1h-29.7c-1.1 0-2-0.8-2-2v-39.5c0-1.1 0.9-2 2-2h22.7c0.6 0 1.1 0.2 1.5 0.6l7 7c0.3 0.4 0.5 0.9 0.5 1.4v32.5c0 1.2-0.8 2-2 2zm-27.7-4h25.7v-29.7l-5.8-5.8h-19.9z"/>
					</g>
					<g id="&lt;Group&gt;">
						<path id="&lt;Path&gt;" class="s1" d="m950 87.6h-7c-1.1 0-2-0.9-2-2v-7c0-0.8 0.5-1.5 1.3-1.8 0.7-0.4 1.6-0.2 2.2 0.4l7 7c0.5 0.6 0.7 1.4 0.4 2.2-0.3 0.7-1 1.2-1.9 1.2z"/>
					</g>
					<g id="&lt;Group&gt;">
						<path id="&lt;Path&gt;" class="s1" d="m942 92.6h-13.7c-1.1 0-2-0.9-2-2 0-1.1 0.9-2 2-2h13.7c1.2 0 2 0.9 2 2 0 1.1-0.8 2-2 2z"/>
					</g>
					<g id="&lt;Group&gt;">
						<path id="&lt;Path&gt;" class="s1" d="m942 97.4h-13.7c-1.1 0-2-0.9-2-2 0-1.1 0.9-2 2-2h13.7c1.2 0 2 0.9 2 2 0 1.1-0.8 2-2 2z"/>
					</g>
					<g id="&lt;Group&gt;">
						<path id="&lt;Path&gt;" class="s1" d="m935.2 102.3h-6.9c-1.1 0-2-0.9-2-2 0-1.1 0.9-2 2-2h6.9c1.1 0 2 0.9 2 2 0 1.1-0.9 2-2 2z"/>
					</g>
				</g>
			</g>
			<g id="&lt;Group&gt;">
				<g id="&lt;Group&gt;">
					<path id="&lt;Compound Path&gt;" fill-rule="evenodd" class="s1" d="m643.9 778.5h-29.7c-1.1 0-2-0.8-2-2v-39.5c0-1.1 0.9-2 2-2h6.9c1.1 0 2 0.9 2 2v30.6h20.8c1.1 0 2 0.9 2 2v6.9c0 1.2-0.9 2-2 2zm-27.7-4h25.7v-2.9h-20.8c-1.1 0-2-0.9-2-2v-30.6h-2.9z"/>
				</g>
				<g id="&lt;Group&gt;">
					<g id="&lt;Group&gt;">
						<path id="&lt;Compound Path&gt;" fill-rule="evenodd" class="s1" d="m650.9 771.6h-29.8c-1.1 0-2-0.9-2-2v-39.5c0-1.1 0.9-2 2-2h22.8c0.5 0 1 0.2 1.4 0.5l7 7.1c0.3 0.3 0.6 0.8 0.6 1.4v32.5c0 1.1-0.9 2-2 2zm-27.8-4h25.8v-29.7l-5.9-5.8h-19.9z"/>
					</g>
					<g id="&lt;Group&gt;">
						<path id="&lt;Path&gt;" class="s1" d="m650.9 739.1h-7c-1.2 0-2-0.9-2-2v-7c0-0.8 0.4-1.6 1.2-1.9 0.7-0.3 1.6-0.1 2.2 0.4l7 7.1c0.5 0.5 0.7 1.4 0.4 2.1-0.3 0.8-1 1.3-1.8 1.3z"/>
					</g>
					<g id="&lt;Group&gt;">
						<path id="&lt;Path&gt;" class="s1" d="m642.9 744.1h-13.8c-1.1 0-2-0.9-2-2 0-1.1 0.9-2 2-2h13.8c1.1 0 2 0.9 2 2 0 1.1-0.9 2-2 2z"/>
					</g>
					<g id="&lt;Group&gt;">
						<path id="&lt;Path&gt;" class="s1" d="m642.9 748.9h-13.8c-1.1 0-2-0.9-2-2 0-1.1 0.9-2 2-2h13.8c1.1 0 2 0.9 2 2 0 1.1-0.9 2-2 2z"/>
					</g>
					<g id="&lt;Group&gt;">
						<path id="&lt;Path&gt;" class="s1" d="m636 753.7h-6.9c-1.1 0-2-0.9-2-2 0-1.1 0.9-2 2-2h6.9c1.1 0 2 0.9 2 2 0 1.1-0.9 2-2 2z"/>
					</g>
				</g>
			</g>
			<g id="&lt;Group&gt;">
				<path id="&lt;Path&gt;" class="s1" d="m179.2 64.7c-1.1 0-2-0.8-2-1.9l-1.4-20.7c0-0.5 0.2-1.1 0.6-1.5 4.3-4.4 6.5-10.5 5.8-16.7-1-9.9-9.3-17.8-19.3-18.4-5.7-0.3-11.1 1.7-15.3 5.5-4.1 3.9-6.5 9.2-6.5 14.9q0 0.7-0.4 1.4l-4.9 9.8h3.3c1.1 0 2 0.9 2 2v13.5c0 0.4 0.2 0.6 0.6 0.6h11.8c0.6 0 1.1 0.2 1.5 0.5 0.4 0.4 0.6 0.9 0.6 1.5v7.5c0 1.1-0.9 2-2 2-1.1 0-2-0.9-2-2v-5.5h-9.9c-2.6 0-4.6-2-4.6-4.6v-11.5h-2.4c-1.2 0-2.2-0.6-2.8-1.6-0.6-1-0.7-2.2-0.1-3.2l5.3-10.7c0.1-6.7 2.9-12.9 7.8-17.5 5-4.6 11.4-7 18.2-6.6 12 0.7 21.9 10.2 23.1 22 0.7 7.1-1.6 14-6.3 19.2l1.3 19.8c0 1.1-0.8 2.1-1.9 2.2q-0.1 0-0.1 0z"/>
			</g>
			<g id="&lt;Group&gt;">
				<path id="&lt;Path&gt;" class="s1" d="m596.9 942.1c-1.1 0-2-0.8-2-1.9l-1.4-20.6c0-0.6 0.2-1.2 0.6-1.6 4.3-4.4 6.4-10.4 5.8-16.6-1-9.9-9.3-17.9-19.3-18.4-5.7-0.3-11.1 1.6-15.3 5.5-4.1 3.9-6.5 9.1-6.5 14.8q0 0.8-0.4 1.4l-4.9 9.8h3.3c1.1 0 2 0.9 2 2v13.6c0 0.3 0.2 0.6 0.6 0.6l11.8-0.1c0.6 0 1.1 0.2 1.5 0.6 0.4 0.4 0.6 0.9 0.6 1.4v7.5c0 1.1-0.9 2-2 2-1.1 0-2-0.9-2-2v-5.4h-9.9c-2.6 0-4.6-2.1-4.6-4.6v-11.6h-2.4c-1.2 0-2.2-0.6-2.8-1.6-0.6-0.9-0.7-2.1-0.2-3.2l5.4-10.6c0.1-6.7 2.9-12.9 7.8-17.5 4.9-4.7 11.4-7 18.2-6.6 12 0.7 21.9 10.1 23.1 22 0.7 7-1.6 14-6.3 19.2l1.3 19.8c0 1.1-0.8 2-1.9 2.1q-0.1 0-0.1 0z"/>
			</g>
			<g id="&lt;Group&gt;">
				<g id="&lt;Group&gt;">
					<path id="&lt;Compound Path&gt;" fill-rule="evenodd" class="s1" d="m393.7 845.6h-70.9c-1.1 0-2-0.9-2-2v-40.3c0-1.1 0.9-2 2-2h70.9c1.1 0 2 0.9 2 2v40.3c0 1.1-0.9 2-2 2zm-68.9-4h66.9v-36.3h-66.9z"/>
				</g>
				<g id="&lt;Group&gt;">
					<path id="&lt;Compound Path&gt;" fill-rule="evenodd" class="s1" d="m382.9 839.1h-49.2c-1.1 0-2-0.9-2-2 0-1.3-1.1-2.3-2.4-2.3-1.1 0-2-0.9-2-2v-18.7c0-1.1 0.9-2 2-2 1.3 0 2.4-1 2.4-2.3 0-1.1 0.9-2 2-2h49.2c1.1 0 2 0.9 2 2 0 1.3 1 2.3 2.3 2.3 1.1 0 2 0.9 2 2v18.7c0 1.1-0.9 2-2 2-1.3 0-2.3 1-2.3 2.3 0 1.1-0.9 2-2 2zm-47.6-4h45.9c0.6-1.9 2.1-3.4 4-4v-15.3c-1.9-0.7-3.4-2.1-4-4h-45.9c-0.6 1.9-2.1 3.3-4 4v15.3c1.9 0.6 3.4 2.1 4 4z"/>
				</g>
				<g id="&lt;Group&gt;">
					<path id="&lt;Compound Path&gt;" fill-rule="evenodd" class="s1" d="m358.3 832.2c-4.9 0-8.8-3.9-8.8-8.8 0-4.8 3.9-8.7 8.8-8.7 4.8 0 8.7 3.9 8.7 8.7 0 4.9-3.9 8.8-8.7 8.8zm0-13.5c-2.7 0-4.8 2.1-4.8 4.7 0 2.7 2.1 4.8 4.8 4.8 2.6 0 4.7-2.1 4.7-4.8 0-2.6-2.1-4.7-4.7-4.7z"/>
				</g>
			</g>
			<g id="&lt;Group&gt;">
				<g id="&lt;Group&gt;">
					<path id="&lt;Compound Path&gt;" fill-rule="evenodd" class="s1" d="m173.9 333.5c-16.7 0-30.4-13.7-30.4-30.4 0-16.8 13.7-30.4 30.4-30.4 16.8 0 30.4 13.6 30.4 30.4 0 16.7-13.6 30.4-30.4 30.4zm0-56.8c-14.5 0-26.4 11.8-26.4 26.4 0 14.5 11.9 26.4 26.4 26.4 14.6 0 26.4-11.9 26.4-26.4 0-14.6-11.8-26.4-26.4-26.4z"/>
				</g>
				<g id="&lt;Group&gt;">
					<path id="&lt;Compound Path&gt;" fill-rule="evenodd" class="s1" d="m202.3 304.2h-28.4c-1.1 0-2-0.9-2-2v-27.5c0-1.1 0.9-2 2-2 16.5 0 29.9 12.9 30.4 29.4 0 0.6-0.2 1.1-0.6 1.5-0.3 0.4-0.9 0.6-1.4 0.6zm-26.4-4h24.3c-1.4-12.7-11.5-22.5-24.3-23.5z"/>
				</g>
				<g id="&lt;Group&gt;">
					<path id="&lt;Path&gt;" class="s1" d="m160.3 330q-0.4 0-0.9-0.2c-1-0.5-1.3-1.7-0.8-2.7l13.6-25.8q0.2-0.4 0.5-0.7l22.1-16.2c0.9-0.6 2.1-0.4 2.8 0.5 0.6 0.9 0.4 2.1-0.5 2.8l-21.6 15.8-13.4 25.5c-0.4 0.6-1 1-1.8 1z"/>
				</g>
				<g id="&lt;Group&gt;">
					<path id="&lt;Path&gt;" class="s1" d="m174.7 304.2c-0.9 0-1.6-0.5-1.9-1.3-0.4-1.1 0.1-2.2 1.2-2.6l25.3-9.2c1.1-0.3 2.2 0.2 2.6 1.2 0.4 1.1-0.2 2.2-1.2 2.6l-25.4 9.2q-0.3 0.1-0.6 0.1z"/>
				</g>
			</g>
			<g id="&lt;Group&gt;">
				<g id="&lt;Group&gt;">
					<path id="&lt;Compound Path&gt;" fill-rule="evenodd" class="s1" d="m978.5 255.8c-16.8 0-30.5-13.7-30.5-30.4 0-16.8 13.7-30.4 30.5-30.4 16.7 0 30.4 13.6 30.4 30.4 0 16.7-13.7 30.4-30.4 30.4zm0-56.8c-14.6 0-26.5 11.8-26.5 26.4 0 14.5 11.9 26.4 26.5 26.4 14.5 0 26.4-11.9 26.4-26.4 0-14.6-11.9-26.4-26.4-26.4z"/>
				</g>
				<g id="&lt;Group&gt;">
					<path id="&lt;Compound Path&gt;" fill-rule="evenodd" class="s1" d="m1006.8 226.5h-28.3c-1.1 0-2-0.9-2-2v-27.5c0-1.1 0.9-2 2-2 16.5 0 29.8 12.9 30.3 29.4 0 0.6-0.2 1.1-0.5 1.5-0.4 0.4-0.9 0.6-1.5 0.6zm-26.3-4h24.2c-1.4-12.7-11.5-22.5-24.2-23.5z"/>
				</g>
				<g id="&lt;Group&gt;">
					<path id="&lt;Path&gt;" class="s1" d="m964.9 252.3q-0.5 0-1-0.2c-0.9-0.5-1.3-1.7-0.8-2.7l13.6-25.8q0.2-0.5 0.6-0.7l22-16.2c0.9-0.6 2.1-0.4 2.8 0.5 0.7 0.8 0.5 2.1-0.4 2.7l-21.7 15.9-13.4 25.5c-0.3 0.6-1 1-1.7 1z"/>
				</g>
				<g id="&lt;Group&gt;">
					<path id="&lt;Path&gt;" class="s1" d="m979.2 226.5c-0.8 0-1.6-0.5-1.9-1.3-0.4-1.1 0.2-2.2 1.2-2.6l25.3-9.2c1.1-0.3 2.2 0.2 2.6 1.2 0.4 1.1-0.2 2.2-1.2 2.6l-25.3 9.2q-0.4 0.1-0.7 0.1z"/>
				</g>
			</g>
			<path id="&lt;Path&gt;" class="s2" d="m290.3 473.4c0 1-4.8 1.8-10.6 1.8-5.9 0-10.7-0.8-10.7-1.8 0-0.9 4.8-1.7 10.7-1.7 5.8 0 10.6 0.8 10.6 1.7z"/>
			<path id="&lt;Path&gt;" class="s3" d="m652.3 539.7c5.2 0 5.2 8.7 10.4 8.7 5.1 0 5.1-8.7 10.3-8.7 5.2 0 5.2 8.7 10.4 8.7 5.2 0 5.2-8.7 10.3-8.7 5.2 0 5.2 8.7 10.4 8.7 5.2 0 5.2-8.7 10.4-8.7 5.2 0 5.2 8.7 10.3 8.7"/>
			<g id="&lt;Group&gt;">
				<path id="&lt;Path&gt;" class="s1" d="m299.3 236c-3.7 0-5.5-2.9-6.9-5.3-1.4-2.3-2.2-3.3-3.5-3.3-1.3 0-2.1 1-3.5 3.3-1.4 2.4-3.1 5.3-6.9 5.3-3.7 0-5.5-2.9-6.9-5.3-1.3-2.3-2.1-3.3-3.4-3.3-1.3 0-2.1 1-3.5 3.3-1.4 2.4-3.2 5.3-6.9 5.3-3.7 0-5.5-2.9-6.9-5.3-1.3-2.3-2.1-3.3-3.4-3.3-1.4 0-2.1 1-3.5 3.3-1.4 2.4-3.2 5.3-6.9 5.3-3.7 0-5.5-2.9-6.9-5.3-1.4-2.3-2.1-3.3-3.5-3.3-1.1 0-2-0.9-2-2 0-1.1 0.9-2 2-2 3.8 0 5.5 2.9 6.9 5.3 1.4 2.2 2.2 3.3 3.5 3.3 1.3 0 2.1-1.1 3.5-3.3 1.4-2.4 3.1-5.3 6.9-5.3 3.7 0 5.4 2.9 6.9 5.3 1.3 2.2 2.1 3.3 3.4 3.3 1.3 0 2.1-1.1 3.5-3.3 1.4-2.4 3.1-5.3 6.9-5.3 3.7 0 5.5 2.9 6.9 5.3 1.3 2.2 2.1 3.3 3.4 3.3 1.3 0 2.1-1.1 3.5-3.3 1.4-2.4 3.2-5.3 6.9-5.3 3.7 0 5.5 2.9 6.9 5.3 1.4 2.2 2.2 3.3 3.5 3.3 1.1 0 2 0.9 2 2 0 1.1-0.9 2-2 2z"/>
			</g>
			<path id="&lt;Path&gt;" class="s3" d="m652.3 553.3c5.2 0 5.2 8.7 10.4 8.7 5.1 0 5.1-8.7 10.3-8.7 5.2 0 5.2 8.7 10.4 8.7 5.2 0 5.2-8.7 10.3-8.7 5.2 0 5.2 8.7 10.4 8.7 5.2 0 5.2-8.7 10.4-8.7 5.2 0 5.2 8.7 10.3 8.7"/>
			<g id="&lt;Group&gt;">
				<g id="&lt;Group&gt;">
					<path id="&lt;Path&gt;" class="s1" d="m888.5 444.3h-58.4c-1.1 0-2-0.9-2-2 0-1.1 0.9-2 2-2h58.4c1.1 0 2 0.9 2 2 0 1.1-0.9 2-2 2z"/>
				</g>
				<g id="&lt;Group&gt;">
					<path id="&lt;Compound Path&gt;" fill-rule="evenodd" class="s1" d="m885.8 452.6h-53c-2.6 0-4.7-2.1-4.7-4.7v-30.6c0-2.6 2.1-4.7 4.7-4.7h53c2.6 0 4.7 2.1 4.7 4.7v30.6c0 2.6-2.1 4.7-4.7 4.7zm-53-36c-0.4 0-0.7 0.3-0.7 0.7v30.6c0 0.4 0.3 0.7 0.7 0.7h53c0.4 0 0.7-0.3 0.7-0.7v-30.6c0-0.4-0.3-0.7-0.7-0.7z"/>
				</g>
				<g id="&lt;Group&gt;">
					<path id="&lt;Path&gt;" class="s1" d="m859.3 448.4c-0.5 0-1-0.2-1.4-0.6-0.4-0.3-0.6-0.8-0.6-1.4 0-0.5 0.2-1 0.6-1.4 0.7-0.7 2.1-0.7 2.8 0 0.4 0.4 0.6 0.9 0.6 1.4 0 0.6-0.2 1.1-0.6 1.4-0.3 0.4-0.9 0.6-1.4 0.6z"/>
				</g>
				<g id="&lt;Group&gt;">
					<path id="&lt;Path&gt;" class="s1" d="m859.3 460.5h-9.5c-0.9 0-1.7-0.6-1.9-1.5-0.2-0.9 0.2-1.8 1-2.2 2-1 3.3-3 3.3-5.3v-0.9c0-1.1 0.9-2 2-2 1.1 0 2 0.9 2 2v0.9c0 1.8-0.5 3.6-1.4 5h4.5c1.1 0 2 0.9 2 2 0 1.1-0.9 2-2 2z"/>
				</g>
				<g id="&lt;Group&gt;">
					<path id="&lt;Path&gt;" class="s1" d="m868.8 460.5h-9.5c-1.1 0-2-0.9-2-2 0-1.1 0.9-2 2-2h4.5c-0.8-1.4-1.3-3.2-1.3-5v-0.9c0-1.1 0.9-2 2-2 1.1 0 2 0.9 2 2v0.9c0 2.3 1.2 4.3 3.2 5.3 0.8 0.4 1.3 1.3 1.1 2.2-0.3 0.9-1.1 1.5-2 1.5z"/>
				</g>
			</g>
			<g id="&lt;Group&gt;">
				<g id="&lt;Group&gt;">
					<path id="&lt;Compound Path&gt;" fill-rule="evenodd" class="s1" d="m64.7 894.8h-35.7c-1.1 0-2-0.9-2-2v-47.5c0-1.1 0.9-2 2-2h8.3c1.1 0 2 0.9 2 2v37.1h25.4c1.1 0 2 0.9 2 2v8.4c0 1.1-0.9 2-2 2zm-33.7-4h31.7v-4.4h-25.4c-1.1 0-2-0.9-2-2v-37.1h-4.3z"/>
				</g>
				<g id="&lt;Group&gt;">
					<g id="&lt;Group&gt;">
						<path id="&lt;Compound Path&gt;" fill-rule="evenodd" class="s1" d="m73 886.4h-35.7c-1.1 0-2-0.9-2-2v-47.5c0-1.1 0.9-2 2-2h27.3c0.6 0 1.1 0.2 1.4 0.6l8.4 8.4c0.4 0.4 0.6 0.9 0.6 1.4v39.1c0 1.1-0.9 2-2 2zm-33.7-4h31.7v-36.2l-7.2-7.3h-24.5z"/>
					</g>
					<g id="&lt;Group&gt;">
						<path id="&lt;Compound Path&gt;" fill-rule="evenodd" class="s1" d="m73 847.3h-8.4c-1.1 0-2-0.9-2-2v-8.4c0-0.8 0.5-1.5 1.3-1.8 0.7-0.3 1.6-0.2 2.1 0.4l8.4 8.4c0.6 0.6 0.8 1.5 0.5 2.2-0.3 0.8-1.1 1.2-1.9 1.2zm-6.4-4h1.6l-1.6-1.5z"/>
					</g>
					<g id="&lt;Group&gt;">
						<path id="&lt;Path&gt;" class="s1" d="m63.4 853.4h-16.5c-1.1 0-2-0.9-2-2 0-1.2 0.9-2 2-2h16.5c1.1 0 2 0.8 2 2 0 1.1-0.9 2-2 2z"/>
					</g>
					<g id="&lt;Group&gt;">
						<path id="&lt;Path&gt;" class="s1" d="m63.4 859.2h-16.5c-1.1 0-2-0.9-2-2 0-1.2 0.9-2 2-2h16.5c1.1 0 2 0.8 2 2 0 1.1-0.9 2-2 2z"/>
					</g>
					<g id="&lt;Group&gt;">
						<path id="&lt;Path&gt;" class="s1" d="m55.2 865h-8.3c-1.1 0-2-0.9-2-2 0-1.2 0.9-2 2-2h8.3c1.1 0 2 0.8 2 2 0 1.1-0.9 2-2 2z"/>
					</g>
				</g>
			</g>
			<g id="&lt;Group&gt;">
				<g id="&lt;Group&gt;">
					<path id="&lt;Path&gt;" class="s1" d="m103.3 564h-64.2c-1.1 0-2-0.9-2-2 0-1.1 0.9-2 2-2h64.2c1.1 0 2 0.9 2 2 0 1.1-0.9 2-2 2z"/>
				</g>
				<g id="&lt;Group&gt;">
					<path id="&lt;Path&gt;" class="s1" d="m97.6 571.1c-0.5 0-1.1-0.2-1.4-0.6-0.8-0.7-0.8-2 0-2.8l5.7-5.7-5.7-5.7c-0.8-0.8-0.8-2.1 0-2.9 0.7-0.7 2-0.7 2.8 0l7.1 7.2c0.8 0.8 0.8 2 0 2.8l-7.1 7.1c-0.4 0.4-0.9 0.6-1.4 0.6z"/>
				</g>
			</g>
			<g id="&lt;Group&gt;">
				<g id="&lt;Group&gt;">
					<path id="&lt;Path&gt;" class="s1" d="m99.2 773.5q-0.6 0-1.2-0.4c-0.9-0.7-1.1-1.9-0.4-2.8l38.2-51.6c0.7-0.9 1.9-1 2.8-0.4 0.9 0.7 1.1 1.9 0.4 2.8l-38.2 51.6c-0.4 0.5-1 0.8-1.6 0.8z"/>
				</g>
				<g id="&lt;Group&gt;">
					<path id="&lt;Path&gt;" class="s1" d="m139.8 730.7c-1 0-1.9-0.7-2-1.7l-1.2-8-8 1.2c-1.1 0.2-2.1-0.6-2.3-1.7-0.1-1.1 0.6-2.1 1.7-2.2l10-1.5c0.5-0.1 1 0 1.5 0.3 0.4 0.4 0.7 0.8 0.8 1.4l1.4 9.9c0.2 1.1-0.5 2.2-1.6 2.3q-0.2 0-0.3 0z"/>
				</g>
			</g>
			<g id="&lt;Group&gt;">
				<g id="&lt;Group&gt;">
					<path id="&lt;Path&gt;" class="s1" d="m151.7 797q-0.3 0-0.6-0.1c-1-0.3-1.7-1.3-1.4-2.4l16.5-62.1c0.2-1 1.3-1.7 2.4-1.4 1.1 0.3 1.7 1.4 1.4 2.5l-16.4 62c-0.2 0.9-1.1 1.5-1.9 1.5z"/>
				</g>
				<g id="&lt;Group&gt;">
					<path id="&lt;Path&gt;" class="s1" d="m173.5 742.3c-0.7 0-1.3-0.4-1.7-1l-4.1-7-7 4.1c-0.9 0.5-2.1 0.2-2.7-0.8-0.5-0.9-0.2-2.1 0.7-2.7l8.8-5.1c0.9-0.5 2.1-0.2 2.7 0.8l5.1 8.7c0.5 0.9 0.2 2.2-0.8 2.7q-0.4 0.3-1 0.3z"/>
				</g>
			</g>
			<g id="&lt;Group&gt;">
				<g id="&lt;Group&gt;">
					<g id="&lt;Group&gt;">
						<path id="&lt;Path&gt;" class="s4" d="m746.1 468.8c0 3-2.4 5.4-5.4 5.4-3 0-5.4-2.4-5.4-5.4 0-3 2.4-5.4 5.4-5.4 3 0 5.4 2.4 5.4 5.4z"/>
					</g>
				</g>
				<g id="&lt;Group&gt;">
					<g id="&lt;Group&gt;">
						<path id="&lt;Path&gt;" class="s4" d="m217 480.7c0 3-2.4 5.4-5.3 5.4-3 0-5.4-2.4-5.4-5.4 0-2.9 2.4-5.3 5.4-5.3 2.9 0 5.3 2.4 5.3 5.3z"/>
					</g>
				</g>
				<g id="&lt;Group&gt;">
					<g id="&lt;Group&gt;">
						<path id="&lt;Path&gt;" class="s4" d="m129.5 901c0 3-2.4 5.4-5.4 5.4-3 0-5.4-2.4-5.4-5.4 0-2.9 2.4-5.3 5.4-5.3 3 0 5.4 2.4 5.4 5.3z"/>
					</g>
				</g>
				<g id="&lt;Group&gt;">
					<g id="&lt;Group&gt;">
						<path id="&lt;Path&gt;" class="s4" d="m250.4 675.3c0 3-2.4 5.4-5.3 5.4-3 0-5.4-2.4-5.4-5.4 0-3 2.4-5.4 5.4-5.4 2.9 0 5.3 2.4 5.3 5.4z"/>
					</g>
				</g>
				<g id="&lt;Group&gt;">
					<g id="&lt;Group&gt;">
						<path id="&lt;Path&gt;" class="s4" d="m937.1 325c0 3-2.4 5.4-5.4 5.4-2.9 0-5.3-2.4-5.3-5.4 0-3 2.4-5.4 5.3-5.4 3 0 5.4 2.4 5.4 5.4z"/>
					</g>
				</g>
				<g id="&lt;Group&gt;">
					<g id="&lt;Group&gt;">
						<path id="&lt;Path&gt;" class="s4" d="m619.5 131.4c0 3-2.4 5.4-5.4 5.4-2.9 0-5.4-2.4-5.4-5.4 0-3 2.5-5.4 5.4-5.4 3 0 5.4 2.4 5.4 5.4z"/>
					</g>
				</g>
				<g id="&lt;Group&gt;">
					<g id="&lt;Group&gt;">
						<path id="&lt;Path&gt;" class="s4" d="m377.6 44.7c0 2.9-2.4 5.3-5.3 5.3-3 0-5.4-2.4-5.4-5.3 0-3 2.4-5.4 5.4-5.4 2.9 0 5.3 2.4 5.3 5.4z"/>
					</g>
				</g>
				<g id="&lt;Group&gt;">
					<g id="&lt;Group&gt;">
						<path id="&lt;Path&gt;" class="s4" d="m92.6 263.6c0 3-2.4 5.4-5.4 5.4-2.9 0-5.3-2.4-5.3-5.4 0-3 2.4-5.4 5.3-5.4 3 0 5.4 2.4 5.4 5.4z"/>
					</g>
				</g>
				<g id="&lt;Group&gt;">
					<g id="&lt;Group&gt;">
						<path id="&lt;Path&gt;" class="s4" d="m40.9 505.7c0 3-2.4 5.4-5.4 5.4-3 0-5.4-2.4-5.4-5.4 0-3 2.4-5.4 5.4-5.4 3 0 5.4 2.4 5.4 5.4z"/>
					</g>
				</g>
				<g id="&lt;Group&gt;">
					<g id="&lt;Group&gt;">
						<path id="&lt;Path&gt;" class="s4" d="m717.1 463.9v9.8"/>
						<path id="&lt;Path&gt;" class="s4" d="m717.1 463.9v9.8"/>
						<path id="&lt;Path&gt;" class="s4" d="m722 468.8h-9.8"/>
					</g>
				</g>
				<g id="&lt;Group&gt;">
					<g id="&lt;Group&gt;">
						<path id="&lt;Path&gt;" class="s4" d="m930 824.4v9.9"/>
						<path id="&lt;Path&gt;" class="s4" d="m930 824.4v9.9"/>
						<path id="&lt;Path&gt;" class="s4" d="m934.9 829.3h-9.8"/>
					</g>
				</g>
				<g id="&lt;Group&gt;">
					<g id="&lt;Group&gt;">
						<path id="&lt;Path&gt;" class="s4" d="m641 126.5v9.8"/>
						<path id="&lt;Path&gt;" class="s4" d="m641 126.5v9.8"/>
						<path id="&lt;Path&gt;" class="s4" d="m645.9 131.4h-9.8"/>
					</g>
				</g>
				<g id="&lt;Group&gt;">
					<g id="&lt;Group&gt;">
						<path id="&lt;Path&gt;" class="s4" d="m906.5 174.9c0 2.9-2.4 5.3-5.4 5.3-2.9 0-5.3-2.4-5.3-5.3 0-3 2.4-5.4 5.3-5.4 3 0 5.4 2.4 5.4 5.4z"/>
					</g>
				</g>
				<g id="&lt;Group&gt;">
					<g id="&lt;Group&gt;">
						<path id="&lt;Path&gt;" class="s4" d="m976.2 48.3v9.8"/>
						<path id="&lt;Path&gt;" class="s4" d="m976.2 48.3v9.8"/>
						<path id="&lt;Path&gt;" class="s4" d="m981.1 53.2h-9.8"/>
					</g>
				</g>
				<g id="&lt;Group&gt;">
					<g id="&lt;Group&gt;">
						<path id="&lt;Path&gt;" class="s4" d="m931.7 346.1v9.8"/>
						<path id="&lt;Path&gt;" class="s4" d="m931.7 346.1v9.8"/>
						<path id="&lt;Path&gt;" class="s4" d="m936.6 351h-9.8"/>
					</g>
				</g>
				<g id="&lt;Group&gt;">
					<g id="&lt;Group&gt;">
						<path id="&lt;Path&gt;" class="s4" d="m305.2 933.8v9.8"/>
						<path id="&lt;Path&gt;" class="s4" d="m305.2 933.8v9.8"/>
						<path id="&lt;Path&gt;" class="s4" d="m310.1 938.7h-9.8"/>
					</g>
				</g>
				<g id="&lt;Group&gt;">
					<g id="&lt;Group&gt;">
						<path id="&lt;Path&gt;" class="s4" d="m265.9 165.1v9.8"/>
						<path id="&lt;Path&gt;" class="s4" d="m265.9 165.1v9.8"/>
						<path id="&lt;Path&gt;" class="s4" d="m270.8 170h-9.8"/>
					</g>
				</g>
				<g id="&lt;Group&gt;">
					<g id="&lt;Group&gt;">
						<path id="&lt;Path&gt;" class="s4" d="m60.7 197.7v9.8"/>
						<path id="&lt;Path&gt;" class="s4" d="m60.7 197.7v9.8"/>
						<path id="&lt;Path&gt;" class="s4" d="m65.6 202.6h-9.8"/>
					</g>
				</g>
				<g id="&lt;Group&gt;">
					<g id="&lt;Group&gt;">
						<path id="&lt;Path&gt;" class="s4" d="m477.1 531.7v9.8"/>
						<path id="&lt;Path&gt;" class="s4" d="m477.1 531.7v9.8"/>
						<path id="&lt;Path&gt;" class="s4" d="m482 536.6h-9.8"/>
					</g>
				</g>
				<g id="&lt;Group&gt;">
					<g id="&lt;Group&gt;">
						<path id="&lt;Path&gt;" class="s4" d="m39.1 622.5v9.9"/>
						<path id="&lt;Path&gt;" class="s4" d="m39.1 622.5v9.9"/>
						<path id="&lt;Path&gt;" class="s4" d="m44 627.5h-9.8"/>
					</g>
				</g>
				<g id="&lt;Group&gt;">
					<g id="&lt;Group&gt;">
						<path id="&lt;Path&gt;" class="s4" d="m35.5 521.9v9.8"/>
						<path id="&lt;Path&gt;" class="s4" d="m35.5 521.9v9.8"/>
						<path id="&lt;Path&gt;" class="s4" d="m40.4 526.8h-9.8"/>
					</g>
				</g>
				<g id="&lt;Group&gt;">
					<g id="&lt;Group&gt;">
						<path id="&lt;Path&gt;" class="s4" d="m828.2 749.7c0 3-2.4 5.4-5.4 5.4-3 0-5.4-2.4-5.4-5.4 0-2.9 2.4-5.3 5.4-5.3 3 0 5.4 2.4 5.4 5.3z"/>
					</g>
				</g>
				<g id="&lt;Group&gt;">
					<g id="&lt;Group&gt;">
						<path id="&lt;Path&gt;" class="s4" d="m740.7 968.1c0 2.9-2.4 5.4-5.4 5.4-2.9 0-5.3-2.5-5.3-5.4 0-3 2.4-5.4 5.3-5.4 3 0 5.4 2.4 5.4 5.4z"/>
					</g>
				</g>
			</g>
			<g id="&lt;Group&gt;">
				<g id="&lt;Group&gt;">
					<path id="&lt;Path&gt;" class="s1" d="m160.4 482.4h-30.9c-1.1 0-2-0.9-2-2 0-1.1 0.9-2 2-2h30.9c1.1 0 2 0.9 2 2 0 1.1-0.9 2-2 2z"/>
				</g>
				<g id="&lt;Group&gt;">
					<path id="&lt;Path&gt;" class="s1" d="m160.4 491.8h-30.9c-1.1 0-2-0.9-2-2 0-1.1 0.9-2 2-2h30.9c1.1 0 2 0.9 2 2 0 1.1-0.9 2-2 2z"/>
				</g>
				<g id="&lt;Group&gt;">
					<path id="&lt;Path&gt;" class="s1" d="m150.4 501.2h-20.9c-1.1 0-2-0.9-2-2 0-1.1 0.9-2 2-2h20.9c1.1 0 2 0.9 2 2 0 1.1-0.9 2-2 2z"/>
				</g>
			</g>
			<g id="&lt;Group&gt;">
				<path id="&lt;Compound Path&gt;" fill-rule="evenodd" class="s1" d="m180.3 241.2q-0.9 0-1.8-0.3l-9.1-4.2-9.1 4.2c-1.7 0.7-3.7 0.3-4.9-1.1-0.8-0.8-1.2-2-1-3.2l1.2-10-6.9-7.4c-1-1.1-1.3-2.7-0.9-4.1 0.5-1.4 1.7-2.5 3.2-2.8l9.8-2 5-8.7c0.7-1.3 2.1-2.2 3.6-2.2 1.5 0 2.9 0.9 3.6 2.2l4.9 8.7 9.9 2c1.5 0.3 2.7 1.4 3.1 2.8 0.5 1.4 0.2 3-0.9 4.1l-6.8 7.4 1.2 10c0.1 1.2-0.2 2.4-1 3.2-0.8 0.9-1.9 1.4-3.1 1.4zm-10.9-8.7q0.4 0 0.8 0.1l10.1 4.6q0 0 0.1 0l-1.3-11c0-0.6 0.2-1.2 0.6-1.6l7.4-8.1c0 0-0.1-0.3-0.1-0.3l-10.7-2.1c-0.6-0.1-1.1-0.5-1.4-1l-5.4-9.6c0 0-0.1 0-0.2 0q0 0-0.1 0l-5.3 9.6c-0.3 0.5-0.8 0.9-1.4 1l-10.7 2.1-1.6 1.7 1.5-1.4 7.4 8.1c0.4 0.4 0.6 1 0.5 1.6l-1.2 10.9 0.1 0.1 10.1-4.6q0.4-0.1 0.8-0.1z"/>
			</g>
			<g id="&lt;Group&gt;">
				<path id="&lt;Compound Path&gt;" fill-rule="evenodd" class="s1" d="m845 373.5q-0.7 0-1.4-0.3l-5.9-2.7-5.9 2.7c-1.4 0.7-3 0.3-4-0.8-0.7-0.8-1-1.7-0.9-2.7l0.8-6.5-4.4-4.7c-0.9-0.9-1.1-2.2-0.8-3.4 0.4-1.2 1.4-2.1 2.6-2.3l6.4-1.3 3.2-5.7c0.6-1 1.7-1.7 3-1.7 1.2 0 2.4 0.7 3 1.7l3.2 5.7 6.3 1.3c1.2 0.2 2.2 1.1 2.6 2.3 0.4 1.2 0.1 2.5-0.7 3.4l-4.4 4.7 0.7 6.5c0.2 1-0.2 1.9-0.8 2.7-0.7 0.7-1.6 1.1-2.6 1.1zm-18.1-17l4.3 4.7c0.4 0.4 0.6 1 0.6 1.6l-0.8 6.4 5.8-2.7c0.6-0.2 1.2-0.2 1.7 0l5.9 2.7-0.8-6.4c-0.1-0.6 0.1-1.2 0.5-1.6l4.4-4.7-6.3-1.3c-0.6-0.1-1.1-0.4-1.4-1l-3.1-5.6-3.2 5.6c-0.3 0.6-0.7 0.9-1.3 1z"/>
			</g>
			<g id="&lt;Group&gt;">
				<path id="&lt;Compound Path&gt;" fill-rule="evenodd" class="s1" d="m549.1 75.8q-0.8 0-1.5-0.3l-5.8-2.7-5.9 2.7c-1.4 0.6-3.1 0.2-4.1-0.9-0.6-0.7-0.9-1.7-0.8-2.7l0.8-6.4-4.4-4.8c-0.9-0.9-1.2-2.2-0.8-3.4 0.4-1.2 1.4-2 2.6-2.3l6.4-1.3 3.1-5.6c0.7-1.1 1.8-1.8 3.1-1.8 1.2 0 2.4 0.7 3 1.8l3.1 5.6 6.4 1.3c1.2 0.3 2.2 1.1 2.6 2.3 0.4 1.2 0.1 2.5-0.7 3.4l-4.4 4.8 0.7 6.4c0.1 1-0.2 2-0.8 2.7-0.7 0.8-1.6 1.2-2.6 1.2zm-18.1-17.1l4.3 4.8c0.4 0.4 0.6 1 0.5 1.6l-0.7 6.3 5.8-2.6c0.6-0.3 1.2-0.3 1.7 0l5.8 2.6-0.7-6.3c-0.1-0.6 0.1-1.2 0.5-1.6l4.4-4.8-6.3-1.2c-0.6-0.1-1.1-0.5-1.4-1l-3.1-5.6-3.2 5.6c-0.3 0.5-0.8 0.9-1.3 1z"/>
			</g>
			<g id="&lt;Group&gt;">
				<g id="&lt;Group&gt;">
					<path id="&lt;Path&gt;" class="s1" d="m931.2 952.1c-0.6 0-1.1-0.3-1.5-0.7l-34.5-38.2c-0.8-0.9-0.7-2.1 0.1-2.9 0.8-0.7 2.1-0.6 2.8 0.2l34.5 38.2c0.8 0.8 0.7 2.1-0.1 2.8-0.4 0.4-0.9 0.6-1.3 0.6z"/>
				</g>
				<g id="&lt;Group&gt;">
					<path id="&lt;Compound Path&gt;" fill-rule="evenodd" class="s1" d="m929 949.7c-0.6 0-1.1-0.3-1.5-0.7l-6.7-7.4c-0.4-0.5-0.6-1.2-0.5-1.9 0.2-0.6 0.7-1.1 1.3-1.4l5-1.8c0.8-0.3 1.7-0.1 2.2 0.5l6.7 7.5c0.4 0.5 0.6 1.1 0.5 1.8-0.2 0.6-0.7 1.1-1.3 1.4l-5 1.8q-0.4 0.2-0.7 0.2zm-3.3-8.6l3.9 4.2 1-0.4-3.9-4.2z"/>
				</g>
				<g id="&lt;Group&gt;">
					<path id="&lt;Compound Path&gt;" fill-rule="evenodd" class="s1" d="m926.6 954.5c-0.5 0-1.1-0.3-1.5-0.7l-6.7-7.4c-0.5-0.6-0.6-1.5-0.3-2.2l2.4-4.9c0.3-0.6 0.8-1 1.5-1.1 0.7-0.1 1.3 0.2 1.8 0.7l6.7 7.4c0.5 0.6 0.6 1.5 0.3 2.2l-2.4 4.9c-0.3 0.5-0.8 1-1.5 1.1q-0.1 0-0.3 0zm-4.3-9.8l3.8 4.2 0.5-0.9-3.8-4.2z"/>
				</g>
				<g id="&lt;Group&gt;">
					<path id="&lt;Path&gt;" class="s1" d="m901.1 914.2q0 0-0.1 0l-4.3-0.2c-1.1 0-1.9-1-1.9-2.1 0.1-1.1 1-1.9 2.1-1.9l4.3 0.2c1.1 0 2 1 1.9 2.1 0 1-0.9 1.9-2 1.9z"/>
				</g>
				<g id="&lt;Group&gt;">
					<path id="&lt;Path&gt;" class="s1" d="m896.6 918.3q-0.1 0-0.2 0c-1.1-0.1-1.9-1-1.8-2.1l0.2-4.3c0.1-1.1 1.1-1.9 2.2-1.9 1.1 0.1 1.9 1 1.8 2.1l-0.2 4.3c-0.1 1.1-1 1.9-2 1.9z"/>
				</g>
			</g>
			<g id="&lt;Group&gt;">
				<g id="&lt;Group&gt;">
					<path id="&lt;Path&gt;" class="s1" d="m929.3 988.4c-0.6 0-1.1-0.2-1.5-0.6l-34.5-38.3c-0.7-0.8-0.7-2.1 0.1-2.8 0.9-0.7 2.1-0.7 2.9 0.2l34.5 38.2c0.7 0.8 0.6 2.1-0.2 2.8-0.4 0.4-0.8 0.5-1.3 0.5z"/>
				</g>
				<g id="&lt;Group&gt;">
					<path id="&lt;Compound Path&gt;" fill-rule="evenodd" class="s1" d="m927.1 986c-0.5 0-1.1-0.2-1.5-0.6l-6.7-7.5c-0.4-0.5-0.6-1.1-0.4-1.8 0.1-0.6 0.6-1.2 1.2-1.4l5.1-1.8c0.7-0.3 1.6-0.1 2.1 0.5l6.7 7.4c0.5 0.5 0.6 1.2 0.5 1.8-0.2 0.7-0.6 1.2-1.3 1.4l-5 1.9q-0.3 0.1-0.7 0.1zm-3.2-8.6l3.8 4.3 1-0.4-3.8-4.2z"/>
				</g>
				<g id="&lt;Group&gt;">
					<path id="&lt;Compound Path&gt;" fill-rule="evenodd" class="s1" d="m924.7 990.8c-0.5 0-1.1-0.2-1.4-0.6l-6.7-7.4c-0.6-0.7-0.7-1.5-0.3-2.3l2.3-4.8c0.3-0.6 0.9-1 1.5-1.1 0.7-0.1 1.3 0.2 1.8 0.7l6.7 7.4c0.5 0.6 0.7 1.5 0.3 2.2l-2.4 4.8c-0.3 0.6-0.8 1-1.5 1.1q-0.1 0-0.3 0zm-4.3-9.7l3.8 4.2 0.5-0.9-3.8-4.3z"/>
				</g>
				<g id="&lt;Group&gt;">
					<path id="&lt;Path&gt;" class="s1" d="m899.2 950.6q0 0 0-0.1l-4.3-0.1c-1.1-0.1-2-1-1.9-2.1 0-1.1 1-2 2-1.9l4.3 0.2c1.1 0 2 0.9 1.9 2 0 1.1-0.9 2-2 2z"/>
				</g>
				<g id="&lt;Group&gt;">
					<path id="&lt;Path&gt;" class="s1" d="m894.7 954.7q-0.1 0-0.1 0c-1.1-0.1-2-1.1-1.9-2.2l0.3-4.2c0-1.1 1-2 2.1-1.9 1.1 0 1.9 1 1.9 2.1l-0.3 4.3c-0.1 1-1 1.9-2 1.9z"/>
				</g>
			</g>
			<g id="&lt;Group&gt;">
				<g id="&lt;Group&gt;">
					<path id="&lt;Path&gt;" class="s1" d="m398.5 103.9c-0.5 0-1-0.2-1.4-0.6-0.8-0.7-0.8-2 0-2.8l32.5-32.5c0.8-0.7 2-0.7 2.8 0l7.9 7.9 27.4-27.4c0.8-0.8 2-0.8 2.8 0 0.8 0.8 0.8 2.1 0 2.9l-28.8 28.8c-0.8 0.7-2 0.7-2.8 0l-7.9-7.9-31.1 31c-0.4 0.4-0.9 0.6-1.4 0.6z"/>
				</g>
				<g id="&lt;Group&gt;">
					<path id="&lt;Path&gt;" class="s1" d="m470.3 57c-1.1 0-2-0.8-2-2v-4.2h-4.3c-1.1 0-2-0.9-2-2 0-1.1 0.9-2 2-2h6.3c1.1 0 2 0.9 2 2v6.2c0 1.2-0.9 2-2 2z"/>
				</g>
			</g>
			<g id="&lt;Group&gt;">
				<g id="&lt;Group&gt;">
					<g id="&lt;Group&gt;">
						<path id="&lt;Compound Path&gt;" fill-rule="evenodd" class="s1" d="m647 78.2c-16.5 0-29.9-13.4-29.9-29.9 0-16.5 13.4-29.9 29.9-29.9 16.5 0 29.9 13.4 29.9 29.9 0 16.5-13.4 29.9-29.9 29.9zm0-55.8c-14.3 0-25.9 11.6-25.9 25.9 0 14.3 11.6 25.9 25.9 25.9 14.3 0 25.9-11.6 25.9-25.9 0-14.3-11.6-25.9-25.9-25.9z"/>
					</g>
					<g id="&lt;Group&gt;">
						<g id="&lt;Group&gt;">
							<path id="&lt;Path&gt;" class="s1" d="m647 31.3c-1.1 0-2-0.9-2-2v-3c0-1.1 0.9-2 2-2 1.1 0 2 0.9 2 2v3c0 1.1-0.9 2-2 2z"/>
						</g>
						<g id="&lt;Group&gt;">
							<path id="&lt;Path&gt;" class="s1" d="m647 72.3c-1.1 0-2-0.9-2-2v-3c0-1.1 0.9-2 2-2 1.1 0 2 0.9 2 2v3c0 1.1-0.9 2-2 2z"/>
						</g>
						<g id="&lt;Group&gt;">
							<path id="&lt;Path&gt;" class="s1" d="m669 50.3h-3c-1.1 0-2-0.9-2-2 0-1.1 0.9-2 2-2h3c1.1 0 2 0.9 2 2 0 1.1-0.9 2-2 2z"/>
						</g>
						<g id="&lt;Group&gt;">
							<path id="&lt;Path&gt;" class="s1" d="m628 50.3h-3c-1.1 0-2-0.9-2-2 0-1.1 0.9-2 2-2h3c1.1 0 2 0.9 2 2 0 1.1-0.9 2-2 2z"/>
						</g>
					</g>
					<g id="&lt;Group&gt;">
						<g id="&lt;Group&gt;">
							<path id="&lt;Path&gt;" class="s1" d="m637.5 33.9c-0.7 0-1.4-0.4-1.7-1l-1.5-2.6c-0.6-1-0.2-2.2 0.7-2.7 1-0.6 2.2-0.3 2.7 0.7l1.5 2.6c0.6 0.9 0.3 2.2-0.7 2.7q-0.5 0.3-1 0.3z"/>
						</g>
						<g id="&lt;Group&gt;">
							<path id="&lt;Path&gt;" class="s1" d="m658 69.4c-0.7 0-1.4-0.4-1.7-1l-1.5-2.6c-0.6-1-0.2-2.2 0.7-2.7 1-0.6 2.2-0.3 2.7 0.7l1.5 2.6c0.6 0.9 0.3 2.2-0.7 2.7q-0.5 0.3-1 0.3z"/>
						</g>
						<g id="&lt;Group&gt;">
							<path id="&lt;Path&gt;" class="s1" d="m663.5 40.8c-0.7 0-1.4-0.3-1.8-1-0.5-0.9-0.2-2.1 0.8-2.7l2.6-1.5c0.9-0.6 2.1-0.2 2.7 0.7 0.5 1 0.2 2.2-0.7 2.8l-2.6 1.5q-0.5 0.2-1 0.2z"/>
						</g>
						<g id="&lt;Group&gt;">
							<path id="&lt;Path&gt;" class="s1" d="m628 61.3c-0.7 0-1.4-0.3-1.8-1-0.5-0.9-0.2-2.2 0.8-2.7l2.6-1.5c0.9-0.6 2.1-0.2 2.7 0.7 0.5 1 0.2 2.2-0.7 2.8l-2.6 1.5q-0.5 0.2-1 0.2z"/>
						</g>
					</g>
					<g id="&lt;Group&gt;">
						<g id="&lt;Group&gt;">
							<path id="&lt;Path&gt;" class="s1" d="m630.6 40.8q-0.6 0-1-0.2l-2.6-1.5c-1-0.6-1.3-1.8-0.8-2.8 0.6-0.9 1.8-1.3 2.8-0.7l2.6 1.5c0.9 0.5 1.2 1.8 0.7 2.7-0.4 0.7-1.1 1-1.7 1z"/>
						</g>
						<g id="&lt;Group&gt;">
							<path id="&lt;Path&gt;" class="s1" d="m666.1 61.3q-0.6 0-1-0.2l-2.6-1.5c-1-0.6-1.3-1.8-0.8-2.8 0.6-0.9 1.8-1.3 2.8-0.7l2.6 1.5c0.9 0.5 1.2 1.8 0.7 2.7-0.4 0.7-1.1 1-1.7 1z"/>
						</g>
						<g id="&lt;Group&gt;">
							<path id="&lt;Path&gt;" class="s1" d="m656.5 33.9q-0.5 0-1-0.3c-0.9-0.5-1.3-1.8-0.7-2.7l1.5-2.6c0.5-1 1.7-1.3 2.7-0.7 1 0.5 1.3 1.7 0.7 2.7l-1.5 2.6c-0.3 0.6-1 1-1.7 1z"/>
						</g>
						<g id="&lt;Group&gt;">
							<path id="&lt;Path&gt;" class="s1" d="m636 69.4q-0.5 0-1-0.3c-0.9-0.5-1.3-1.8-0.7-2.7l1.5-2.6c0.5-1 1.8-1.3 2.7-0.7 1 0.5 1.3 1.7 0.7 2.7l-1.5 2.6c-0.3 0.6-1 1-1.7 1z"/>
						</g>
					</g>
				</g>
				<g id="&lt;Group&gt;">
					<path id="&lt;Path&gt;" class="s1" d="m658 50.3h-11c-1.1 0-2-0.9-2-2v-7.7c0-1.1 0.9-2 2-2 1.1 0 2 0.9 2 2v5.7h9c1.1 0 2 0.9 2 2 0 1.1-0.9 2-2 2z"/>
				</g>
			</g>
			<g id="&lt;Group&gt;">
				<path id="&lt;Compound Path&gt;" fill-rule="evenodd" class="s1" d="m973.6 437.4h-4.6c-1 0-1.8-0.7-2-1.7l-0.5-2.9q-0.1-0.1-0.1-0.1l-2 2.4c-0.6 0.7-1.7 0.9-2.5 0.4l-4-2.3c-0.9-0.5-1.2-1.5-0.9-2.4l1.1-2.9q-0.1 0-0.1-0.1l-2.9 1.1c-0.9 0.3-1.9 0-2.4-0.9l-2.3-4c-0.5-0.9-0.3-1.9 0.4-2.6l2.4-1.9q-0.1 0-0.1-0.1l-3-0.5c-0.9-0.2-1.6-1-1.6-2v-4.6c0-1 0.7-1.9 1.6-2l3-0.5q0-0.1 0.1-0.1l-2.4-2c-0.7-0.6-0.9-1.7-0.4-2.5l2.3-4c0.5-0.9 1.5-1.3 2.4-0.9l2.9 1q0 0 0.1 0l-1.1-2.9c-0.3-0.9 0-1.9 0.9-2.4l4-2.3c0.8-0.5 1.9-0.3 2.5 0.4l2 2.4q0-0.1 0.1-0.1l0.5-3c0.2-0.9 1-1.6 2-1.6h4.6c1 0 1.8 0.7 2 1.6l0.5 3q0.1 0 0.1 0.1l1.9-2.4c0.7-0.7 1.7-0.9 2.6-0.4l4 2.3c0.9 0.5 1.2 1.5 0.9 2.4l-1.1 2.9q0.1 0 0.1 0l2.9-1c0.9-0.4 1.9 0 2.4 0.9l2.3 4c0.5 0.8 0.3 1.9-0.4 2.5l-2.4 2q0 0 0.1 0.1l2.9 0.5c1 0.1 1.7 1 1.7 2v4.6c0 1-0.7 1.8-1.7 2l-2.9 0.5q-0.1 0.1-0.1 0.1l2.4 1.9c0.7 0.7 0.9 1.7 0.4 2.6l-2.3 4c-0.5 0.9-1.5 1.2-2.4 0.9l-2.9-1.1q0 0.1-0.1 0.1l1.1 2.9c0.3 0.9 0 1.9-0.9 2.4l-4 2.3c-0.9 0.5-1.9 0.3-2.6-0.4l-1.9-2.4q0 0-0.1 0.1l-0.5 2.9c-0.2 1-1 1.7-2 1.7zm-2.9-4h1.2l0.5-2.6c0.1-0.9 0.8-1.5 1.6-1.7q1.1-0.2 2.2-0.6c0.8-0.3 1.7 0 2.3 0.6l1.7 2.1 1.1-0.6-1-2.5c-0.3-0.8 0-1.7 0.6-2.3q0.9-0.7 1.6-1.6c0.6-0.7 1.5-0.9 2.3-0.6l2.5 0.9 0.6-1.1-2.1-1.7c-0.6-0.5-0.8-1.4-0.6-2.2q0.4-1.1 0.6-2.2c0.2-0.8 0.8-1.5 1.7-1.6l2.6-0.5v-1.3l-2.6-0.4c-0.9-0.1-1.5-0.8-1.7-1.6q-0.2-1.2-0.6-2.3c-0.2-0.8 0-1.6 0.6-2.2l2.1-1.7-0.6-1.1-2.5 1c-0.8 0.3-1.7 0-2.3-0.6q-0.7-0.9-1.6-1.7c-0.6-0.5-0.9-1.4-0.6-2.2l1-2.5-1.1-0.6-1.7 2c-0.6 0.7-1.5 0.9-2.3 0.6q-1.1-0.3-2.2-0.6c-0.8-0.1-1.5-0.8-1.6-1.6l-0.5-2.6h-1.2l-0.5 2.6c-0.1 0.8-0.8 1.5-1.6 1.6q-1.2 0.3-2.2 0.6c-0.8 0.3-1.7 0.1-2.3-0.6l-1.7-2-1.1 0.6 1 2.5c0.3 0.8 0 1.7-0.6 2.2q-0.9 0.8-1.7 1.7c-0.5 0.6-1.4 0.9-2.2 0.6l-2.5-1-0.6 1.1 2 1.7c0.7 0.6 0.9 1.4 0.7 2.2q-0.4 1.1-0.6 2.3c-0.2 0.8-0.9 1.5-1.7 1.6l-2.6 0.4v1.3l2.6 0.5c0.8 0.1 1.5 0.8 1.7 1.6q0.2 1.1 0.6 2.2c0.2 0.8 0 1.7-0.7 2.2l-2 1.7 0.6 1.1 2.5-0.9c0.8-0.3 1.7-0.1 2.2 0.6q0.8 0.9 1.7 1.6c0.6 0.6 0.9 1.5 0.6 2.3l-1 2.5 1.1 0.6 1.7-2.1c0.6-0.6 1.5-0.9 2.3-0.6q1 0.4 2.2 0.6c0.8 0.2 1.5 0.8 1.6 1.7zm0.7-11c-4.4 0-7.9-3.5-7.9-7.9 0-4.3 3.5-7.8 7.9-7.8 4.3 0 7.8 3.5 7.8 7.8 0 4.4-3.5 7.9-7.8 7.9zm0-11.7c-2.2 0-3.9 1.7-3.9 3.8 0 2.2 1.7 3.9 3.9 3.9 2.1 0 3.8-1.7 3.8-3.9 0-2.1-1.7-3.8-3.8-3.8z"/>
			</g>
			<g id="&lt;Group&gt;">
				<path id="&lt;Path&gt;" class="s5" d="m892.9 643h-11.5l-5.8 10 5.8 10h11.5l5.8-10z"/>
				<path id="&lt;Path&gt;" class="s6" d="m892.9 620.1h-11.5l-5.8 9.9 5.8 10h11.5l5.8-10z"/>
			</g>
			<g id="&lt;Group&gt;">
				<path id="&lt;Compound Path&gt;" fill-rule="evenodd" class="s1" d="m988.2 925.3h-7.6c-1 0-1.8-0.7-2-1.7l-0.9-5.7q-0.9-0.2-1.8-0.4l-3.6 4.4c-0.7 0.8-1.7 1-2.6 0.5l-6.5-3.8c-0.9-0.5-1.3-1.5-0.9-2.5l2-5.3q-0.7-0.7-1.3-1.3l-5.4 2c-0.9 0.3-1.9 0-2.4-0.9l-3.8-6.6c-0.5-0.8-0.3-1.9 0.5-2.5l4.4-3.7q-0.3-0.8-0.5-1.7l-5.7-1c-0.9-0.1-1.6-1-1.6-1.9v-7.6c0-1 0.7-1.8 1.6-2l5.7-1q0.2-0.8 0.5-1.7l-4.4-3.7c-0.8-0.6-1-1.7-0.5-2.5l3.8-6.6c0.5-0.8 1.5-1.2 2.4-0.8l5.4 2q0.6-0.7 1.3-1.3l-2-5.4c-0.4-0.9 0-1.9 0.9-2.4l6.5-3.8c0.9-0.5 1.9-0.3 2.6 0.4l3.6 4.5q0.9-0.3 1.8-0.5l0.9-5.7c0.2-0.9 1-1.6 2-1.6h7.6c1 0 1.8 0.7 2 1.6l0.9 5.7q0.9 0.2 1.8 0.5l3.6-4.5c0.7-0.7 1.7-0.9 2.6-0.4l6.5 3.8c0.9 0.5 1.3 1.5 0.9 2.4l-2 5.4q0.7 0.6 1.3 1.3l5.4-2c0.9-0.4 1.9 0 2.4 0.8l3.8 6.6c0.5 0.8 0.3 1.9-0.5 2.5l-4.4 3.7q0.3 0.9 0.5 1.7l5.6 1c1 0.2 1.7 1 1.7 2v7.6c0 0.9-0.7 1.8-1.7 1.9l-5.6 1q-0.2 0.9-0.5 1.7l4.4 3.7c0.8 0.6 1 1.7 0.5 2.5l-3.8 6.6c-0.5 0.9-1.5 1.2-2.4 0.9l-5.4-2q-0.6 0.6-1.3 1.3l2 5.3c0.4 1 0 2-0.9 2.5l-6.5 3.8c-0.9 0.5-1.9 0.3-2.6-0.5l-3.6-4.4q-0.9 0.2-1.8 0.4l-0.9 5.7c-0.2 1-1 1.7-2 1.7zm-5.9-4h4.2l0.9-5.4c0.1-0.8 0.8-1.5 1.6-1.6q2-0.4 3.9-1c0.8-0.3 1.7-0.1 2.2 0.6l3.4 4.2 3.7-2.1-1.9-5.1c-0.3-0.8-0.1-1.7 0.5-2.2q1.6-1.4 2.9-2.9c0.5-0.6 1.4-0.8 2.2-0.5l5.1 1.9 2.1-3.7-4.2-3.4c-0.6-0.6-0.9-1.5-0.6-2.3q0.7-1.8 1-3.8c0.2-0.8 0.8-1.5 1.7-1.6l5.3-0.9v-4.2l-5.3-0.9c-0.9-0.2-1.5-0.8-1.7-1.6q-0.3-2-1-3.9c-0.3-0.8 0-1.7 0.6-2.2l4.2-3.5-2.1-3.6-5.1 1.9c-0.8 0.3-1.7 0.1-2.2-0.6q-1.3-1.5-2.9-2.8c-0.6-0.6-0.8-1.4-0.5-2.2l1.9-5.1-3.7-2.1-3.4 4.2c-0.5 0.6-1.4 0.9-2.2 0.6q-1.9-0.7-3.9-1.1c-0.8-0.1-1.5-0.8-1.6-1.6l-0.9-5.3h-4.2l-0.9 5.3c-0.1 0.8-0.8 1.5-1.6 1.6q-2 0.4-3.9 1.1c-0.8 0.3-1.7 0-2.2-0.6l-3.4-4.2-3.7 2.1 1.9 5.1c0.3 0.8 0.1 1.6-0.6 2.2-1 0.9-1.9 1.8-2.8 2.8-0.5 0.7-1.4 0.9-2.2 0.6l-5.1-1.9-2.1 3.6 4.2 3.5c0.6 0.5 0.9 1.4 0.6 2.2q-0.7 1.9-1 3.9c-0.2 0.8-0.8 1.4-1.7 1.6l-5.3 0.9v4.2l5.3 0.9c0.9 0.1 1.5 0.8 1.7 1.6q0.3 2 1 3.8c0.3 0.8 0 1.7-0.6 2.3l-4.2 3.4 2.1 3.7 5.1-1.9c0.8-0.3 1.7-0.1 2.2 0.5q1.3 1.6 2.8 2.9c0.7 0.5 0.9 1.4 0.6 2.2l-1.9 5.1 3.7 2.1 3.4-4.2c0.5-0.7 1.4-0.9 2.2-0.6q1.9 0.6 3.9 1c0.8 0.1 1.5 0.8 1.6 1.6zm4.3-13.3c-0.9 0-1.7-0.4-2.2-1-0.5 0.6-1.3 1-2.2 1-0.1 0-0.3 0-0.4 0-3.2-0.4-6.2-1.7-8.7-3.6-0.6-0.5-1.1-1.3-1.1-2.1q0-0.2 0-0.5c-1 0.1-2-0.3-2.6-1.1-1.9-2.5-3.1-5.5-3.6-8.7-0.1-0.8 0.2-1.6 0.7-2.3q0.2-0.1 0.4-0.3-0.2-0.1-0.4-0.3c-0.5-0.6-0.8-1.5-0.7-2.3 0.5-3.1 1.7-6.1 3.6-8.7 0.6-0.7 1.6-1.2 2.6-1.1q0-0.2 0-0.5c0-0.8 0.5-1.6 1.1-2.1 2.6-1.9 5.6-3.1 8.7-3.5 0.1-0.1 0.3-0.1 0.4-0.1 0.9 0 1.7 0.4 2.2 1.1 0.5-0.7 1.3-1.1 2.2-1.1 0.1 0 0.3 0 0.4 0.1 3.1 0.4 6.1 1.6 8.7 3.5 0.6 0.5 1.1 1.3 1.1 2.1q0 0.3 0 0.5c1-0.1 2 0.3 2.6 1.1 1.9 2.6 3.1 5.6 3.6 8.7 0.1 0.8-0.2 1.7-0.7 2.3q-0.2 0.2-0.4 0.3 0.2 0.2 0.4 0.3c0.5 0.7 0.8 1.5 0.7 2.3-0.5 3.2-1.7 6.2-3.6 8.7-0.6 0.8-1.6 1.2-2.6 1.1q0 0.3 0 0.5c0 0.8-0.5 1.6-1.1 2.1-2.6 1.9-5.6 3.1-8.7 3.6-0.1 0-0.3 0-0.4 0zm1.1-10.5v6.3c1.6-0.4 3.1-1 4.5-1.9zm-11.2 4.5c1.4 0.8 2.9 1.5 4.5 1.8v-6.3zm15.9-9.1l4.4 4.4c0.9-1.4 1.5-2.9 1.8-4.4zm-22.4 0c0.3 1.5 1 3 1.8 4.4l4.5-4.4zm11.3-0.4q0.5 0.1 1 0.4 0.5 0.3 1.1 0.4 0.5 0.1 0.9 0.5 0.4-0.4 0.9-0.5 0.7-0.1 1.2-0.4 0.4-0.3 0.9-0.4 0.1-0.5 0.4-0.9 0.3-0.6 0.4-1.2 0.2-0.5 0.5-0.9-0.4-0.4-0.5-0.9-0.1-0.6-0.4-1.1-0.3-0.5-0.4-1-0.5 0-0.9-0.3-0.5-0.3-1.2-0.5-0.5-0.1-0.9-0.5-0.4 0.4-0.9 0.5-0.6 0.1-1.1 0.5-0.5 0.3-1 0.3 0 0.5-0.3 1-0.3 0.5-0.5 1.1-0.1 0.5-0.5 0.9 0.4 0.4 0.5 0.9 0.2 0.6 0.5 1.2 0.3 0.4 0.3 0.9zm11.1-6.3h6.3c-0.4-1.6-1-3.1-1.8-4.5zm-22.5 0h6.3l-4.5-4.4c-0.8 1.4-1.4 2.9-1.8 4.4zm6.6-9.2l4.4 4.5v-6.3c-1.6 0.4-3.1 1-4.4 1.8zm11.1-1.8v6.3l4.5-4.5c-1.4-0.8-2.9-1.4-4.5-1.8z"/>
			</g>
			<g id="&lt;Group&gt;">
				<path id="&lt;Compound Path&gt;" fill-rule="evenodd" class="s1" d="m6.2 320.6h-12.4c-0.9 0-1.8-0.7-1.9-1.6l-1.7-10.1q-2.2-0.4-4.4-1.1l-6.4 7.8c-0.7 0.8-1.7 1-2.6 0.5l-10.6-6.2c-0.9-0.5-1.3-1.5-0.9-2.4l3.5-9.5q-1.6-1.6-3.1-3.2l-9.6 3.5c-0.9 0.4-1.9 0-2.4-0.8l-6.2-10.7c-0.5-0.9-0.3-1.9 0.5-2.6l7.8-6.4q-0.7-2.2-1.1-4.4l-10.1-1.7c-0.9-0.1-1.6-1-1.6-1.9v-12.3c0-1 0.7-1.9 1.6-2l10.1-1.7q0.4-2.2 1.1-4.4l-7.8-6.4c-0.8-0.7-1-1.7-0.5-2.6l6.2-10.6c0.5-0.9 1.5-1.3 2.4-0.9l9.6 3.5q1.5-1.6 3.1-3.1l-3.5-9.6c-0.4-0.9 0-1.9 0.9-2.4l10.6-6.2c0.9-0.4 1.9-0.2 2.6 0.5l6.4 7.8q2.2-0.6 4.4-1.1l1.7-10c0.1-1 1-1.7 1.9-1.7h12.4c0.9 0 1.8 0.7 1.9 1.7l1.7 10q2.2 0.5 4.4 1.1l6.4-7.8c0.7-0.7 1.7-0.9 2.6-0.5l10.6 6.2c0.9 0.5 1.3 1.5 0.9 2.4l-3.5 9.6q1.6 1.5 3.1 3.1l9.6-3.5c0.9-0.4 1.9 0 2.4 0.9l6.2 10.6c0.5 0.9 0.3 1.9-0.5 2.6l-7.8 6.4q0.7 2.2 1.1 4.4l10.1 1.7c0.9 0.1 1.6 1 1.6 2v12.3c0 0.9-0.7 1.8-1.6 1.9l-10.1 1.7q-0.4 2.2-1.1 4.4l7.8 6.4c0.8 0.7 1 1.7 0.5 2.6l-6.2 10.7c-0.5 0.8-1.5 1.2-2.4 0.8l-9.6-3.5q-1.5 1.6-3.1 3.2l3.5 9.5c0.4 0.9 0 1.9-0.9 2.4l-10.6 6.2c-0.9 0.5-1.9 0.3-2.6-0.5l-6.4-7.8q-2.2 0.7-4.4 1.1l-1.7 10.1c-0.1 0.9-1 1.6-1.9 1.6zm-10.7-4h9l1.6-9.7c0.1-0.8 0.8-1.5 1.6-1.6q3.3-0.6 6.5-1.7c0.8-0.3 1.6-0.1 2.2 0.6l6.2 7.6 7.8-4.5-3.5-9.2c-0.3-0.8 0-1.7 0.6-2.3q2.6-2.1 4.7-4.7c0.6-0.6 1.5-0.9 2.3-0.6l9.2 3.5 4.5-7.7-7.6-6.3c-0.7-0.5-0.9-1.4-0.7-2.2q1.2-3.2 1.8-6.5c0.1-0.8 0.8-1.5 1.6-1.6l9.7-1.6v-9l-9.7-1.6c-0.8-0.1-1.5-0.8-1.6-1.6q-0.6-3.3-1.8-6.5c-0.2-0.8 0-1.6 0.7-2.2l7.6-6.2-4.5-7.8-9.2 3.5c-0.8 0.3-1.7 0-2.3-0.6q-2.1-2.5-4.7-4.7c-0.6-0.6-0.9-1.5-0.6-2.2l3.5-9.3-7.8-4.4-6.2 7.5c-0.6 0.7-1.4 0.9-2.2 0.7-2.1-0.8-4.3-1.4-6.5-1.8-0.8-0.1-1.5-0.8-1.6-1.6l-1.6-9.7h-9l-1.6 9.7c-0.1 0.8-0.8 1.5-1.6 1.6q-3.3 0.7-6.5 1.8c-0.8 0.2-1.6 0-2.2-0.7l-6.2-7.5-7.8 4.4 3.5 9.3c0.3 0.7 0 1.6-0.6 2.2q-2.6 2.2-4.7 4.7c-0.6 0.6-1.5 0.9-2.3 0.6l-9.2-3.5-4.5 7.8 7.6 6.2c0.7 0.6 0.9 1.5 0.7 2.2q-1.2 3.2-1.8 6.5c-0.1 0.8-0.8 1.5-1.6 1.6l-9.7 1.6v9l9.7 1.6c0.8 0.1 1.5 0.8 1.6 1.6 0.4 2.2 1 4.4 1.8 6.5 0.2 0.8 0 1.7-0.7 2.2l-7.6 6.3 4.5 7.7 9.2-3.5c0.8-0.3 1.7 0 2.3 0.6q2.1 2.6 4.7 4.7c0.6 0.6 0.9 1.5 0.6 2.3l-3.5 9.2 7.8 4.5 6.2-7.6c0.6-0.7 1.4-0.9 2.2-0.6q3.2 1.1 6.5 1.7c0.8 0.1 1.5 0.8 1.6 1.6zm4.5-35.6c-9.7 0-17.5-7.8-17.5-17.4 0-9.6 7.8-17.5 17.5-17.5 9.6 0 17.4 7.9 17.4 17.5 0 9.6-7.8 17.4-17.4 17.4zm0-30.9c-7.4 0-13.5 6.1-13.5 13.5 0 7.4 6.1 13.4 13.5 13.4 7.4 0 13.4-6 13.4-13.4 0-7.4-6-13.5-13.4-13.5z"/>
			</g>
			<g id="&lt;Group&gt;">
				<path id="&lt;Compound Path&gt;" fill-rule="evenodd" class="s1" d="m1026 403.1h-12.3c-0.9 0-1.8-0.7-1.9-1.7l-1.7-10q-2.2-0.5-4.4-1.2l-6.4 7.9c-0.7 0.7-1.7 0.9-2.6 0.4l-10.7-6.1c-0.8-0.5-1.2-1.5-0.8-2.5l3.5-9.5q-1.6-1.5-3.1-3.2l-9.6 3.6c-0.9 0.3-1.9 0-2.4-0.9l-6.2-10.6c-0.5-0.9-0.3-2 0.5-2.6l7.8-6.5q-0.7-2.1-1.1-4.3l-10.1-1.7c-0.9-0.2-1.6-1-1.6-2v-12.3c0-1 0.7-1.8 1.6-2l10.1-1.6q0.4-2.3 1.1-4.4l-7.8-6.5c-0.8-0.6-1-1.7-0.5-2.5l6.2-10.7c0.5-0.8 1.5-1.2 2.4-0.8l9.6 3.5q1.5-1.7 3.1-3.2l-3.5-9.5c-0.4-0.9 0-2 0.8-2.4l10.7-6.2c0.9-0.5 1.9-0.3 2.6 0.5l6.4 7.8q2.2-0.7 4.4-1.2l1.7-10c0.1-1 1-1.7 1.9-1.7h12.3c1 0 1.9 0.7 2 1.7l1.7 10q2.2 0.5 4.4 1.2l6.4-7.8c0.7-0.8 1.7-1 2.6-0.5l10.6 6.2c0.9 0.4 1.3 1.5 0.9 2.4l-3.5 9.5q1.6 1.5 3.1 3.2l9.6-3.5c0.9-0.4 1.9 0 2.4 0.8l6.2 10.7c0.4 0.8 0.3 1.9-0.5 2.5l-7.8 6.5q0.6 2.1 1.1 4.4l10 1.6c1 0.2 1.7 1 1.7 2v12.3c0 1-0.7 1.8-1.7 2l-10 1.7q-0.5 2.2-1.1 4.3l7.8 6.5c0.8 0.6 0.9 1.7 0.5 2.6l-6.2 10.6c-0.5 0.9-1.5 1.2-2.4 0.9l-9.6-3.6q-1.5 1.7-3.1 3.2l3.5 9.5c0.4 1 0 2-0.9 2.5l-10.6 6.1c-0.9 0.5-1.9 0.3-2.6-0.4l-6.4-7.9q-2.2 0.7-4.4 1.2l-1.7 10c-0.1 1-1 1.7-2 1.7zm-10.6-4h9l1.6-9.7c0.1-0.9 0.8-1.5 1.6-1.7q3.3-0.6 6.5-1.7c0.8-0.3 1.6 0 2.2 0.6l6.2 7.6 7.8-4.4-3.5-9.3c-0.3-0.8 0-1.7 0.6-2.2q2.5-2.2 4.7-4.7c0.6-0.7 1.5-0.9 2.2-0.6l9.3 3.5 4.4-7.8-7.5-6.3c-0.7-0.5-0.9-1.4-0.7-2.2q1.2-3.1 1.8-6.4c0.1-0.8 0.8-1.5 1.6-1.6l9.7-1.7v-8.9l-9.7-1.6c-0.8-0.2-1.5-0.8-1.6-1.6q-0.6-3.4-1.8-6.5c-0.2-0.8 0-1.7 0.7-2.2l7.5-6.3-4.4-7.7-9.3 3.4c-0.7 0.3-1.6 0.1-2.2-0.5q-2.2-2.6-4.7-4.8c-0.6-0.5-0.9-1.4-0.6-2.2l3.5-9.2-7.8-4.5-6.2 7.6c-0.6 0.7-1.5 0.9-2.2 0.6-2.1-0.7-4.3-1.3-6.5-1.7-0.8-0.2-1.5-0.8-1.6-1.6l-1.6-9.8h-9l-1.6 9.8c-0.1 0.8-0.8 1.4-1.6 1.6q-3.3 0.6-6.5 1.7c-0.8 0.3-1.7 0.1-2.2-0.6l-6.3-7.6-7.7 4.5 3.5 9.2c0.3 0.8 0 1.7-0.6 2.2-1.7 1.5-3.3 3.1-4.7 4.8-0.6 0.6-1.5 0.8-2.3 0.5l-9.2-3.4-4.5 7.7 7.6 6.3c0.7 0.5 0.9 1.4 0.6 2.2q-1.1 3.1-1.7 6.5c-0.1 0.8-0.8 1.4-1.6 1.6l-9.7 1.6v8.9l9.7 1.7c0.8 0.1 1.5 0.8 1.6 1.6 0.4 2.2 1 4.4 1.7 6.4 0.3 0.8 0.1 1.7-0.6 2.3l-7.6 6.2 4.5 7.8 9.2-3.5c0.8-0.3 1.7-0.1 2.3 0.6q2.1 2.5 4.7 4.7c0.6 0.5 0.9 1.4 0.6 2.2l-3.5 9.3 7.7 4.4 6.3-7.6c0.5-0.6 1.4-0.9 2.2-0.6q3.2 1.1 6.5 1.7c0.8 0.2 1.5 0.8 1.6 1.7zm4.5-35.6c-9.7 0-17.5-7.8-17.5-17.4 0-9.7 7.8-17.5 17.5-17.5 9.6 0 17.4 7.8 17.4 17.5 0 9.6-7.8 17.4-17.4 17.4zm0-30.9c-7.5 0-13.5 6-13.5 13.5 0 7.4 6 13.4 13.5 13.4 7.4 0 13.4-6 13.4-13.4 0-7.5-6-13.5-13.4-13.5z"/>
			</g>
			<g id="&lt;Group&gt;">
				<path id="&lt;Compound Path&gt;" fill-rule="evenodd" class="s1" d="m966.2 810.2h-4.7c-1 0-1.8-0.7-2-1.6l-0.5-3q0 0-0.1-0.1l-1.9 2.4c-0.6 0.7-1.7 0.9-2.6 0.4l-4-2.3c-0.8-0.5-1.2-1.5-0.9-2.4l1.1-2.9q0 0-0.1-0.1l-2.8 1.1c-0.9 0.3-2 0-2.5-0.9l-2.3-4c-0.5-0.9-0.3-1.9 0.5-2.6l2.3-1.9q0 0 0-0.1l-3-0.5c-1-0.2-1.7-1-1.7-2v-4.6c0-1 0.7-1.8 1.7-2l3-0.5q0-0.1 0-0.1l-2.3-1.9c-0.8-0.7-1-1.7-0.5-2.6l2.3-4c0.5-0.9 1.5-1.2 2.5-0.9l2.8 1.1q0.1-0.1 0.1-0.1l-1.1-2.9c-0.3-0.9 0.1-1.9 0.9-2.4l4-2.3c0.9-0.5 2-0.3 2.6 0.4l1.9 2.4q0.1-0.1 0.1-0.1l0.5-3c0.2-0.9 1-1.6 2-1.6h4.7c0.9 0 1.8 0.7 1.9 1.6l0.5 3q0.1 0 0.2 0.1l1.9-2.4c0.6-0.7 1.7-0.9 2.5-0.4l4.1 2.3c0.8 0.5 1.2 1.5 0.8 2.4l-1 2.9q0 0 0.1 0.1l2.8-1.1c0.9-0.3 1.9 0 2.4 0.9l2.4 4c0.5 0.9 0.3 1.9-0.5 2.6l-2.3 1.9q0 0 0 0.1l3 0.5c1 0.2 1.7 1 1.7 2v4.6c0 1-0.7 1.8-1.7 2l-3 0.5q0 0.1 0 0.1l2.3 1.9c0.8 0.7 1 1.7 0.5 2.6l-2.4 4c-0.5 0.9-1.5 1.2-2.4 0.9l-2.8-1.1q-0.1 0.1-0.1 0.1l1 2.9c0.4 0.9 0 1.9-0.8 2.4l-4.1 2.3c-0.8 0.5-1.9 0.3-2.5-0.4l-1.9-2.4q-0.1 0.1-0.2 0.1l-0.5 3c-0.1 0.9-1 1.6-1.9 1.6zm-3-4h1.3l0.4-2.6c0.2-0.8 0.8-1.5 1.6-1.7q1.2-0.2 2.3-0.6c0.8-0.2 1.7 0 2.2 0.7l1.7 2 1.1-0.6-0.9-2.5c-0.3-0.8-0.1-1.7 0.5-2.3q0.9-0.7 1.7-1.6c0.5-0.6 1.4-0.9 2.2-0.6l2.5 1 0.7-1.1-2.1-1.7c-0.7-0.6-0.9-1.5-0.6-2.3q0.4-1 0.6-2.2c0.1-0.8 0.8-1.5 1.6-1.6l2.7-0.5v-1.2l-2.7-0.5c-0.8-0.1-1.5-0.8-1.6-1.6q-0.2-1.2-0.6-2.2c-0.3-0.8-0.1-1.7 0.6-2.3l2.1-1.7-0.7-1.1-2.5 1c-0.8 0.3-1.7 0-2.2-0.6q-0.8-0.9-1.7-1.6c-0.6-0.6-0.8-1.5-0.5-2.3l0.9-2.5-1.1-0.6-1.7 2c-0.5 0.7-1.4 0.9-2.2 0.7q-1.1-0.4-2.3-0.6c-0.8-0.2-1.4-0.8-1.6-1.7l-0.4-2.6h-1.3l-0.4 2.6c-0.2 0.9-0.8 1.5-1.7 1.7q-1.1 0.2-2.2 0.6c-0.8 0.2-1.7 0-2.2-0.7l-1.7-2-1.1 0.6 0.9 2.5c0.3 0.8 0.1 1.7-0.6 2.3q-0.9 0.7-1.6 1.6c-0.6 0.6-1.4 0.9-2.2 0.6l-2.5-1-0.7 1.1 2.1 1.7c0.6 0.6 0.9 1.5 0.6 2.3q-0.4 1-0.6 2.2c-0.2 0.8-0.8 1.5-1.6 1.6l-2.7 0.5v1.2l2.7 0.5c0.8 0.1 1.4 0.8 1.6 1.6q0.2 1.2 0.6 2.2c0.3 0.8 0 1.7-0.6 2.3l-2.1 1.7 0.7 1.1 2.5-1c0.8-0.3 1.6 0 2.2 0.6q0.8 0.9 1.6 1.6c0.7 0.6 0.9 1.5 0.6 2.3l-0.9 2.5 1.1 0.6 1.7-2c0.5-0.7 1.4-0.9 2.2-0.7q1.1 0.4 2.2 0.6c0.9 0.2 1.5 0.9 1.7 1.7zm0.6-11c-4.3 0-7.9-3.5-7.9-7.8 0-4.4 3.6-7.9 7.9-7.9 4.3 0 7.8 3.5 7.8 7.9 0 4.3-3.5 7.8-7.8 7.8zm0-11.7c-2.1 0-3.9 1.7-3.9 3.9 0 2.1 1.8 3.8 3.9 3.8 2.1 0 3.8-1.7 3.8-3.8 0-2.2-1.7-3.9-3.8-3.9z"/>
			</g>
			<g id="&lt;Group&gt;">
				<path id="&lt;Compound Path&gt;" fill-rule="evenodd" class="s1" d="m704.5 940.6q-0.6 0-1.1-0.4l-9.9-6.6-9.9 6.6c-0.6 0.4-1.4 0.5-2 0.1-0.7-0.3-1.1-1-1.1-1.7v-7.8c0-0.7 0.4-1.3 0.9-1.7l10.9-7.3q0.1-0.1 0.3-0.2 0.5-0.2 1.1-0.2 0.3 0 0.7 0.2 0.2 0.1 0.4 0.2l10.8 7.3c0.6 0.4 0.9 1 0.9 1.7v7.8c0 0.7-0.4 1.4-1.1 1.7q-0.4 0.3-0.9 0.3zm-11-11.4q0.6 0 1.1 0.3l7.9 5.3v-2.9l-9-6.1-9 6.1v2.9l7.9-5.3q0.5-0.3 1.1-0.3z"/>
			</g>
			<g id="&lt;Group&gt;">
				<path id="&lt;Compound Path&gt;" fill-rule="evenodd" class="s1" d="m704.5 956.8q-0.6 0-1.1-0.4l-9.9-6.6-9.9 6.6c-0.6 0.4-1.4 0.5-2 0.1-0.7-0.3-1.1-1-1.1-1.7v-7.8c0-0.7 0.4-1.3 0.9-1.7l10.9-7.3q0.1-0.1 0.2-0.1 0.6-0.4 1.2-0.3 0.4 0.1 0.8 0.3 0.1 0 0.3 0.1l10.8 7.3c0.6 0.4 0.9 1 0.9 1.7v7.8c0 0.7-0.4 1.4-1.1 1.7q-0.4 0.3-0.9 0.3zm-11-11.4q0.6 0 1.1 0.3l7.9 5.3v-2.9l-9-6.1-9 6.1v2.9l7.9-5.3q0.5-0.3 1.1-0.3z"/>
			</g>
			<g id="&lt;Group&gt;">
				<path id="&lt;Compound Path&gt;" fill-rule="evenodd" class="s1" d="m704.5 924.3q-0.6 0-1.1-0.4l-9.9-6.6-9.9 6.6c-0.6 0.5-1.4 0.5-2 0.2-0.7-0.4-1.1-1.1-1.1-1.8v-7.8c0-0.6 0.4-1.3 0.9-1.6l10.9-7.3q0.1-0.1 0.2-0.2 0.6-0.3 1.2-0.3 0.4 0.1 0.8 0.3 0.1 0.1 0.3 0.2l10.8 7.3c0.6 0.3 0.9 1 0.9 1.6v7.8c0 0.7-0.4 1.4-1.1 1.8q-0.4 0.2-0.9 0.2zm-11-11.4q0.6 0 1.1 0.3l7.9 5.3v-2.9l-9-6.1-9 6.1v2.9l7.9-5.3q0.5-0.3 1.1-0.3z"/>
			</g>
			<g id="&lt;Group&gt;">
				<path id="&lt;Compound Path&gt;" fill-rule="evenodd" class="s1" d="m1012.8 786.7h-7.1c-0.9 0-1.8-0.7-1.9-1.6l-0.9-5.2q-0.7-0.2-1.4-0.4l-3.4 4.1c-0.6 0.7-1.7 0.9-2.5 0.4l-6.1-3.5c-0.9-0.5-1.2-1.5-0.9-2.4l1.8-4.9q-0.5-0.5-1-1.1l-4.9 1.8c-0.9 0.4-2 0-2.4-0.8l-3.6-6.1c-0.5-0.9-0.3-1.9 0.5-2.6l4-3.3q-0.2-0.7-0.4-1.4l-5.1-0.9c-1-0.2-1.7-1-1.7-2v-7c0-1 0.7-1.8 1.7-2l5.1-0.9q0.2-0.7 0.4-1.4l-4-3.3c-0.8-0.7-1-1.7-0.5-2.6l3.6-6.1c0.4-0.8 1.5-1.2 2.4-0.8l4.9 1.8q0.5-0.6 1-1.1l-1.8-4.9c-0.3-0.9 0-1.9 0.9-2.4l6.1-3.5c0.8-0.5 1.9-0.3 2.5 0.4l3.4 4.1q0.7-0.2 1.4-0.4l0.9-5.2c0.1-0.9 1-1.6 1.9-1.6h7.1c1 0 1.8 0.7 2 1.6l0.8 5.2q0.7 0.2 1.5 0.4l3.3-4.1c0.6-0.7 1.7-0.9 2.5-0.4l6.1 3.5c0.9 0.5 1.2 1.5 0.9 2.4l-1.8 4.9q0.5 0.5 1 1.1l4.9-1.8c1-0.4 2 0 2.5 0.8l3.5 6.1c0.5 0.9 0.3 1.9-0.5 2.6l-4 3.3q0.2 0.7 0.4 1.4l5.1 0.9c1 0.2 1.7 1 1.7 2v7c0 1-0.7 1.8-1.7 2l-5.1 0.9q-0.2 0.7-0.4 1.4l4 3.3c0.8 0.7 1 1.7 0.5 2.6l-3.5 6.1c-0.5 0.8-1.5 1.2-2.5 0.8l-4.9-1.8q-0.5 0.6-1 1.1l1.8 4.9c0.3 0.9 0 1.9-0.9 2.4l-6.1 3.5c-0.8 0.5-1.9 0.3-2.5-0.4l-3.3-4.1q-0.8 0.2-1.5 0.4l-0.8 5.2c-0.2 0.9-1 1.6-2 1.6zm-5.4-4h3.7l0.8-4.8c0.1-0.8 0.8-1.5 1.6-1.6q1.8-0.4 3.6-1c0.8-0.3 1.6 0 2.2 0.6l3.1 3.8 3.2-1.8-1.8-4.6c-0.2-0.8 0-1.7 0.6-2.2q1.4-1.2 2.6-2.6c0.6-0.7 1.5-0.9 2.3-0.6l4.5 1.7 1.9-3.2-3.8-3.1c-0.7-0.5-0.9-1.4-0.6-2.2q0.6-1.7 0.9-3.5c0.2-0.9 0.8-1.5 1.7-1.7l4.8-0.8v-3.6l-4.8-0.8c-0.9-0.2-1.5-0.8-1.7-1.6q-0.3-1.9-0.9-3.6c-0.3-0.8-0.1-1.7 0.6-2.2l3.8-3.1-1.9-3.2-4.5 1.7c-0.8 0.3-1.7 0.1-2.3-0.6q-1.2-1.4-2.6-2.6c-0.6-0.5-0.8-1.4-0.6-2.2l1.8-4.6-3.2-1.8-3.1 3.8c-0.6 0.6-1.4 0.9-2.2 0.6q-1.8-0.6-3.6-1c-0.8-0.1-1.5-0.8-1.6-1.6l-0.8-4.8h-3.7l-0.8 4.8c-0.1 0.8-0.8 1.5-1.6 1.6q-1.8 0.4-3.5 1c-0.8 0.3-1.7 0-2.3-0.6l-3.1-3.8-3.1 1.8 1.7 4.6c0.3 0.8 0 1.7-0.6 2.2q-1.4 1.2-2.6 2.6c-0.6 0.7-1.4 0.9-2.2 0.6l-4.6-1.7-1.9 3.2 3.8 3.1c0.7 0.5 0.9 1.4 0.6 2.2q-0.6 1.7-0.9 3.6c-0.2 0.8-0.8 1.4-1.7 1.6l-4.8 0.8v3.6l4.8 0.8c0.9 0.2 1.5 0.8 1.7 1.7q0.3 1.8 0.9 3.5c0.3 0.8 0.1 1.7-0.6 2.2l-3.8 3.1 1.9 3.2 4.6-1.7c0.8-0.3 1.6-0.1 2.2 0.6q1.2 1.4 2.6 2.6c0.6 0.5 0.9 1.4 0.6 2.2l-1.7 4.6 3.1 1.8 3.1-3.8c0.6-0.6 1.5-0.9 2.2-0.6q1.8 0.6 3.6 1c0.8 0.1 1.5 0.8 1.6 1.6zm1.8-15.5c-7.6 0-13.9-6.3-13.9-13.9 0-7.7 6.3-13.9 13.9-13.9 7.7 0 14 6.2 14 13.9 0 7.6-6.3 13.9-14 13.9zm0-23.8c-5.4 0-9.9 4.4-9.9 9.9 0 5.4 4.5 9.9 9.9 9.9 5.5 0 10-4.5 10-9.9 0-5.5-4.5-9.9-10-9.9z"/>
			</g>
			<g id="&lt;Group&gt;">
				<path id="&lt;Compound Path&gt;" fill-rule="evenodd" class="s1" d="m995.4 512.3h-7.1c-0.9 0-1.8-0.7-1.9-1.7l-0.9-5.1q-0.7-0.2-1.4-0.4l-3.4 4c-0.6 0.8-1.7 1-2.5 0.5l-6.1-3.5c-0.9-0.5-1.2-1.5-0.9-2.5l1.8-4.9q-0.5-0.5-1-1l-4.9 1.8c-0.9 0.4-2 0-2.4-0.9l-3.6-6.1c-0.5-0.8-0.3-1.9 0.5-2.5l4-3.3q-0.2-0.7-0.4-1.5l-5.1-0.8c-1-0.2-1.7-1-1.7-2v-7c0-1 0.7-1.9 1.7-2l5.1-0.9q0.2-0.7 0.4-1.4l-4-3.4c-0.8-0.6-1-1.7-0.5-2.5l3.6-6.1c0.4-0.8 1.5-1.2 2.4-0.9l4.9 1.9q0.5-0.6 1-1.1l-1.8-4.9c-0.3-0.9 0-1.9 0.9-2.4l6.1-3.6c0.8-0.4 1.9-0.2 2.5 0.5l3.4 4q0.7-0.2 1.4-0.3l0.9-5.2c0.1-1 1-1.7 1.9-1.7h7.1c1 0 1.8 0.7 2 1.7l0.8 5.2q0.7 0.1 1.5 0.3l3.3-4c0.6-0.7 1.7-0.9 2.5-0.5l6.1 3.6c0.9 0.5 1.2 1.5 0.9 2.4l-1.8 4.9q0.5 0.5 1 1.1l4.9-1.9c1-0.3 2 0.1 2.5 0.9l3.5 6.1c0.5 0.8 0.3 1.9-0.5 2.5l-4 3.4q0.2 0.7 0.4 1.4l5.1 0.9c1 0.1 1.7 1 1.7 2v7c0 1-0.7 1.8-1.7 2l-5.1 0.8q-0.2 0.8-0.4 1.5l4 3.3c0.8 0.6 1 1.7 0.5 2.5l-3.5 6.1c-0.5 0.9-1.5 1.3-2.5 0.9l-4.9-1.8q-0.5 0.5-1 1l1.8 4.9c0.3 1 0 2-0.9 2.5l-6.1 3.5c-0.8 0.5-1.9 0.3-2.5-0.5l-3.3-4q-0.8 0.2-1.5 0.4l-0.8 5.1c-0.2 1-1 1.7-2 1.7zm-5.4-4h3.7l0.8-4.8c0.1-0.8 0.8-1.5 1.6-1.7q1.8-0.3 3.6-0.9c0.8-0.3 1.6 0 2.2 0.6l3.1 3.8 3.2-1.8-1.8-4.6c-0.2-0.8 0-1.7 0.6-2.3q1.4-1.2 2.6-2.6c0.6-0.6 1.5-0.8 2.3-0.5l4.5 1.7 1.9-3.2-3.8-3.1c-0.7-0.5-0.9-1.4-0.6-2.2q0.6-1.8 0.9-3.6c0.2-0.8 0.8-1.5 1.7-1.6l4.8-0.8v-3.7l-4.8-0.8c-0.9-0.1-1.5-0.8-1.7-1.6q-0.3-1.8-0.9-3.5c-0.3-0.8-0.1-1.7 0.6-2.3l3.8-3.1-1.9-3.1-4.5 1.7c-0.8 0.3-1.7 0-2.3-0.6q-1.2-1.4-2.6-2.6c-0.6-0.5-0.8-1.4-0.6-2.2l1.8-4.6-3.2-1.8-3.1 3.7c-0.6 0.7-1.4 0.9-2.2 0.6q-1.8-0.6-3.6-0.9c-0.8-0.2-1.5-0.8-1.6-1.6l-0.8-4.9h-3.7l-0.8 4.9c-0.1 0.8-0.8 1.4-1.6 1.6q-1.8 0.3-3.5 0.9c-0.8 0.3-1.7 0.1-2.3-0.6l-3.1-3.7-3.1 1.8 1.7 4.6c0.3 0.8 0 1.7-0.6 2.2q-1.4 1.2-2.6 2.6c-0.6 0.6-1.4 0.9-2.2 0.6l-4.6-1.7-1.9 3.1 3.8 3.1c0.7 0.6 0.9 1.5 0.6 2.3q-0.6 1.7-0.9 3.5c-0.2 0.8-0.8 1.5-1.7 1.6l-4.8 0.8v3.7l4.8 0.8c0.9 0.1 1.5 0.8 1.7 1.6q0.3 1.8 0.9 3.6c0.3 0.8 0.1 1.7-0.6 2.2l-3.8 3.1 1.9 3.2 4.6-1.7c0.8-0.3 1.6-0.1 2.2 0.5q1.2 1.4 2.6 2.6c0.6 0.6 0.9 1.5 0.6 2.3l-1.7 4.6 3.1 1.8 3.1-3.8c0.6-0.6 1.5-0.9 2.3-0.6q1.7 0.6 3.5 0.9c0.8 0.2 1.5 0.9 1.6 1.7zm1.8-15.6c-7.6 0-13.9-6.2-13.9-13.9 0-7.6 6.3-13.9 13.9-13.9 7.7 0 14 6.3 14 13.9 0 7.7-6.3 13.9-14 13.9zm0-23.8c-5.4 0-9.9 4.5-9.9 9.9 0 5.5 4.5 9.9 9.9 9.9 5.5 0 10-4.4 10-9.9 0-5.4-4.5-9.9-10-9.9z"/>
			</g>
			<g id="&lt;Group&gt;">
				<path id="&lt;Compound Path&gt;" fill-rule="evenodd" class="s1" d="m8.1 180.9c-3.8 0-5.8-1.1-5.8-3v-2.4c-1.4 2.9-2.2 3.7-3.4 3.8 0 0-0.2 0-0.2 0-1.9 0-5.8-1.7-6.8-3.4-0.5-0.7-0.6-1.5-0.3-2.3l0.9-2.3q-0.1 0-0.1 0c-2.3 2-3.1 2.3-4 2.3-0.2 0-0.4 0-0.7-0.1-1.8-0.6-4.7-3.8-5.2-5.7-0.2-0.9 0-1.7 0.6-2.3l1.7-1.7c-2.1 0.7-2.9 0.8-3.5 0.8q-0.9 0-1.6-0.6c-1.4-1.2-2.9-5.3-2.6-7.2 0.1-0.9 0.7-1.6 1.4-2l2.3-0.9q0-0.1 0-0.1c-3.3-0.3-4.3-0.7-4.9-1.7-0.8-1.8-0.6-6.2 0.4-7.8 0.5-0.8 1.2-1.2 2.1-1.2h2.3c-2.9-1.5-3.7-2.2-3.7-3.4-0.2-1.9 1.5-5.2 2.6-6.5q1-1 2.1-1c0.3 0 0.7 0 0.9 0.1l2.3 1q0-0.1 0.1-0.1c-2.2-2.5-2.7-3.5-2.3-4.7 0.6-1.8 4.2-5.3 6.4-5.3 0.6 0 1.2 0.3 1.7 0.7l1.7 1.7c-1.1-3.1-1.1-4.2-0.3-5.1 1.2-1.3 4.8-2.7 6.7-2.7 1.7 0 2.3 1.1 2.5 1.5 0 0.1 0.3 0.8 0.8 2 0.1-2.1 0.1-2.3 0.2-2.5 0.3-1.7 2-2.6 4.6-2.6 3.3 0 5.4 1.3 5.4 3.3 0 0.2 0 0.9 0 1.9q0.3 0.1 0.5 0.1c0.9-2.1 1-2.3 1.1-2.5 0.4-0.5 1.1-1.3 2.7-1.3 2.1 0 4.9 1.5 6 3 0.8 1.2 0.6 2.3 0.3 2.8 0 0.1-0.3 0.7-0.6 1.8q0.2 0.1 0.5 0.3c1.7-1.6 1.9-1.8 2-1.9q0.7-0.4 1.6-0.5c2.2 0 4.7 2.7 5.5 4.6 0.8 1.9-0.1 3.1-0.5 3.5-0.1 0.1-0.6 0.6-1.3 1.4q0.1 0.2 0.2 0.4c2.2-0.9 2.4-1 2.7-1 0.1 0 0.4-0.1 0.5-0.1 2.6 0 3.9 3.4 4.3 5.2 0.6 3.1-0.9 4.1-1.6 4.4-0.2 0.1-0.8 0.4-1.8 0.8q0.1 0.3 0.1 0.6c2.4 0 2.6 0.1 2.8 0.1 1.9 0.4 2.9 2.6 2.6 5.7-0.4 4-2.6 4.4-3.3 4.4-0.1 0-0.8 0-1.9 0q0 0.2-0.1 0.4c2.2 1 2.4 1.1 2.5 1.2 0.8 0.5 1.9 1.7 1 4.5-0.5 1.6-2 4.7-4.4 4.7q-0.5 0-1-0.2c-0.2 0-0.8-0.3-1.8-0.7q-0.2 0.3-0.4 0.5c1.7 1.7 1.8 1.9 1.9 2.1 0.4 0.6 0.9 1.7 0 3.4-0.9 1.6-3.4 4-5.6 4-0.7 0-1.4-0.3-2-0.8-0.1-0.1-0.6-0.6-1.4-1.3q-0.1 0.1-0.3 0.2c0.8 2.2 0.9 2.4 0.9 2.6 0.2 0.9 0 1.8-0.6 2.5-1.3 1.5-4 2.5-5.8 2.5-2.1 0-2.9-1.2-3.1-1.8 0-0.1-0.3-0.7-0.8-1.7q-0.4 0.1-0.8 0.2c-0.2 3.3-0.6 4.3-1.7 4.8q-1.1 0.6-3.2 0.6zm-1.8-4.2c0.5 0.1 1.1 0.2 1.8 0.2q0.4 0 0.7-0.1c0.1-0.5 0.2-1.5 0.3-3.2 0-0.9 0.8-1.7 1.7-1.8q1.9-0.3 3.6-0.8c0.9-0.3 2 0.2 2.4 1.1l0.1 0.4q0.7 1.5 1.1 2.3c0.7-0.1 1.5-0.5 2-0.7-0.2-0.5-0.5-1.4-1.2-2.9-0.3-1 0-2 0.9-2.5 1-0.6 1.9-1.2 2.7-1.9 0.8-0.6 1.9-0.6 2.7 0.1 0.9 0.9 1.7 1.6 2.1 2 0.5-0.3 1.2-0.9 1.6-1.4-0.4-0.4-1-1.1-2.2-2.3-0.7-0.7-0.8-1.8-0.2-2.6 0.8-1 1.5-2 2-2.9 0.4-0.9 1.5-1.2 2.4-0.9l0.8 0.3q1.3 0.5 2 0.7c0.3-0.4 0.7-1.3 0.9-1.9-0.5-0.2-1.4-0.6-2.9-1.2-0.9-0.4-1.4-1.4-1.2-2.4q0.5-1.7 0.7-3.3c0.1-0.9 0.9-1.7 1.9-1.7q2-0.1 2.9-0.1c0.2-0.6 0.2-1.5 0.1-2.2-0.5 0-1.4 0-3.1 0-1 0-1.8-0.8-1.9-1.7q-0.3-1.9-0.8-3.4c-0.2-1 0.2-2 1.1-2.4l0.3-0.2q1.6-0.7 2.4-1c-0.1-0.6-0.4-1.5-0.7-2.1-0.5 0.2-1.4 0.6-2.9 1.2-0.9 0.4-2 0-2.5-0.8q-0.9-1.6-1.9-2.8c-0.6-0.8-0.6-1.9 0.1-2.6l0.4-0.4q1.1-1.2 1.6-1.8c-0.3-0.5-0.9-1.2-1.4-1.5-0.4 0.3-1 1-2.2 2.1-0.7 0.7-1.8 0.8-2.6 0.2-1.1-0.8-2-1.4-3-1.9-0.8-0.5-1.2-1.5-0.9-2.5l0.3-0.6q0.5-1.4 0.8-2.1c-0.5-0.4-1.3-0.8-2-0.9-0.2 0.4-0.6 1.3-1.2 2.8-0.4 0.9-1.4 1.4-2.3 1.2q-1.8-0.5-3.3-0.6c-1-0.1-1.8-1-1.8-2v-0.7q-0.1-1.4-0.1-2.2c-0.5-0.1-1.6-0.2-2.1-0.1 0 0.5-0.1 1.5-0.1 3.1 0 1-0.7 1.8-1.7 2q-1.4 0.2-2.8 0.5c-1 0.3-2-0.2-2.4-1.1l-0.5-1.2q-0.4-1-0.6-1.6c-0.8 0.2-1.8 0.6-2.4 0.9 0.1 0.5 0.4 1.5 1 3 0.3 0.9-0.1 2-0.9 2.4q-1.2 0.8-2.4 1.6c-0.8 0.6-1.9 0.6-2.6-0.1l-2.1-2.2c-0.6 0.5-1.4 1.2-1.9 1.8 0.4 0.4 1 1.2 2.1 2.4 0.7 0.7 0.7 1.8 0.1 2.6q-0.9 1.2-1.7 2.5c-0.5 0.8-1.5 1.2-2.4 0.8l-2.8-1.1c-0.4 0.6-0.9 1.6-1.1 2.3 0.5 0.3 1.4 0.7 2.9 1.4 0.8 0.4 1.3 1.4 1.1 2.3q-0.4 1.4-0.6 2.8c-0.1 1-1 1.8-2 1.8h-3c-0.1 0.7-0.2 1.8-0.1 2.5 0.6 0.1 1.5 0.2 3.2 0.3 1 0 1.8 0.7 1.9 1.7q0.2 1.5 0.6 3c0.2 0.9-0.3 1.9-1.2 2.3l-2.8 1.2c0.2 0.7 0.6 1.7 0.9 2.4 0.6-0.2 1.5-0.5 3.1-1 0.9-0.4 1.9 0 2.4 0.8q0.7 1.2 1.6 2.4c0.6 0.8 0.5 1.9-0.2 2.6l-2.1 2.2c0.4 0.6 1.1 1.3 1.7 1.8 0.4-0.3 1.2-0.9 2.4-2.1 0.7-0.6 1.8-0.7 2.6-0.1q1.2 1 2.5 1.7c0.8 0.5 1.2 1.6 0.8 2.5l-1.1 2.8c0.6 0.4 1.6 0.8 2.3 1 0.3-0.5 0.7-1.3 1.5-2.8 0.4-0.9 1.3-1.4 2.3-1.1q1.4 0.4 2.8 0.5c1 0.2 1.7 1 1.7 2zm1.4-14.1c-7.7 0-14.1-6.3-14.1-14.1 0-7.8 6.4-14.1 14.1-14.1 7.8 0 14.1 6.3 14.1 14.1 0 7.8-6.3 14.1-14.1 14.1zm0-24.2c-5.5 0-10.1 4.5-10.1 10.1 0 5.6 4.6 10.1 10.1 10.1 5.6 0 10.1-4.5 10.1-10.1 0-5.6-4.5-10.1-10.1-10.1z"/>
			</g>
			<g id="&lt;Group&gt;">
				<path id="&lt;Compound Path&gt;" fill-rule="evenodd" class="s1" d="m30.2 91.4c-3.3 0-7.3-0.6-7.3-3.4v-4.2q-0.6-0.1-1.2-0.2c-2.2 4.6-3.1 5.4-4.5 5.5 0 0-0.2 0-0.3 0-2.3 0-7.6-2.3-8.9-4.3-0.7-1.1-0.5-2.1-0.3-2.5l1.5-3.9q-0.6-0.4-1.2-0.8c-3.7 3.3-4.6 3.5-5.5 3.5-0.2 0-0.5 0-0.7-0.1-2.4-0.8-6.3-5.1-6.9-7.5-0.3-1.3 0.3-2.1 0.6-2.5l3-3q-0.4-0.5-0.7-1c-3.4 1.2-4.7 1.4-5.4 1.4q-1 0-1.7-0.6c-1.8-1.6-3.9-7.1-3.5-9.5 0.3-1.4 1.1-1.9 1.6-2.1l3.8-1.7q-0.1-0.7-0.3-1.4c-5.1-0.3-6.2-0.8-6.8-2-1.1-2.2-0.8-8.1 0.5-10.1 0.7-1.2 1.7-1.4 2.2-1.4h4.2q0.1-0.6 0.2-1.2c-4.6-2.3-5.4-3.2-5.5-4.5-0.2-2.2 1.8-6.7 3.5-8.5q1.1-1.3 2.4-1.2c0.2 0 0.7 0 0.9 0.1 0.2 0.1 1.6 0.7 3.9 1.6q0.4-0.6 0.8-1.2c-3.4-3.9-3.8-5-3.4-6.3 0.7-2.3 5.5-6.9 8.2-6.9 0.7 0 1.3 0.3 1.8 0.7 0.1 0.1 0.8 0.9 2.1 2.1l0.9 0.9q0.5-0.4 1-0.7c-1.7-4.9-1.7-6.1-0.8-7.1 1.5-1.8 6.4-3.5 8.8-3.5 1.9 0 2.6 1 2.8 1.6l1.7 3.8q0.5-0.1 1.1-0.2c0.1-3.9 0.1-4.3 0.2-4.5 0.4-2 2.5-3.1 5.8-3.1 3.1 0 6.7 1 6.7 3.9 0 0.3 0 1.5 0.1 3.5q0.9 0.1 1.9 0.3c1.5-3.6 1.7-3.8 1.9-4.1 0.3-0.5 1.2-1.4 3-1.4 2.7 0 6.5 1.9 7.8 3.9 0.9 1.4 0.7 2.5 0.5 3.1-0.1 0.2-0.6 1.4-1.3 3.2q0.9 0.5 1.9 1.2c2.8-2.7 3-2.9 3.3-3.1 0.4-0.3 1-0.5 1.7-0.5 2.8 0 6 3.5 7 5.9 0.9 2.3 0.1 3.5-0.5 4.1-0.2 0.2-1 1.1-2.3 2.5q0.5 0.8 1.1 1.6c3.6-1.4 3.9-1.5 4.2-1.6 0.1 0 0.4 0 0.5 0 2.9 0 4.8 4 5.3 6.6 0.7 3.8-1 5-1.8 5.3-0.2 0.1-1.3 0.6-3.1 1.4q0.2 1.1 0.4 2.2c3.9 0 4.2 0.1 4.5 0.1 2.7 0.6 3.3 4.2 3 7.2-0.3 3.4-1.8 5.4-3.8 5.4-0.3 0-1.5 0-3.5 0.1q-0.1 0.9-0.3 1.9c3.5 1.5 3.8 1.7 4 1.9 0.9 0.5 2.1 2 1.1 5.4-0.6 2.1-2.6 6-5.5 6q-0.6 0-1.1-0.2c-0.2-0.1-1.4-0.5-3.2-1.2q-0.6 0.9-1.2 1.8c2.7 2.8 2.9 3.1 3 3.3 0.5 0.6 1 2-0.1 4-1.1 2.1-4.4 5.2-7.1 5.2-0.9 0-1.6-0.3-2.2-0.9-0.2-0.2-1.1-1-2.5-2.4q-0.8 0.6-1.6 1.1c1.4 3.6 1.5 4 1.5 4.2 0.2 0.7 0.2 1.7-0.8 2.8-1.5 2-5.1 3.3-7.5 3.3-2.4 0-3.2-1.3-3.5-2-0.1-0.3-0.6-1.4-1.5-3.2q-1.1 0.3-2.4 0.5c-0.3 5.2-0.8 6.3-2 6.9q-1.4 0.7-4.2 0.7zm-3.3-4.4c0.7 0.2 1.9 0.4 3.3 0.4q1.3 0 1.8-0.2c0.2-0.6 0.4-2.1 0.5-5.2 0.1-0.9 0.8-1.7 1.7-1.9q2.8-0.3 5.2-1c1-0.3 2 0.1 2.4 1.1 0.9 2 1.6 3.5 1.9 4.2q0.1 0.1 0.1 0.1c1.5 0 3.6-1 4.3-1.6-0.2-0.6-0.7-1.8-1.9-4.7-0.3-0.9 0-2 0.9-2.5 1.5-0.9 2.8-1.8 4-2.7 0.7-0.7 1.9-0.6 2.6 0.1l0.2 0.1c1.6 1.5 2.7 2.6 3.2 3.1 1.1-0.3 3-2.1 3.5-3.1-0.4-0.4-1.3-1.4-3.5-3.7-0.7-0.7-0.8-1.8-0.2-2.6 1.1-1.5 2-2.9 2.8-4.2 0.4-0.9 1.5-1.3 2.4-0.9l0.7 0.2c1.8 0.7 3.1 1.2 3.7 1.4 0.9-0.7 2-3.1 2-4.2-0.5-0.2-1.8-0.8-4.7-2-0.9-0.4-1.4-1.4-1.1-2.3 0.4-1.7 0.7-3.3 0.9-4.8 0.1-1 0.9-1.7 1.9-1.8 2.3 0 3.9-0.1 4.7-0.1 0.5-1 0.6-3.6 0.3-4.6-0.6-0.1-2-0.1-5.1-0.1-1 0-1.8-0.8-2-1.8q-0.3-2.6-1-4.9c-0.3-1 0.2-2 1.1-2.4l0.6-0.3c1.7-0.8 3-1.4 3.7-1.7 0.1-1.1-0.8-3.5-1.6-4.3-0.5 0.2-1.8 0.7-4.7 1.9-0.9 0.3-2 0-2.5-0.9-0.9-1.5-1.8-2.8-2.7-4-0.7-0.8-0.6-1.9 0.1-2.6l0.4-0.5c1.4-1.4 2.3-2.4 2.8-3-0.3-1-2.1-2.9-3.1-3.4-0.4 0.4-1.4 1.3-3.6 3.5-0.8 0.7-1.9 0.8-2.7 0.2-1.5-1.1-2.8-2-4.2-2.8-0.9-0.5-1.3-1.5-0.9-2.4l0.2-0.5c0.7-1.9 1.2-3.2 1.5-3.9-0.7-0.8-2.9-1.9-4.3-2-0.2 0.5-0.7 1.8-2 4.6-0.3 0.9-1.3 1.4-2.3 1.2-1.7-0.4-3.3-0.7-4.8-0.9-1-0.1-1.7-0.9-1.7-1.9l-0.1-0.8c0-1.9-0.1-3.2-0.1-3.9-0.4-0.2-1.4-0.5-2.7-0.5-0.9 0-1.6 0.1-1.9 0.2 0 0.6-0.1 2-0.1 5.1 0 1-0.8 1.8-1.7 2q-2.1 0.2-4.1 0.8c-1 0.2-2-0.3-2.4-1.2l-1.9-4.5c-1.5 0.2-3.7 1.1-4.8 1.7 0.2 0.7 0.5 2.1 1.6 5.1 0.3 0.9 0 1.9-0.9 2.4q-1.7 1-3.4 2.3c-0.8 0.6-1.9 0.5-2.6-0.2l-2.1-2q-0.9-1-1.5-1.5c-1 0.6-2.9 2.4-3.7 3.5 0.4 0.5 1.3 1.7 3.3 4 0.7 0.7 0.7 1.8 0.2 2.6q-1.4 1.7-2.5 3.6c-0.5 0.9-1.5 1.2-2.5 0.8-2-0.8-3.6-1.4-4.5-1.8-0.8 1-1.9 3.4-2.2 4.6 0.6 0.4 1.9 1.1 4.7 2.5 0.9 0.4 1.3 1.3 1.1 2.3q-0.6 2-0.8 4c-0.2 1-1 1.8-2 1.8h-4.9c-0.4 1.3-0.5 3.8-0.3 5.1 0.7 0.1 2.2 0.3 5.3 0.5 0.9 0 1.7 0.8 1.9 1.7q0.2 2.2 0.8 4.3c0.3 1-0.2 2-1.1 2.4l-4.6 1.9c0.2 1.3 1.1 3.7 1.8 4.8 0.6-0.2 2.1-0.6 5-1.6 0.9-0.3 1.9 0 2.4 0.9q1 1.7 2.3 3.4c0.6 0.8 0.5 1.9-0.2 2.6l-3.4 3.5c0.6 1.2 2.3 3 3.4 3.8 0.6-0.4 1.7-1.3 4-3.4 0.8-0.6 1.8-0.7 2.6-0.1q1.8 1.4 3.6 2.5c0.9 0.5 1.2 1.5 0.9 2.4l-1.9 4.6c1 0.8 3.3 1.9 4.7 2.2 0.3-0.6 1.1-1.9 2.4-4.7 0.4-0.9 1.4-1.3 2.3-1.1q2 0.5 4.1 0.8c1 0.2 1.7 1 1.7 2zm2.8-21.5c-10.5 0-19.1-8.6-19.1-19.1 0-10.5 8.6-19.1 19.1-19.1 10.6 0 19.1 8.6 19.1 19.1 0 10.5-8.5 19.1-19.1 19.1zm0-34.2c-8.3 0-15.1 6.8-15.1 15.1 0 8.3 6.8 15.1 15.1 15.1 8.4 0 15.1-6.8 15.1-15.1 0-8.3-6.7-15.1-15.1-15.1z"/>
			</g>
			<g id="&lt;Group&gt;">
				<g id="&lt;Group&gt;">
					<path id="&lt;Compound Path&gt;" fill-rule="evenodd" class="s1" d="m134.6 1003.2h-16.8c-0.8 0-1.4-0.4-1.8-1l-8.4-14.6c-0.4-0.7-0.4-1.4 0-2l8.4-14.6c0.4-0.6 1-1 1.8-1h16.8c0.7 0 1.4 0.4 1.7 1l8.5 14.6c0.3 0.6 0.3 1.3 0 2l-8.5 14.6c-0.3 0.6-1 1-1.7 1zm-15.7-4h14.6l7.2-12.6-7.2-12.6h-14.6l-7.3 12.6z"/>
				</g>
				<g id="&lt;Group&gt;">
					<path id="&lt;Compound Path&gt;" fill-rule="evenodd" class="s1" d="m166.4 1018h-15.1c-0.7 0-1.3-0.3-1.7-1l-7.5-13c-0.4-0.6-0.4-1.4 0-2l7.5-13c0.4-0.7 1-1 1.7-1h15.1c0.7 0 1.4 0.3 1.7 1l7.6 13c0.3 0.6 0.3 1.4 0 2l-7.6 13c-0.3 0.7-1 1-1.7 1zm-13.9-4h12.7l6.4-11-6.4-11h-12.7l-6.4 11z"/>
				</g>
				<g id="&lt;Group&gt;">
					<path id="&lt;Compound Path&gt;" fill-rule="evenodd" class="s1" d="m136.6 1028.4h-11.2c-0.8 0-1.4-0.3-1.8-1l-5.6-9.7c-0.3-0.6-0.3-1.4 0-2l5.6-9.7c0.4-0.6 1-1 1.8-1h11.2c0.7 0 1.4 0.4 1.7 1l5.6 9.7c0.4 0.6 0.4 1.4 0 2l-5.6 9.7c-0.3 0.7-1 1-1.7 1zm-10.1-4h8.9l4.5-7.7-4.5-7.7h-8.9l-4.4 7.7z"/>
				</g>
			</g>
			<g id="&lt;Group&gt;">
				<g id="&lt;Group&gt;">
					<g id="&lt;Group&gt;">
						<path id="&lt;Compound Path&gt;" fill-rule="evenodd" class="s1" d="m547.3 153.2c-8.4 0-15.3-6.9-15.3-15.4v-6.6c0-1.1 0.9-2 2-2h26.7c1.1 0 2 0.9 2 2v6.6c0 8.5-6.9 15.4-15.4 15.4zm-11.3-20v4.6c0 6.3 5.1 11.4 11.3 11.4 6.3 0 11.4-5.1 11.4-11.4v-4.6z"/>
					</g>
					<g id="&lt;Group&gt;">
						<path id="&lt;Compound Path&gt;" fill-rule="evenodd" class="s1" d="m547.3 146.8c-4.9 0-9-4-9-9v-0.3c0-1.1 0.9-2 2-2h14c1.1 0 2 0.9 2 2v0.3c0 5-4 9-9 9zm-4.7-7.3c0.7 2 2.5 3.3 4.7 3.3 2.2 0 4-1.3 4.7-3.3z"/>
					</g>
					<g id="&lt;Group&gt;">
						<path id="&lt;Path&gt;" class="s7" d=""/>
					</g>
					<g id="&lt;Group&gt;">
						<path id="&lt;Path&gt;" class="s7" d=""/>
					</g>
				</g>
				<g id="&lt;Group&gt;">
					<path id="&lt;Compound Path&gt;" fill-rule="evenodd" class="s1" d="m566.2 133.2h-37.8c-1.1 0-2-0.9-2-2v-6.4c0-1.1 0.9-2 2-2h37.8c1.1 0 2 0.9 2 2v6.4c0 1.1-0.9 2-2 2zm-35.8-4h33.8v-2.4h-33.8z"/>
				</g>
				<g id="&lt;Group&gt;">
					<g id="&lt;Group&gt;">
						<path id="&lt;Compound Path&gt;" fill-rule="evenodd" class="s1" d="m560.7 173.2h-26.7c-1.1 0-2-0.9-2-2v-6.7c0-8.4 6.9-15.3 15.3-15.3 8.5 0 15.4 6.9 15.4 15.3v6.7c0 1.1-0.9 2-2 2zm-24.7-4h22.7v-4.7c0-6.2-5.1-11.3-11.4-11.3-6.2 0-11.3 5.1-11.3 11.3z"/>
					</g>
					<g id="&lt;Group&gt;">
						<path id="&lt;Compound Path&gt;" fill-rule="evenodd" class="s1" d="m554.3 166.9h-14c-1.1 0-2-0.9-2-2v-0.4c0-4.9 4.1-9 9-9 5 0 9 4.1 9 9v0.4c0 1.1-0.9 2-2 2zm-11.7-4h9.4c-0.7-2-2.5-3.4-4.7-3.4-2.2 0-4 1.4-4.7 3.4z"/>
					</g>
					<g id="&lt;Group&gt;">
						<path id="&lt;Path&gt;" class="s7" d=""/>
					</g>
					<g id="&lt;Group&gt;">
						<path id="&lt;Path&gt;" class="s7" d=""/>
					</g>
				</g>
				<g id="&lt;Group&gt;">
					<path id="&lt;Compound Path&gt;" fill-rule="evenodd" class="s1" d="m566.2 179.6h-37.8c-1.1 0-2-0.9-2-2v-6.4c0-1.1 0.9-2 2-2h37.8c1.1 0 2 0.9 2 2v6.4c0 1.1-0.9 2-2 2zm-35.8-4h33.8v-2.4h-33.8z"/>
				</g>
			</g>
			<g id="&lt;Group&gt;">
				<path id="&lt;Compound Path&gt;" fill-rule="evenodd" class="s1" d="m449 201.7h-19c-1.1 0-2-0.9-2-2v-21.6h-7.6c-0.8 0-1.5-0.5-1.8-1.2-0.3-0.8-0.1-1.7 0.4-2.2l19.1-19.1c0.8-0.8 2.1-0.8 2.8 0l18.9 18.9c0.5 0.3 0.8 0.9 0.8 1.6 0 1.1-0.9 2-2 2q0 0 0 0h-7.6v21.6c0 1.1-0.9 2-2 2zm-17-4h15v-21.6c0-1.1 0.9-2 2-2h4.8l-14.3-14.3-14.2 14.3h4.7c1.1 0 2 0.9 2 2z"/>
			</g>
			<g id="&lt;Group&gt;">
				<g id="&lt;Group&gt;">
					<path id="&lt;Compound Path&gt;" fill-rule="evenodd" class="s1" d="m858 302.2c-4.2 0-7.6-3.4-7.6-7.6 0-4.1 3.4-7.5 7.6-7.5 4.1 0 7.5 3.4 7.5 7.5 0 4.2-3.4 7.6-7.5 7.6zm0-11.1c-2 0-3.6 1.6-3.6 3.5 0 2 1.6 3.6 3.6 3.6 1.9 0 3.5-1.6 3.5-3.6 0-1.9-1.6-3.5-3.5-3.5z"/>
				</g>
				<g id="&lt;Group&gt;">
					<path id="&lt;Compound Path&gt;" fill-rule="evenodd" class="s1" d="m874.1 318.3c-4.1 0-7.5-3.4-7.5-7.5 0-4.2 3.4-7.6 7.5-7.6 4.2 0 7.6 3.4 7.6 7.6 0 4.1-3.4 7.5-7.6 7.5zm0-11.1c-1.9 0-3.5 1.6-3.5 3.6 0 1.9 1.6 3.5 3.5 3.5 2 0 3.6-1.6 3.6-3.5 0-2-1.6-3.6-3.6-3.6z"/>
				</g>
				<g id="&lt;Group&gt;">
					<path id="&lt;Compound Path&gt;" fill-rule="evenodd" class="s1" d="m900.1 292.3c-4.1 0-7.5-3.4-7.5-7.5 0-4.2 3.4-7.6 7.5-7.6 4.2 0 7.6 3.4 7.6 7.6 0 4.1-3.4 7.5-7.6 7.5zm0-11.1c-1.9 0-3.5 1.6-3.5 3.6 0 1.9 1.6 3.5 3.5 3.5 2 0 3.6-1.6 3.6-3.5 0-2-1.6-3.6-3.6-3.6z"/>
				</g>
				<g id="&lt;Group&gt;">
					<path id="&lt;Path&gt;" class="s1" d="m870.6 308.6c-0.5 0-1-0.2-1.4-0.6l-8.4-8.4c-0.8-0.8-0.8-2 0-2.8 0.8-0.8 2.1-0.8 2.8 0l8.4 8.3c0.8 0.8 0.8 2.1 0 2.9-0.4 0.4-0.9 0.6-1.4 0.6z"/>
				</g>
				<g id="&lt;Group&gt;">
					<path id="&lt;Path&gt;" class="s1" d="m877.7 308.6c-0.5 0-1-0.2-1.4-0.6-0.8-0.8-0.8-2.1 0-2.9l17.3-17.3c0.8-0.8 2.1-0.8 2.9 0 0.7 0.8 0.7 2.1 0 2.8l-17.4 17.4c-0.4 0.4-0.9 0.6-1.4 0.6z"/>
				</g>
			</g>
			<g id="&lt;Group&gt;">
				<g id="&lt;Group&gt;">
					<path id="&lt;Compound Path&gt;" fill-rule="evenodd" class="s1" d="m423.2 951.8c-0.4 0-0.9-0.2-1.3-0.5l-8.9-7.3h-28.6c-1.1 0-2-0.8-2-2v-32c0-1.1 0.9-2 2-2h48.8c1.1 0 2 0.9 2 2v32c0 1.2-0.9 2-2 2h-8v5.8c0 0.7-0.4 1.5-1.1 1.8q-0.5 0.2-0.9 0.2zm-36.8-11.8h27.4c0.4 0 0.9 0.2 1.2 0.5l6.2 5.1v-3.6c0-1.1 0.9-2 2-2h8v-28h-44.8z"/>
				</g>
				<g id="&lt;Group&gt;">
					<g id="&lt;Group&gt;">
						<path id="&lt;Path&gt;" class="s1" d="m425.2 920h-32.8c-1.1 0-2-0.8-2-2 0-1.1 0.9-2 2-2h32.8c1.1 0 2 0.9 2 2 0 1.2-0.9 2-2 2z"/>
					</g>
					<g id="&lt;Group&gt;">
						<path id="&lt;Path&gt;" class="s1" d="m425.2 928h-32.8c-1.1 0-2-0.8-2-2 0-1.1 0.9-2 2-2h32.8c1.1 0 2 0.9 2 2 0 1.2-0.9 2-2 2z"/>
					</g>
					<g id="&lt;Group&gt;">
						<path id="&lt;Path&gt;" class="s1" d="m408.8 936h-16.4c-1.1 0-2-0.8-2-2 0-1.1 0.9-2 2-2h16.4c1.1 0 2 0.9 2 2 0 1.2-0.9 2-2 2z"/>
					</g>
				</g>
			</g>
			<g id="&lt;Group&gt;">
				<g id="&lt;Group&gt;">
					<g id="&lt;Group&gt;">
						<path id="&lt;Compound Path&gt;" fill-rule="evenodd" class="s1" d="m684 859.5c-0.5 0-0.9-0.1-1.3-0.4l-8.9-7.3h-57.7c-1.1 0-2-0.9-2-2v-24.7c0-1.1 0.9-2 2-2h77.9c1.1 0 2 0.9 2 2v24.7c0 1.1-0.9 2-2 2h-8v5.7c0 0.8-0.5 1.5-1.2 1.8q-0.4 0.2-0.8 0.2zm-65.9-11.7h56.4c0.5 0 0.9 0.1 1.3 0.4l6.2 5.1v-3.5c0-1.1 0.8-2 2-2h8v-20.7h-73.9z"/>
					</g>
					<g id="&lt;Group&gt;">
						<g id="&lt;Group&gt;">
							<path id="&lt;Path&gt;" class="s1" d="m686 835.1h-61.9c-1.1 0-2-0.9-2-2 0-1.1 0.9-2 2-2h61.9c1.1 0 2 0.9 2 2 0 1.1-0.9 2-2 2z"/>
						</g>
						<g id="&lt;Group&gt;">
							<path id="&lt;Path&gt;" class="s1" d="m659.5 843.1h-35.4c-1.1 0-2-0.9-2-2 0-1.1 0.9-2 2-2h35.4c1.1 0 2 0.9 2 2 0 1.1-0.9 2-2 2z"/>
						</g>
					</g>
				</g>
				<g id="&lt;Group&gt;">
					<path id="&lt;Path&gt;" class="s7" d=""/>
				</g>
			</g>
			<g id="&lt;Group&gt;" clip-path="url(#cp1)">
			</g>
		</g>
	</g>
</svg>