<svg version="1.2" xmlns="http://www.w3.org/2000/svg" viewBox="0 0 800 800" width="800" height="800"><style>.a{fill:#936867}.b{fill:#d4a77d}.c{fill:#cd9766}.d{fill:#fc8b60}.e{fill:#fcbf60}.f{fill:#f8a75b}.g{fill:#966b4e}.h{fill:#a77c79}.i{fill:#fcb67c}.j{fill:#bd8864}.k{fill:#d39b75}.l{fill:#dcb895}.m{fill:#f9d9b2}.n{fill:#ffce8d}.o{fill:#ffe395}.p{fill:#f9dfaa}.q{fill:#ffe9d2}</style><path class="a" d="m800 800h-800v-800h800z"/><path class="b" d="m702.1 453.6h-0.3c-4.8 2-8.3 6.3-12 9.8-2.3 2.2-6 3.8-8.5 6.3 3 1.3 10.4 1 13.4-0.2 0.2 0.4 0.5 0.9 0.6 1.3-2.4-0.5-2.2 0.9-3.6 2.1-1.2 1-2.7 1.7-4.5 2.8-3.8 2.4-5.8 4.7-9.6 7.2 3 1.4 5.6-0.2 8.3-0.2 0.2 0 2-0.7 2.3-0.8 0 0 0.4 1.6 1.1 1.5 1.5-0.1 2-2 3.8-1.8-2.4 2.3-12.5 11.4-15.2 8.9-0.3 0.5-0.6 0.8-0.8 1.2l-0.7-0.6c-1.5-1.5-1.9-5.8-4.8-3.8-3.7-5.3-3.3-10-4-15.7-2.6 0.3-3.1-5-3.7-7.1 0.1 3.5 0.7 6.9-2.4 9.3-1.4 1.1-2.1-0.1-3 1.9-0.5 0.9-0.1 3-0.4 4.2-0.7 3-1.6 5.7-3.3 8.2-0.4-2.5-0.9-4.8-2.2-6.8-1.3-1.8-3.1-2.6-3.3-5.1-0.2 3.1-2.4 6.6-3.9 9.4-0.3 0.6-1.2 0.8-1.5 1.4-0.2 0.5 0.4 1.8 0.2 2.1-0.9 1.4-1.2 2.3-3.5 1.4-0.7 3.7-3.2 3.5-6 3.2-1.3-0.1-2.7-0.5-4-0.4-1.1 0.2-2.1 1.4-3.2 1.3-1.5-0.1-2.6-0.2-2.4-2.1-2.8 0.5-4.5-7.8-6.1-9.9-2.2-3-4.3-5.8-5.5-9.4-0.2 2.4 1.1 4.9 0.4 7.7-2.6-0.1-2.7 4.3-3.7 6-0.9 1.6-2.2 2.6-3.3 4.4-1.9-2.6-3.1-6.8-5.7-8.9-0.7 2.3-1.7 3.3-3.5 4.6q-0.3 0.3-0.6 0.5c-1.6 1.4-3.3 3.5-4.8 4.2-0.4-1.9-3.1-3.6-4.5-5.1-1.1-1.3-6-7.8-7.3-4-0.1-0.2-1.1-1.1-1.4-1.6-2.4 1.1-2.9 5.2-4.6 7.3-5.9-1.6-11.6-3.1-17.2-4.3-5.6-1.2-10.5-3.3-15.3-5.8 2-0.8 4.6-1.6 6.4-2.4 4.9-2.3 3.1-3.1 6.2-7 6.3-7.8 12.5-13.9 20.9-19 3.9-2.4 8.4-4.8 12.3-7.3 1.5-1 1.2-3.2 3.1-4.1 2.8-1.2 8 1.5 10.5-0.1 5.6-3.5 12.7-38.8 22.1-29.6 3.8-5.3 22.3-6.6 28.5-9.5 3.7-1.8 11.3-2.6 14.1-4.5 3-2.1 1.9-4.3 3.5-6.9 2.2-3.6 1.8-2.7 5.1-5.5 5.9-4.9 8.1-6 10.9-13.6 1.4-3.5 3.4-5.5 4.7-8.6 0.8-1.9-1-5.9 2.3-6.5l-0.1-0.4c0.8-0.1 1.7-0.1 3.7-0.3 11.2-0.8 13.9 6.3 21.2 12.7h-0.1c2.3 2 1.8 10.2 3.5 12.6 1.8 2.7 6.6 6 9 8.7 2.2 2.5 5 4.6 7.4 6.8 4.3 4.1 8.3 6.9 12.8 10.1 4.2 3.1 14 9.3 14.7 14.1 0.1 1-1.8 4-2 5.6-0.3 3.5 0.8 5.6 2.1 8.8 1.5 3.9 4.2 8.4 6.6 12 2.1 3.1 3.3 6.8 6.2 9.8q0.7 0.7 1.5 1.4c0.7 8.8 4.8 20.4-1.8 26.2q-0.3 0.3-0.7 0.5c-1-1-2.1-2.4-2.7-3.1-1.8-2-4.1-8.5-6.7-8.6-1-1.7-1.1-9.1-4.1-8.8-4.6 7.1-12.6 12.3-17.3 19.9l0.1 0.3c2.2-0.2 5.1-1.1 3.7 2.4 1.7-1.2 2.8-0.1 4.6 0.8-1.2 1.6-3.1 2.4-4.5 3.9-0.9 0.9-1.6 2.2-2.4 3.2l-0.1-0.1c-5.1 0.8-5.2-8.3-6.1-11.2 0 0-1.5-2.2-1.6-2.3-0.5-1.2-0.1-2.6-0.8-3.7-0.3-0.4-1.2-0.2-1.3-0.3-1.3-1.8-5.2-4.9-4.7-7.4-0.7 2.3 0.2 4.6-0.3 6.8-0.5 1.8-2.2 2.4-2.6 3.7-0.4 1.3 0.4 2 0.3 3.6-0.2 2.3-1.3 2.9-2.5 4.7-1.2 1.7-1.7 4.1-3.4 5.4-1.1-3.2-1.3-7.5-3.4-10.1-0.9-1.2-2.4-1.7-3.5-2.6q-0.2-0.3-0.4-0.5c-1.9-2.3-1.9-5.6-5.2-6.6 0.2 1.3 0 2.6-0.7 3.7-1.9-1.8-3.9-3.5-5-4.8 1.2 0 1.8-0.3 2.7-0.6 1.8 1.3 2.4 0.1 4 0.2 1.5 0 3.1 0.7 4.7 0.7-1.1-1.5-2.8-3.1-3.7-4.5 0.9-5.7-11.1-7.2-11.5-12.7z"/><path class="c" d="m778.9 453.3q0 1 0.1 2.2-0.8-0.7-1.5-1.4c-2.9-3-4.1-6.7-6.2-9.8-2.4-3.6-5.1-8.1-6.6-12-1.3-3.2-2.4-5.3-2.1-8.8 0.2-1.6 2.1-4.6 2-5.6-0.7-4.8-10.5-11-14.7-14.1-4.5-3.2-8.5-6-12.8-10.1-2.4-2.2-5.2-4.3-7.4-6.8-2.4-2.7-7.2-6-9-8.7-1.7-2.4-1.2-10.6-3.5-12.6h0.1q0.3 0.3 0.7 0.6c8.2 6.7 12.5 14.3 22.9 19.3 7.1 3.5 13.1 8.6 19 13.8 3.6 3.2 12 9.1 18.8 13.7 0.3 13.5 0.1 27 0.2 40.3z"/><path fill-rule="evenodd" class="d" d="m775.6 49.4c1.1 14.9 3.4 29.6 3.3 44.7-0.2 17.9-1.2 35.7-1.9 53.6-3.1-0.8-6.2-1.7-9-2.1-8.9-1.3-21.4 0.7-30.5 1.5-11.3 1-22.6 3-33.9 4.2-15.4 1.5-30.6 2.3-46 3-14.6 0.6-27.3-2-41.9-4-18.5-2.4-37.3-1.1-55.7-3.3-11.1-1.3-21.8-2.1-33-1.6-9.3 0.4-26 3-33.5-3.2-3.3-2.7-4.7-10.4-8-14-5.7-6.2-12.3-7.8-20.4-7.4-12.5 0.7-21.7 6.5-29.9 15.2-6-23.6-34.5-6.6-45.7 0-11.6-26-42.1-3.9-60-3-14.5 0.7-30.3 1.7-44.7 1-8.8-0.4-24.4 1.6-30.3-5.8 13.3-5.3 27.3-2.4 40.8-6.4 8.5-2.6 15.2-8.7 24.1-10.2 4.1-0.6 8.7 0.5 12.8 0.1 9.6-0.8 16.8-5.9 26.6-6.1 11-0.2 20.1-0.3 30.6-4.8-16.8-4.7-36.4-4.5-53.8-5.1-14.6-0.5-27.9 6.1-41.9 6-6.8-0.1-13.3-2.1-20.1-2.4-7-0.4-13.5 0.8-20.5-0.4-11.6-1.9-23.8 0.2-35.5 0.3-9.7 0.1-19.4-1.6-29.1-0.5-22.1 2.3-43.4 6.2-65.6 7.6 10.7-0.5 20.9 2.7 31.5 2.9 3.9 0 7.8 0.9 11.7 1.5 4.9 0.8 9.5 2.3 14.2 3.8 4 1.3 10 2 13.1 5.1-12.4 5.5-29.8 8.2-43.4 10.9-14.7 2.9-29.6 3.8-44.4 6.2-11.3 1.9-34.7 2.8-41.6 13.7 14 6.1 30.8 6 45.7 10.6 13.2 4.1 37.4 3.6 48.5 10.4-15.5 0.5-31 2.2-46.7 2.2-9.5 0-18.8 0.3-28.3 1-9.9 0.8-18.5-2.4-28.4-2-9.2 0.3-17.8 2.9-26.9 3.8q-0.3-5.7-0.4-11.4c-0.2-9-2.1-17.5 2.2-25.6 5.4-10 5.4-14.8 4.6-27-0.7-9.2-7.4-11.4-9.4-19.3-2.1-7.9 0.6-20.2 0.6-28.6 0-8.2-1.7-16.8 0.6-24.5 2.6-9.2 7.9-8.5 17.3-9.4 35.1-3.5 68.1-5.8 103.5-3.9 35.3 1.9 70.5 5.3 105.5 10.2 50.7 7 106.3-5 157.4-7.1 6.7-0.3 17-1.9 23 0.7 7 3.1 8.9 11.6 14.4 15.2 20.8 13.3 63.4 4.6 86.7 3.7 22.8-0.9 107.7 13.1 108.2-21 0 0.5 44.4-4.3 48-4.5 23.5-1 47.6 0.5 70.9 3.4 14.6 1.9 13.7 9.3 14.6 22.1zm-60.9 49.4c-4.3-1.8-11.4 0-16.2 0.1-6.9 0-14.3-0.8-21.1 0.3-5.8 0.9-10.8 3.7-16.8 3.8-11.1 0-21.6-0.7-32.8-0.1-5.1 0.3-7-1.8-11.2-2.5-4.7-0.7-8.3 1.5-12.8 2.4-7.6 1.5-14.4-2.9-21.7-1.1-5.6 1.3-8 4.4-14.2 4.4-6.6 0.1-13-0.4-19.6 0.9 13.4-0.6 33.4 5.8 54.9 4.1 16.4-1.3 33.3 0.9 49.5-1.4 18.2-2.6 46.3-0.1 62-10.9zm-424.7-16.2c-3-1.7-8.2-0.7-11.7-0.6-6.3 0-12.6-0.7-19-0.7-14.4 0-29-0.6-43.4-1.7-4.7-0.4-9.4-1.6-14.1-1.8-6.9-0.2-14 2.8-21 3.1-7.4 0.3-13.9-2-21.3-0.5-3 0.5-16.4 1.9-17.4 5.6 3.3 0.2 11.6-0.7 19.7-0.7 7 0 14.1 0.3 21.2 0.4 6 0 11.7 1.6 17.5 1.9 7.2 0.5 13.9-1 21.1 0.8 6.9 1.6 11.4 2.9 18.6 2.1 11.4-1.1 22.4-4.4 33.8-5.5 4.7-0.5 12 0.1 16-2.4z"/><path fill-rule="evenodd" class="e" d="m461.9 414c8.4-0.1 16.8-0.3 25.1 0.1 8.8 0.5 18.1 4.5 26.7 3.8 15-1.4 29.2-4.3 44.4-2.9 7.6 0.7 13.9 2.5 21.7 1.7 2.7-0.2 5.4-0.4 8.1-0.5-1 1.8-2.2 3.5-3.7 4.9-4.9 4.6-14.5 11.4-20.4 15-7.5 4.7-16.9 4.3-24.6 9.3-4.4 2.8-6.2 5.6-11.1 7.1-9.5 3-15.4-2.4-24.2-3.6-4.7-0.7-14.4 0.9-22.1 3.3q-0.7-0.6-1.6-1.1c-6.5-4.2-13.4-3.2-20.6-4.6-11.6-2.2-23-8.2-34.2-12.1-11.6-4.1-19.9-14.7-31.6-18.4q1.8-3.9 3.4-7.9 1.4-3.6 2.6-7.3c3.3-10.2 5.2-20.9 5.7-32.1 3.2 0 5.9-1.9 9-2 5.4-0.2 9.4 3.8 14.7 4 9.1 0.5 17.3-4.5 26.8-3.7 8.1 0.7 15.9-1 23.8-0.2 7.7 0.9 13.3-2.7 21-2.9 4.3-0.1 8.3 1.7 12.9 1.3 10-0.7 19.8-2.9 30-2.6 5.9 0.2 11.8 1.1 17.7 1.5 11.8 0.9 27.1-0.4 38.8-2.9-5.9 0.5-12.3-1.9-18.3-2.7-10-1.2-20.6 0-30.5-1.6-9.9-1.6-19.5-5.1-29.3-6.8-10.6-1.9-21.3-0.5-32-3.2 11.7-4.4 27.7-4.6 40.4-4.8 12-0.2 24.1 4 36 2.7 6.8-0.8 11.6-4.2 18.5-4.4 6.9-0.1 14-0.1 21-0.1 12 0 24.4 0.8 36.2 0.7 6.3 0 12.3-2.9 18.2-3.5 0.7-5 0.7-9.1 1.5-13.3 9.6-2.9 20.1-1.8 30-2.1 13.2-0.5 26.4-3 39.6-4.1 3.8-0.3 15.9 1.5 23.4 1 0.2 3.9 0.4 7.8 0.9 11.7 0.7 4.9-0.1 12.4 2.2 16.9 2.6 5.1 8.9 7.2 12.5 11.3 7.7 9 7.1 28.2 7.6 39.4q0.4 7.3 0.6 14.7c-6.8-4.6-15.2-10.5-18.8-13.7-5.9-5.2-11.9-10.3-19-13.8-10.4-5-14.7-12.6-22.9-19.3q-0.4-0.3-0.7-0.6c-7.3-6.4-10-13.5-21.2-12.7-2 0.2-2.9 0.2-3.7 0.3-0.9 0.2-1.7 0.7-4 2-7.8 4.4-14.4 11.2-22.1 16-5.7 3.5-10.1 9.2-16.8 11.9-6.6 2.7-12.5 1.9-16.9 8.5-6.9-4.6-17.9-6.7-26-6.8-2.4 6.5-7.6 10.4-11.4 16q-0.7 1.1-1.3 2.3l-1-0.6c-4.6 3.5-24 3.9-31.8 4.1-6 0.1-12.4-1.9-18.2-1.3-4.9 0.5-8.9 2.4-14 2.5-4.2 0.1-7.5-0.7-11.7 1.2-8.1 3.4-11.1 3.9-20.4 3.3-11.6-0.8-23.3 1.4-34.9 1.7zm-0.2 0q-1.5 0-3 0 1.5 0 3 0z"/><path fill-rule="evenodd" class="f" d="m777 147.7q-0.1 0.7-0.1 1.5-0.2 5.1-0.3 10.2c-17.4 1.9-43.6 6.2-57.1 5.1 10.9 0.9 21.5 1.5 32.2 3.4 4.7 0.8 16.7 0.2 24.8 0.2-0.1 5.7-0.2 11.4-0.4 17.1-10.1 0-26.3 2.2-30.1 3.3-10 2.7-20 6.3-30.4 7.8-10.9 1.5-21.4-0.9-32.3 0.5-6.7 0.9-13.4 2.5-20 2.9-7.8 0.4-15.3-2.6-23-1.8-8.2 1-15.5 3.7-23.9 3.8-11.3 0.1-27.4-3.7-37.7-0.2 12.8 0.7 25.8 1.2 38.7 2.3 15.4 1.4 31 2.2 46.4 3.6 16 1.4 31.4 4.9 47.7 2.2 13.6-2.2 25.4 1.2 38.4-0.5 4.6-0.6 17-0.7 24.7-0.8-0.5 5-1.3 10-2.3 14.9-2.7 12.3-13.9 13.5-15.7 25.8-2.8 18.1-3.1 37.7-2.4 56.3-17.1-2.9-45.3 1.4-59.6-0.1-3.9-0.4-11.1 1.7-14.6 0.3-3.3-1.3-6.6-8.9-9.2-12.1-12.6-16-26.2-23.6-47-15.4-11.1 4.5-19.6 12.5-24.5 23.1-4.8-20.3-28.2-9.3-31.2 5-6.8-15.8-26.7-26.4-43.6-27.1-22.1-1-31.5 12-37.8 31.2-1.9-14.4-21.3-2-24.6 6.1-5.1-5.2-15.3-9-22.6-8.8-10.2 0.2-13.9 9.2-21.6 12-1.2-8.8-14.4-7.3-23.1-5.6-19-42.1-61.3-71.3-110.5-71.3-39.3 0-74.2 18.7-96.3 47.6-6.6-5.1-14.1-11.5-22.4-15.6-15-7.3-31.2-9-47-4-7.1 2.3-37.7 18.5-35 28.8-4.8-18.7-29.7-11.1-27 7.8-6.1-17-28.4-5.8-35.9 6.5-0.1-13.3 0.8-26.2 8.1-35.8 4.7-6.2 13.6-11.1 14.4-19.7 0.8-8.8-7.5-12.8-11.1-19.5-4-7.1-1.9-18.5-2.2-26.5-0.6-12-1.5-23.9-2-35.8 9.1-0.9 17.7-3.5 26.9-3.8 9.9-0.4 18.5 2.8 28.4 2 9.5-0.7 18.8-1 28.3-1 15.7 0 31.2-1.7 46.7-2.2-11.1-6.8-35.3-6.3-48.5-10.4-14.9-4.6-31.7-4.5-45.7-10.6 6.9-10.9 30.3-11.8 41.6-13.7 14.8-2.4 29.7-3.3 44.4-6.2 13.6-2.7 31-5.4 43.4-10.9-3.1-3.1-9.1-3.8-13.1-5.1-4.7-1.5-9.3-3-14.2-3.8-3.9-0.6-7.8-1.5-11.7-1.5-10.6-0.2-20.8-3.4-31.5-2.9 22.2-1.4 43.5-5.3 65.6-7.6 9.7-1.1 19.4 0.6 29.1 0.5 11.7-0.1 23.9-2.2 35.5-0.3 7 1.2 13.5 0 20.5 0.4 6.8 0.3 13.3 2.3 20.1 2.4 14 0.1 27.3-6.5 41.9-6 17.4 0.6 37 0.4 53.8 5.1-10.5 4.5-19.6 4.6-30.6 4.8-9.8 0.2-17 5.3-26.6 6.1-4.1 0.4-8.7-0.7-12.8-0.1-8.9 1.5-15.6 7.6-24.1 10.2-13.5 4-27.5 1.1-40.8 6.4 5.9 7.4 21.5 5.4 30.3 5.8 14.4 0.7 30.2-0.3 44.7-1 17.9-0.9 48.4-23 60 3 11.2-6.6 39.7-23.6 45.7 0 8.2-8.7 17.4-14.5 29.9-15.2 8.1-0.4 14.7 1.2 20.4 7.4 3.3 3.6 4.7 11.3 8 14 7.5 6.2 24.2 3.6 33.5 3.2 11.2-0.5 21.9 0.3 33 1.6 18.4 2.2 37.2 0.9 55.7 3.3 14.6 2 27.3 4.6 41.9 4 15.4-0.7 30.6-1.5 46-3 11.3-1.2 22.6-3.2 33.9-4.2 9.1-0.8 21.6-2.8 30.5-1.5 2.8 0.4 5.9 1.3 9 2.1zm-693.4 151.7q0 0 0 0 0 0 0 0zm620.7-48.4c-25-6.8-53.6 2.5-79.3-5.5-11.4-3.6-22.4 0.1-32.5-6-7-4.2-7.4-2.7-14.4-0.1-0.7-9.9-12.5-14.4-18.9-6.7-2.3-12.8-22.3-23.2-25.3-4.7-4.5-12.1-9.5-21.2-24.6-21.6-17.1-0.5-31.2 10.1-25.4 27.4-5.5-8.7-20.4-3.2-11.5 3.7-8.4-4.8-22-10.7-27 0.7-1.4 3.2 0.1 7.7-2.6 10-0.9 0.8-11.3 0.9-12.3 1-3.2 0.5-6.5 0.6-9.7 1.1 19.8 4 42.1 2.3 62 2.4 13.4 0.1 30.2-3.2 42.6 1.9 7.2 2.9 9.5 1.9 17.1 0.8 6.9-1 7.8 1.5 14.2 2.9 7 1.6 17.2-0.2 24.7-0.5 9.9-0.5 19.1-0.1 29 0.5 13.6 0.9 27.1-4.7 40.6-3.8 17.6 1 36 0.2 53.3-3.5zm-418.9-63.1c13.7-2.3 29-2.7 42.1-7.3-40.5 2.1-80.6 2.5-121.2 4.1-10.9 0.5-21.4 3-32.4 2.6-9.5-0.3-19-1.4-28.4 0.5-6.1 1.2-11.7 3.5-17.9 3.9-6.1 0.5-11.3-1.4-17.2-1.8-7.3-0.5-19.8 1.4-25.4 6.3-1.6 0.3 10.1 0.8 16.2 1.5 15.1 1.5 31.4 1.2 46.5 1.2 13.3 0.1 25.7 0.9 38.8-1.3 17.5-2.8 34.1-6 51.7-4.5 15.7 1.4 31.8-2.5 47.2-5.2z"/><path class="d" d="m776.6 159.4q-0.1 4.3-0.1 8.7c-8.1 0-20.1 0.6-24.8-0.2-10.7-1.9-21.3-2.5-32.2-3.4 13.5 1.1 39.7-3.2 57.1-5.1z"/><path class="e" d="m776.1 185.2c-0.2 7.8-0.6 15.5-1.5 23.1-7.7 0.1-20.1 0.2-24.7 0.8-13 1.7-24.8-1.7-38.4 0.5-16.3 2.7-31.7-0.8-47.7-2.2-15.4-1.4-31-2.2-46.4-3.6-12.9-1.1-25.9-1.6-38.7-2.3 10.3-3.5 26.4 0.3 37.7 0.2 8.4-0.1 15.7-2.8 23.9-3.8 7.7-0.8 15.2 2.2 23 1.8 6.6-0.4 13.3-2 20-2.9 10.9-1.4 21.4 1 32.3-0.5 10.4-1.5 20.4-5.1 30.4-7.8 3.8-1.1 20-3.3 30.1-3.3z"/><path class="g" d="m741.3 506.3c0.5-1 1-2 2-2.9 1.9-1.6 4.5-2.3 6.2-4.2-0.8-0.9-1.7-0.6-2.7 0.3-2.3-2.4-5.2 0.9-7.5-0.3 2.2-1.5 4.3-3.5 6.4-5.2 0.6-0.5 1.1-1.1 1.5-1.8 0.8-1 1.5-2.3 2.4-3.2 1.4-1.5 3.3-2.3 4.5-3.9-1.8-0.9-2.9-2-4.6-0.8 1.4-3.5-1.5-2.6-3.7-2.4l-0.1-0.3c4.7-7.6 12.7-12.8 17.3-19.9 3-0.3 3.1 7.1 4.1 8.8 2.6 0.1 4.9 6.6 6.7 8.6 0.6 0.7 1.7 2.1 2.7 3.1-3.7 2.9-6.9 2-9.2 7.9-1.8 4.4-1.6 9.8-1.6 14.5-0.1 15.7 0.3 31.6 0.3 47.5 0 24.7 0.4 49.3 0.6 74-4.6-1.1-7.7-3.6-12-6.7-14.6-10.2-33.6-8.7-50.4-9.6-11-0.6-24.3-1.1-34.9-3.7-4.9-1.2-11.1-2.3-8.6-6.9 1.8-3.5 9.6-6.1 10.2-10.1 1.2-8.1-20.8-8.4-25.3-8.7-12.6-1-25.3-2.2-38-2.9-6.9-0.4-11.2-2.1-17.5-4.3-4.5-1.6-8.5-0.2-13.2 0.1-10.9 0.7-28.4-2.6-37.4-9.1-5.8-4.4-1.8-7.3 2.3-9.5q0.4-0.2 0.8-0.4 0.1-0.1 0.2-0.1 0 0 0 0c0.9-0.4 1.9-0.6 2.7-1.2 0.3-0.3 0.9-1.8 1.3-2.3 1.3-1.4 2.6-2.2 3.6-4.2 0 0-0.6 0.1-0.8 0.1 0-0.1 0.1-0.6 0-0.7-1.4-0.1-2.9-0.1-4.3 0.2-0.4-2.3 3.8-3.8 4.8-5.5-1.6 0.1-2.8-0.8-4.5-0.5 0.9-1.1 0.4-0.6 0.3-1.6 1.9-1.1 5.6-4.6 6-7-1.5 0.1-3.3 0.3-4.6-0.3 0.5 0.1 1.1 0 1.6 0-1-2.1 3.8-6.2 4.9-8.4-1.7-0.7-4 0.7-5.9 0 0.5 0 0.9-0.3 1.4-0.5-0.1-0.2-0.3-0.5-0.4-0.7 0.8-0.2 2-0.3 2.7-0.9 0.9-0.7 0.5-1.2 0.8-1.6 2.1-2.6 4.9-4.9 7.1-7.6 0 3.3 6.6 5.8 4.4 9.4 1.6-0.1 1.5 1.5 2.4 2.6-2.2 0.1-4.7-0.6-6.5 0.4 1.7 1.2 5 4.6 5.5 6.7-1.9-0.1-3.6-0.1-5.5-0.1 2.2 3.2 6.1 5.9 7.8 9-1.8-0.4-3.5-0.5-5.3-0.4 0 0.3 0 0.4 0 0.7-0.6-0.1-1.5 0.2-1.8 0.3 2.2 1.6 4.8 2.6 6.3 5-2.2-0.7-4.5-0.4-6.8-0.2 1.3 1.8 3.7 2.2 5.2 3.8 0.7 0.7 1.2 1.8 1.9 2.5-0.9 0-1.7 0.3-2.4 0.8 0.2 0.4 0.6 0.7 1 0.9l0.1 0.1c2.3 1 4.1-1 5.1-2.7 2 0.5 2.9-3.9 4.6-0.3 1-1.2 1.7-1.6 2.4-1.6 0.9 0 1.7 0.6 3.1 1.3-0.1 1.5 1.4 1.3 2.8 1.4 0.4-0.5 0.7-1.5 0.9-1.8 1.3-1.4 2.8-2.8 4.1-4.1q-0.1-0.2-0.2-0.3c-2.9 0.3-6.9-0.7-9.6 0.7 0.6-5.7 5.8-8.2 9.9-11.6-2 0.2-2.8-0.2-4.5-0.5-2.1-0.3-4.3 0.4-6.4 0.2 0.5-0.6 1-2.2 1.5-2.6 1.2-1.2 2.5-1.4 3.6-2.7 0.8-1 1.5-2.3 2.2-3.5 0.8-1.3 1.7-2.6 3.1-3.6-1.2-0.3-2.5-0.7-3.8-0.3-0.4-1.6-2.8-1.1-4.5-0.5q-0.3-0.2-0.6-0.4c2.7-3.1 6-5.8 9.2-8.6q0.3 0.1 0.7 0.1c0 0 0-0.6 0-0.6q-0.3 0.2-0.7 0.5c-2.2-0.3-4.1-0.7-6.3-0.9 0.1-0.5-0.2-1.2-0.1-1.7-1.2 0.1-2.5 0.5-3.8 0.4 0.8-1.3 0.3-2.3 1.2-3.6 1.4-2 4-2.1 5.4-4.2 0.8-1.1 0.7-1.9 1.5-2.8 1.4-1.6 4.2-2 5.7-3.5q0.7-0.8 1.4-1.6c1.4-1.8 2.9-4 4.6-5.5l0.1-0.2c2 2.1 3.3 5.1 5.2 7 0.8 0.8 1.8 1 2.5 1.6q0.1 0.1 0.1 0.3c0.1 0.3-0.1 0.8 0.2 1.1 0.4 0.4 1.3 0.6 1.8 1.1 2.3 2 3.3 4 5.1 6.3 0.9 1.2 2.5 2.3 3 3.5-2.2 0.7-5.2 1-7 0.6 1.9 2.3 2.9 2.6 3.7 5.5 0.3 1.1 0.7 1.9 1.1 2.7 0.2 0.5 0.5 1 0.7 1.6-2 0.1-3.6 1.1-5.3 1.8 0.1 0.2 0.3 0.6 0.4 0.8-0.4-0.1-1 0.1-1.4 0.1 2 1.7 4.5 3 6.7 4.7 0 0-0.4 0.5-0.4 0.5 0.1 0.2 0.3 0.5 0.4 0.7q0 0.1 0 0.1c-1.6-0.2-4.6 0.3-5 1.8-0.9-0.3-1.9-0.4-2.7-0.2-0.1 0.1-0.1 0.7-0.1 0.8-0.3-0.1-0.4-0.3-0.7-0.4-0.1 3.4 5.7 5.6 6.6 8.6-1.7-0.3-3.4-0.3-5-0.2 0.2 0.3 0.4 0.8 0.7 1-1.2 0.6-2.9 0.2-4.3 0.3 0.4 0.3 0.7 0.9 1 1.2-0.6 0-1.3 0.3-1.7 0.3 3 1.9 6.5 3.8 9.1 6l1.7-0.1c-0.1-2.7 8.1-6.1 8.8-7.8-3.4-0.4-6.6-0.2-10.1-0.5 0.7-0.6 1.4-1.6 2-2.3 0.7-0.7 2.4-1.5 2.9-2.1 1-1.3 0.6-2.1 1.8-3.6 1.2-1.5 3.8-2.4 5.4-3.4-3.2 0.7-6.5 0.1-9.9 1q0.2-0.3 0.5-0.6c0.7-0.5 1.5-0.9 1.9-1.4 0.6-1 0.5-2.3 0.8-2.9 1.6-2.6 5-4 8-4.2-0.1-0.1-0.9-0.1-1.1-0.1-0.3-0.6-7.3-1.8-8.7-1.6 1.3-1.3 3.2-1.5 4.6-2.5 1.5-1.2 1.2-1.5 2.2-2.6 1.7-1.8 3.9-3.4 5.4-5.5 0.2 0.1 0.5 0.3 0.8 0.4 3.1 1.8 4.4 3.7 6.7 6.1 1.4 1.5 3.5 2 4.1 4-2.3 0.4-3.9-0.6-5.7 0.7 2.9 1.9 13.7 6 5.1 7.9-0.1 0.3-0.3 1.2-0.4 1.4 3.6 2.3 8.3 3.6 10.3 7.6-1.5 1-4 0.8-5.8 1.3 1.2 0.9 1.2 2.1 2.3 2.2 1.6-1.5 3.4 0.1 5.1-2.7 1.8 1.8 2.7-0.8 3.7-1.9 1.1-1.3 2-1.5 3.6-1.4 2 0 4.4 0.5 5.7 2.2 1.6-2.3 6.5-5.3 4.1-7.4-3 1-6.2 1.7-9.3 1 1.7-0.7 1-2.1 1.6-2.7 1.4-1.8 4-2.1 5.1-3.7-0.4-0.2-1-1.1-1.4-1.3 2-3.1 6.2-3.2 8.4-5.8 1.2-1.4 1.6-3.8 3.2-5.1-2.4 0.8-6.6-1.9-10.1-0.6-0.4-1.8 0.9-2.7 2.7-3.5 2.9-1.4 4.4-1.4 6.5-3q0.4-0.2 0.8-0.5c2.9-2.4 7.4-3.4 9.8-6.3 0.8-1.1 0.9-2.6 1.7-3.6-3.4 1.4-9.1 1.8-12.8 1.9 0.8-0.7 0.1-0.8 1.6-1 0-0.6 0.1-1 0.4-1.4 0.2-0.4 0.5-0.7 0.8-1.2 2.7 2.5 12.8-6.6 15.2-8.9-1.8-0.2-2.3 1.7-3.8 1.8-0.7 0.1-1.1-1.5-1.1-1.5-0.3 0.1-2.1 0.8-2.3 0.8-2.7 0-5.3 1.6-8.3 0.2 3.8-2.5 5.8-4.8 9.6-7.2 1.8-1.1 3.3-1.8 4.5-2.8 1.4-1.2 1.2-2.6 3.6-2.1-0.1-0.4-0.4-0.9-0.6-1.3-3 1.2-10.4 1.5-13.4 0.2 2.5-2.5 6.2-4.1 8.5-6.3 3.7-3.5 7.2-7.8 12-9.8h0.3c0.4 5.5 12.4 7 11.5 12.7 0.9 1.4 2.6 3 3.7 4.5-1.6 0-3.2-0.7-4.7-0.7-1.6-0.1-2.2 1.1-4-0.2-0.9 0.3-1.5 0.6-2.7 0.6 1.1 1.3 3.1 3 5 4.8 1.4 1.4 2.7 2.8 3.5 4.1 0.6 0.9 1.1 1.8 1.2 2.6-0.5-0.6-1.8-1.2-2.4-1.8 0 0.3-0.2 1-0.3 1.4-2 0-5.2 1.4-6.2-0.3-0.9 1.1-3.1 0.7-4.8 0.7 2.9 1.9 6.1 5.5 9.6 5.8 0.6 3.1 4.3 4.1 6.1 6.2-2.5-2-7-1.5-9.8-0.3-1.6-3.2-2.5 0.4-4.3-0.5 2.2 1.2 4 3.4 6.1 4.8 2.1 1.5 4.7 1.7 6.7 3.1 1.2 0.8 2.4 2.9 3.1 4.7 0.3 0.8 0.5 1.6 0.6 2.2-4.9-0.1-8.4 4.2-13.2 1.7q-0.3 0.3-0.3 0.7c4.2 2.8 10.3 7.1 13 11.6 1.5 2.4 2 5.4 3.2 8-3.9-2.1-6.1 1.6-10.4-0.3-0.1 0.3-0.5 0.7-0.7 1-0.2-0.4-0.1-0.6-0.3-1-0.3 0.1-0.7 0.4-1 0.3-0.1 2.3 2 4.7 4.2 5.4 0.9 1.9 3.1 2.8 3.9 4.8l0.5-0.1c-0.4-1.3-0.8-2.7-0.5-4 0.8 0.3 2 0 2.7 0.3 0.3-1.7 0.1-4 1.9-5.1q0.1-0.1 0.2-0.1c1.2-0.6 1.8 1.1 3.1-0.2 1-0.9 2.3-9.1 5.2-4 0.5-0.6 1.8-1 2.3-1.4 1.1 1.6 2 3 3.2 4.4 0.8-0.9 1.7-1.7 2.2-2.7 0.7-1.3 0.6-2.4 1.2-3.7 0.8-1.9 2.4-4.3 3.9-6.1-0.3 0.2-1.1 0.4-1.6 0.6-0.6-3.6-7.6-2.3-10.1-2.4 0.5-1.8 2.3-1.9 3.4-3.3 0.4-0.5-0.9-1 0-2 1.1-1.4 2.3-0.8 3.5-1.7 0.9-0.7 1.4-1.6 1.8-2.4z"/><path fill-rule="evenodd" class="h" d="m490.5 558c8.4-0.9 16.8-2 25.3-2.7 8.9-0.8 17.8-1 26.8-1q-0.4 0.1-0.8 0.4c-4.1 2.2-8.1 5.1-2.3 9.5 9 6.5 26.5 9.8 37.4 9.1 4.7-0.3 8.7-1.7 13.2-0.1 6.3 2.2 10.6 3.9 17.5 4.3 12.7 0.7 25.4 1.9 38 2.9 4.5 0.3 26.5 0.6 25.3 8.7-0.6 4-8.4 6.6-10.2 10.1-2.5 4.6 3.7 5.7 8.6 6.9 10.6 2.6 23.9 3.1 34.9 3.7 16.8 0.9 35.8-0.6 50.4 9.6 4.3 3.1 7.4 5.6 12 6.7q0.1 15.2 0.1 30.4c0 27.8 1.1 55.9-0.7 83.5-0.5 8.4-1 10.4-9.6 13-9.5 3-19.7 2.4-29.6 3.2-11.8 1-23.7 1.2-35.4-0.5-10.6-1.6-21.9-1.1-32.6-1.4-6.6-0.2-17.8 0.6-23.3-3.5-4-2.9-2.6-7.2-7.7-10-3.9-2.1-9.5-2.1-13.8-2.5-9.3-0.7-18.6-0.1-27.9-0.3-28.4-0.9-56.7 0-85.1-1.6-28.6-1.5-57.2-0.6-85.6 2.1-21.3 2.1-42.7 2.1-64 4.7-15.5 1.9-34-1-48.7 6.1-5.8 2.8-4 6.6-8.2 10.8-5 5-14.9 3.6-21.3 3.6-15.1-0.1-30.1 0.1-45.2 0-25.1-0.2-51.1-0.9-76-2.7-10.8-0.9-21.4-0.7-32.1-0.2-21.8 1-43.4 3.4-64.9-2.2-14.9-4-14.4-13.4-14.8-28.5-0.4-14.4-0.8-9.1 9.1-17.3 4.6-3.7 7.1 0.3 10-5.2 1.9-3.7-1-16.7-1.6-20.7-2.6-16.7-9.3-14.8-19-25.8-5.3-6-6.2-13.7-5.8-21.9 9.3-0.2 28.5-2 31.7-6 1.1-1.4-0.4-4.6 0.6-6.4 1.5-2.7 3.8-2.5 6-4.4 1.7-1.5 2.2-1.2 3.6-2.9 1.5-1.7-0.7-3.7 1.7-5.3 1.1-0.8 8-0.5 9.9-0.8 11-1.9 20.6-5.9 32.1-5.3 7 0.4 13.5 1.7 20.5 0.6 6.4-0.9 13.2-2 19.6-0.5 4.1 1 4.3 2.4 8.6 1.6 3.3-0.5 6.5-3.6 9.8-4 4-0.6 8.2 2.1 12.4 0.9 10-2.7-0.1-8.9 6.1-12.9 4.1-2.6 11.3 0.3 15.6 0.1 3.3-0.2 6.2-1.5 9.3-2 6.5-1.1 13-0.3 19.1-1.3 2.3-0.4 3.4-2.4 5.9-2.8 3.9-0.7 7.5 1.3 11.3 1.4 7.4 0.3 13.9-3.6 21-5.1 11.4-2.5 24-1.2 35.5-3.9l0.6 2.3c5.8 5.2 19.3 3.8 26.5 4.8-5.1 4.2-18.5 8.3-24.8 8.9-7.8 0.8-16-2-24.3-1.5-9.1 0.5-17.5 1.2-26.7 0.5 4.3 2.3 11.2 1.6 16.2 2.4 6.4 1.1 13.1 4.4 19.5 4.4 11.5 0.1 29.4-5.5 39.4 2.4-4.1 4-17.3 4.1-22.6 4.8-13.9 1.6-31.5 3.4-45.3-0.5 5.6 2.1 12.5 3.6 18.6 5.9 8.1 3 16.2 1.8 24.5 3.4 8.1 1.7 15.3 2.6 23.5 2.9 4.1 0.1 8.7-0.2 13.1-0.2 5.9-0.1 12.1 1.2 18.2 0.3 6.4-1 12.5 0.9 19.2 0.5 10.9-0.6 22.5-3.5 33.6-4.7-6.3-4.4-18.9-3.3-25.7-3.3-5.6 0-24.1-2.7-26.9-5.9 11.9-0.8 23.3-1.8 34.8-3.2 8.8-1.1 18.4 0.8 27.3 0.3 8.5-0.4 25.6 1.9 31.9-4.7-7.5-5.8-23.8-0.9-32.5-2.7-4.3-0.8-6.1-2.5-11.6-2-7.4 0.6-15.2 3.2-22.5 1.2-7.1-1.9-13.1-3.8-21.1-4-6.6-0.1-16.2 1.6-22-1.8 5.9 0.2 11.3-1.8 17.2-1.5 6.3 0.3 13.1-0.5 19.3 0.1 7.2 0.7 11.8 0.6 19-0.5 4.6-0.6 6.3 1.1 11.8 1.1 6.7 0 11.9-2.4 18.8-1.9 6.4 0.5 10.5-1.9 16.6-2.3 6.3-0.4 11.4 0.9 17.8-0.3 6-1.2 12.5-2.7 18.7-2.3-5.7-1.9-14.5-4.8-19.6-5.3-3.7-0.3-8.5 1.1-12.3 1.2-4.4 0.2-8.4 0.1-12.6 0-9.2-0.2-18.9-2.6-28.1-1.3-6.9 1-10 1.9-16.5 0.6-5.2-1-11.4-0.6-16.2-1.8 3.5-1.4 7.3-0.6 10.9-1.6 2.1-0.6 2.6-2.6 4.3-3.3 4.5-1.8 12.3 0.1 17.6-1.7 2.6-0.8 2.3-3 5.3-3.7 3.4-0.9 6.9 0.9 10.5-0.2 0.6-0.1 3.4-2.6 4.7-3.2 2.1-0.8 4.9-1.3 7.5-1.6q0-0.1 0.1-0.1 8-0.4 16.1-0.8c8.6-0.5 17-1.3 25.5-2.3zm15.6 8c-17.2-3.8-37.7-2.4-55.2 2.2 14.8 6.2 36.4 2.5 55.2-2.2zm-25.1 22.6c-5.5-0.3-10.6 0.8-16.1 1.3-6 0.5-12-0.4-18.3-0.4 0.4-1-2.5 0.7-5.4 0.5 6 1 12.1 1.6 18.1 3.4 6.3 1.8 17.9 1.6 21.7-4.8zm-31.4 20.7c-10.4 0.1-21.8 1-31.9-0.5 6.6 5 21 4.8 31.9 0.5zm-172.6-3c3.8-0.6 7.4-3.4 9.9-3.6-5.2-2.9-10.4 0.1-15.7 0-4.9 0-9.2-0.9-14.1-0.5 5.7 1.4 13.9 4.9 19.9 4.1z"/><path class="i" d="m754.5 312.5q0.2 3.2 0.4 6.5c-7.5 0.5-19.6-1.3-23.4-1-13.2 1.1-26.4 3.6-39.6 4.1-9.9 0.3-20.4-0.8-30 2.1-0.8 4.2-0.8 8.3-1.5 13.3-5.9 0.6-11.9 3.5-18.2 3.5-11.8 0.1-24.2-0.7-36.2-0.7-7 0-14.1 0-21 0.1-6.9 0.2-11.7 3.6-18.5 4.4-11.9 1.3-24-2.9-36-2.7-12.7 0.2-28.7 0.4-40.4 4.8 10.7 2.7 21.4 1.3 32 3.2 9.8 1.7 19.4 5.2 29.3 6.8 9.9 1.6 20.5 0.4 30.5 1.6 6 0.8 12.4 3.2 18.3 2.7-11.7 2.5-27 3.8-38.8 2.9-5.9-0.4-11.8-1.3-17.7-1.5-10.2-0.3-20 1.9-30 2.6-4.6 0.4-8.6-1.4-12.9-1.3-7.7 0.2-13.3 3.8-21 2.9-7.9-0.8-15.7 0.9-23.8 0.2-9.5-0.8-17.7 4.2-26.8 3.7-5.3-0.2-9.3-4.2-14.7-4-3.1 0.1-5.8 2-9 2q0.1-2.4 0.1-4.9c0-17.8-3.9-34.7-10.8-49.9 8.7-1.7 21.9-3.2 23.1 5.6 7.7-2.8 11.4-11.8 21.6-12 7.3-0.2 17.5 3.6 22.6 8.8 3.3-8.1 22.7-20.5 24.6-6.1 6.3-19.2 15.7-32.2 37.8-31.2 16.9 0.7 36.8 11.3 43.6 27.1 3-14.3 26.4-25.3 31.2-5 4.9-10.6 13.4-18.6 24.5-23.1 20.8-8.2 34.4-0.6 47 15.4 2.6 3.2 5.9 10.8 9.2 12.1 3.5 1.4 10.7-0.7 14.6-0.3 14.3 1.5 42.5-2.8 59.6 0.1q0.1 3.7 0.3 7.2z"/><path class="j" d="m746.8 499.5c1-0.9 1.9-1.2 2.7-0.3-1.7 1.9-4.3 2.6-6.2 4.2-1 0.9-1.5 1.9-2 2.9-5.6-0.4-10.7-1.3-16.7-0.9q-2.4 0.2-5.2 0.4c-0.7-1.8-1.9-3.9-3.1-4.7-2-1.4-4.6-1.6-6.7-3.1-2.1-1.4-3.9-3.6-6.1-4.8 1.8 0.9 2.7-2.7 4.3 0.5 2.8-1.2 7.3-1.7 9.8 0.3-1.8-2.1-5.5-3.1-6.1-6.2-3.5-0.3-6.7-3.9-9.6-5.8 1.7 0 3.9 0.4 4.8-0.7 1 1.7 4.2 0.3 6.2 0.3 0.1-0.4 0.3-1.1 0.3-1.4 0.6 0.6 1.9 1.2 2.4 1.8-0.1-0.8-0.6-1.7-1.2-2.6l2.8-0.7c1.1 0.9 2.6 1.4 3.5 2.6 2.1 2.6 2.3 6.9 3.4 10.1 1.7-1.3 2.2-3.7 3.4-5.4 1.2-1.8 2.3-2.4 2.5-4.7 0.1-1.6-0.7-2.3-0.3-3.6 0.4-1.3 2.1-1.9 2.6-3.7 0.5-2.2-0.4-4.5 0.3-6.8-0.5 2.5 3.4 5.6 4.7 7.4 0.1 0.1 1-0.1 1.3 0.3 0.7 1.1 0.3 2.5 0.8 3.7 0.1 0.1 1.6 2.3 1.6 2.3 0.9 2.9 1 12 6.1 11.2l0.1 0.1c-0.4 0.7-0.9 1.3-1.5 1.8-2.1 1.7-4.2 3.7-6.4 5.2 2.3 1.2 5.2-2.1 7.5 0.3z"/><path class="k" d="m742.7 518.1c0.5-0.2 1.3-0.4 1.6-0.6-1.5 1.8-3.1 4.2-3.9 6.1-0.6 1.3-0.5 2.4-1.2 3.7-0.5 1-1.4 1.8-2.2 2.7-1.2-1.4-2.1-2.8-3.2-4.4-0.5 0.4-1.8 0.8-2.3 1.4-2.9-5.1-4.2 3.1-5.2 4-1.3 1.3-1.9-0.4-3.1 0.2l-0.5-1.2c-1.2-2.6-1.7-5.6-3.2-8-2.7-4.5-8.8-8.8-13-11.6q0-0.4 0.3-0.7c4.8 2.5 8.3-1.8 13.2-1.7-0.1-0.6-0.3-1.4-0.6-2.2q2.8-0.2 5.2-0.4c6-0.4 11.1 0.5 16.7 0.9-0.4 0.8-0.9 1.7-1.8 2.4-1.2 0.9-2.4 0.3-3.5 1.7-0.9 1 0.4 1.5 0 2-1.1 1.4-2.9 1.5-3.4 3.3 2.5 0.1 9.5-1.2 10.1 2.4z"/><path class="j" d="m722.7 530l0.5 1.2q-0.1 0-0.2 0.1c-1.8 1.1-1.6 3.4-1.9 5.1-0.7-0.3-1.9 0-2.7-0.3-0.3 1.3 0.1 2.7 0.5 4l-0.5 0.1c-0.8-2-3-2.9-3.9-4.8-2.2-0.7-4.3-3.1-4.2-5.4 0.3 0.1 0.7-0.2 1-0.3 0.2 0.4 0.1 0.6 0.3 1 0.2-0.3 0.6-0.7 0.7-1 4.3 1.9 6.5-1.8 10.4 0.3z"/><path class="j" d="m716.8 478.2q0.2 0.2 0.4 0.5l-2.8 0.7c-0.8-1.3-2.1-2.7-3.5-4.1 0.7-1.1 0.9-2.4 0.7-3.7 3.3 1 3.3 4.3 5.2 6.6z"/><path class="f" d="m698.5 98.9c4.8-0.1 11.9-1.9 16.2-0.1-15.7 10.8-43.8 8.3-62 10.9-16.2 2.3-33.1 0.1-49.5 1.4-21.5 1.7-41.5-4.7-54.9-4.1 6.6-1.3 13-0.8 19.6-0.9 6.2 0 8.6-3.1 14.2-4.4 7.3-1.8 14.1 2.6 21.7 1.1 4.5-0.9 8.1-3.1 12.8-2.4 4.2 0.7 6.1 2.8 11.2 2.5 11.2-0.6 21.7 0.1 32.8 0.1 6-0.1 11-2.9 16.8-3.8 6.8-1.1 14.2-0.3 21.1-0.3z"/><path class="l" d="m587.9 416.2c2.3-4.2 3.7-9 6-13.1q0.6-1.2 1.3-2.3c3.8-5.6 9-9.5 11.4-16 8.1 0.1 19.1 2.2 26 6.8 4.4-6.6 10.3-5.8 16.9-8.5 6.7-2.7 11.1-8.4 16.8-11.9 7.7-4.8 14.3-11.6 22.1-16 2.3-1.3 3.1-1.8 4-2l0.1 0.4c-3.3 0.6-1.5 4.6-2.3 6.5-1.3 3.1-3.3 5.1-4.7 8.6-2.8 7.6-5 8.7-10.9 13.6-3.3 2.8-2.9 1.9-5.1 5.5-1.6 2.6-0.5 4.8-3.5 6.9-2.8 1.9-10.4 2.7-14.1 4.5-6.2 2.9-24.7 4.2-28.5 9.5-9.4-9.2-16.5 26.1-22.1 29.6-2.5 1.6-7.7-1.1-10.5 0.1-1.9 0.9-1.6 3.1-3.1 4.1-3.9 2.5-8.4 4.9-12.3 7.3-8.4 5.1-14.6 11.2-20.9 19-3.1 3.9-1.3 4.7-6.2 7-1.8 0.8-4.4 1.6-6.4 2.4-8.4-4.2-16.1-9.3-25.3-11.9-8.6-2.4-16.6-0.9-24.6-5.4-4.2-2.3-6.7-5.9-10.2-8.7 7.7-2.4 17.4-4 22.1-3.3 8.8 1.2 14.7 6.6 24.2 3.6 4.9-1.5 6.7-4.3 11.1-7.1 7.7-5 17.1-4.6 24.6-9.3 5.9-3.6 15.5-10.4 20.4-15 1.5-1.4 2.7-3.1 3.7-4.9z"/><path class="j" d="m687.9 492.2c-0.8 1-0.9 2.5-1.7 3.6-2.4 2.9-6.9 3.9-9.8 6.3q-0.4 0.3-0.8 0.5c-4.3-2.6-6-5.3-12.6-4.7-4.8 0.5-9.1 3.6-13.9 3.9-13.9 0.8-28.4-1.6-42.9-5q0-0.2-0.1-0.3c-0.7-0.6-1.7-0.8-2.5-1.6-1.9-1.9-3.2-4.9-5.2-7q-0.2-0.2-0.4-0.3l-1-0.1q0.3-0.2 0.6-0.5c1.8-1.3 2.8-2.3 3.5-4.6 2.6 2.1 3.8 6.3 5.7 8.9 1.1-1.8 2.4-2.8 3.3-4.4 1-1.7 1.1-6.1 3.7-6 0.7-2.8-0.6-5.3-0.4-7.7 1.2 3.6 3.3 6.4 5.5 9.4 1.6 2.1 3.3 10.4 6.1 9.9-0.2 1.9 0.9 2 2.4 2.1 1.1 0.1 2.1-1.1 3.2-1.3 1.3-0.1 2.7 0.3 4 0.4 2.8 0.3 5.3 0.5 6-3.2 2.3 0.9 2.6 0 3.5-1.4 0.2-0.3-0.4-1.6-0.2-2.1 0.3-0.6 1.2-0.8 1.5-1.4 1.5-2.8 3.7-6.3 3.9-9.4 0.2 2.5 2 3.3 3.3 5.1 1.3 2 1.8 4.3 2.2 6.8 1.7-2.5 2.6-5.2 3.3-8.2 0.3-1.2-0.1-3.3 0.4-4.2 0.9-2 1.6-0.8 3-1.9 3.1-2.4 2.5-5.8 2.4-9.3 0.6 2.1 1.1 7.4 3.7 7.1 0.7 5.7 0.3 10.4 4 15.7 2.9-2 3.3 2.3 4.8 3.8l0.7 0.6c-0.3 0.4-0.4 0.8-0.4 1.4-1.5 0.2-0.8 0.3-1.6 1 3.7-0.1 9.4-0.5 12.8-1.9z"/><path class="m" d="m625 245.5c25.7 8 54.3-1.3 79.3 5.5-17.3 3.7-35.7 4.5-53.3 3.5-13.5-0.9-27 4.7-40.6 3.8-9.9-0.6-19.1-1-29-0.5-7.5 0.3-17.7 2.1-24.7 0.5-6.4-1.4-7.3-3.9-14.2-2.9-7.6 1.1-9.9 2.1-17.1-0.8-12.4-5.1-29.2-1.8-42.6-1.9-19.9-0.1-42.2 1.6-62-2.4 3.2-0.5 6.5-0.6 9.7-1.1 1-0.1 11.4-0.2 12.3-1 2.7-2.3 1.2-6.8 2.6-10 5-11.4 18.6-5.5 27-0.7-8.9-6.9 6-12.4 11.5-3.7q0.6 1.8 1.5 3.7c-0.4-1.4-0.9-2.6-1.5-3.7-5.8-17.3 8.3-27.9 25.4-27.4 15.1 0.4 20.1 9.5 24.6 21.6 3-18.5 23-8.1 25.3 4.7 6.4-7.7 18.2-3.2 18.9 6.7 7-2.6 7.4-4.1 14.4 0.1 10.1 6.1 21.1 2.4 32.5 6z"/><path class="k" d="m629.3 506.9c-1.5 2.1-3.7 3.7-5.4 5.5-1 1.1-0.7 1.4-2.2 2.6-1.4 1-3.3 1.2-4.6 2.5l-3 0.1c-0.4-0.8-0.8-1.6-1.1-2.7-0.8-2.9-1.8-3.2-3.7-5.5 1.8 0.4 4.8 0.1 7-0.6-0.5-1.2-2.1-2.3-3-3.5-1.8-2.3-2.8-4.3-5.1-6.3-0.5-0.5-1.4-0.7-1.8-1.1-0.3-0.3-0.1-0.8-0.2-1.1 14.5 3.4 29 5.8 42.9 5 4.8-0.3 9.1-3.4 13.9-3.9 6.6-0.6 8.3 2.1 12.6 4.7-2.1 1.6-3.6 1.6-6.5 3-1.8 0.8-3.1 1.7-2.7 3.5 3.5-1.3 7.7 1.4 10.1 0.6-1.6 1.3-2 3.7-3.2 5.1-2.2 2.6-6.4 2.7-8.4 5.8 0.4 0.2 1 1.1 1.4 1.3-1.1 1.6-3.7 1.9-5.1 3.7-0.6 0.6 0.1 2-1.6 2.7 3.1 0.7 6.3 0 9.3-1 2.4 2.1-2.5 5.1-4.1 7.4-1.3-1.7-3.7-2.2-5.7-2.2-1.6-0.1-2.5 0.1-3.6 1.4-1 1.1-1.9 3.7-3.7 1.9-1.7 2.8-3.5 1.2-5.1 2.7-1.1-0.1-1.1-1.3-2.3-2.2 1.8-0.5 4.3-0.3 5.8-1.3-2-4-6.7-5.3-10.3-7.6 0.1-0.2 0.3-1.1 0.4-1.4 8.6-1.9-2.2-6-5.1-7.9 1.8-1.3 3.4-0.3 5.7-0.7-0.6-2-2.7-2.5-4.1-4-2.3-2.4-3.6-4.3-6.7-6.1-0.3-0.1-0.6-0.3-0.8-0.4z"/><path class="k" d="m625.8 519.1c0.2 0 1 0 1.1 0.1-3 0.2-6.4 1.6-8 4.2-0.3 0.6-0.2 1.9-0.8 2.9-0.4 0.5-1.2 0.9-1.9 1.4l-1 0.1c-0.1-0.2-0.3-0.5-0.4-0.7 0 0 0.4-0.5 0.4-0.5-2.2-1.7-4.7-3-6.7-4.7 0.4 0 1-0.2 1.4-0.1-0.1-0.2-0.3-0.6-0.4-0.8 1.7-0.7 3.3-1.7 5.3-1.8-0.2-0.6-0.5-1.1-0.7-1.6l3-0.1c1.4-0.2 8.4 1 8.7 1.6z"/><path class="k" d="m625.6 527.3c-1.6 1-4.2 1.9-5.4 3.4-1.2 1.5-0.8 2.3-1.8 3.6-0.5 0.6-2.2 1.4-2.9 2.1-0.6 0.7-1.3 1.7-2 2.3l-0.2-0.2c-0.9-3-6.7-5.2-6.6-8.6 0.3 0.1 0.4 0.3 0.7 0.4 0-0.1 0-0.7 0.1-0.8 0.8-0.2 1.8-0.1 2.7 0.2 0.4-1.5 3.4-2 5-1.8q0 0 0-0.1l1-0.1q-0.3 0.3-0.5 0.6c3.4-0.9 6.7-0.3 9.9-1z"/><path class="k" d="m613.5 538.7c3.5 0.3 6.7 0.1 10.1 0.5-0.7 1.7-8.9 5.1-8.8 7.8l-1.7 0.1c-2.6-2.2-6.1-4.1-9.1-6 0.4 0 1.1-0.3 1.7-0.3-0.3-0.3-0.6-0.9-1-1.2 1.4-0.1 3.1 0.3 4.3-0.3-0.3-0.2-0.5-0.7-0.7-1 1.6-0.1 3.3-0.1 5 0.2z"/><path class="j" d="m598 487.6q0.2 0.1 0.4 0.3l-0.1 0.2c-1.7 1.5-3.2 3.7-4.6 5.5-6.5-1.8-13-3.6-19.3-5.3 1.7-2.1 2.2-6.2 4.6-7.3 0.3 0.5 1.3 1.4 1.4 1.6 1.3-3.8 6.2 2.7 7.3 4 1.4 1.5 4.1 3.2 4.5 5.1 1.5-0.7 3.2-2.8 4.8-4.2z"/><path class="n" d="m592.9 402.5l1 0.6c-2.3 4.1-3.7 8.9-6 13.1-2.7 0.1-5.4 0.3-8.1 0.5-7.8 0.8-14.1-1-21.7-1.7-15.2-1.4-29.4 1.5-44.4 2.9-8.6 0.7-17.9-3.3-26.7-3.8-8.3-0.4-16.7-0.2-25.1-0.1 11.6-0.3 23.3-2.5 34.9-1.7 9.3 0.6 12.3 0.1 20.4-3.3 4.2-1.9 7.5-1.1 11.7-1.2 5.1-0.1 9.1-2 14-2.5 5.8-0.6 12.2 1.4 18.2 1.3 7.8-0.2 27.2-0.6 31.8-4.1z"/><path class="k" d="m541.9 478.2c4.8 2.5 9.7 4.6 15.3 5.8 5.6 1.2 11.3 2.7 17.2 4.3 6.3 1.7 12.8 3.5 19.3 5.3q-0.7 0.8-1.4 1.6c-1.5 1.5-4.3 1.9-5.7 3.5-0.8 0.9-0.7 1.7-1.5 2.8-1.4 2.1-4 2.2-5.4 4.2-0.9 1.3-0.4 2.3-1.2 3.6 1.3 0.1 2.6-0.3 3.8-0.4-0.1 0.5 0.2 1.2 0.1 1.7 2.2 0.2 4.1 0.6 6.3 0.9-3.2 2.8-6.5 5.5-9.2 8.6-1.5-1-3-2-4.3-3.3-4.9-4.8-10.2-6.6-15.8-9.6-6.1-3.4-8.4-3.2-16.3-2.7-4.3 0.3-9.3 0.6-13.1-0.4 5.2-0.6 13.3-3.6 17.5-6.9 11.4-9.1 1.4-11.1-7.8-11.6-0.3-6.7-15.6-5.8-19.3-4.5-1.1 0.3-2.7 2.6-4.6 3.1-0.7 0.2-4-1.5-5.5-1.3-2.2 0.4-4.7 3.4-7.1 4.2-2.8 0.9-3.5 0.3-6.3 0.6-9.3 1-15.9-1-24.5-3.5-16.9-5.1-34.8-1.3-51.4-8.3-12.2-5.2-25.2-5.7-36.5-6.4 9.6-2.6 18.1-4.7 27.1-7.8 8.6-2.9 16.2-2.8 23.8-8.4-2.3-6.6-8.8-4.4-14.2-6.1-4-1.3-5.8-3.7-9.4-5.5-4.4-2.1-10.1-2.5-14.7-4.4-8.9-3.6-18.3-10.4-28-6.5-3.2-7.8-22.6-12.1-29.8-14.8l-0.2-0.6c7.8-2.3 18.6-0.4 26.6-0.3 7 0 16.7-1.5 24.5 0q1.9 0.3 3.6 0.9c11.7 3.7 20 14.3 31.6 18.4 11.2 3.9 22.6 9.9 34.2 12.1 7.2 1.4 14.1 0.4 20.6 4.6q0.9 0.5 1.6 1.1c3.5 2.8 6 6.4 10.2 8.7 8 4.5 16 3 24.6 5.4 9.2 2.6 16.9 7.7 25.3 11.9z"/><path class="g" d="m589.4 511c0 0 0 0.6 0 0.6q-0.4 0-0.7-0.1 0.4-0.3 0.7-0.5z"/><path class="j" d="m588.6 544.9q0.1 0.1 0.2 0.3c-1.3 1.3-2.8 2.7-4.1 4.1-0.2 0.3-0.5 1.3-0.9 1.8-1.4-0.1-2.9 0.1-2.8-1.4-1.4-0.7-2.2-1.3-3.1-1.3l1.1-2.8c2.7-1.4 6.7-0.4 9.6-0.7z"/><path fill-rule="evenodd" class="j" d="m559.5 511.5c-2.2 2.7-5 5-7.1 7.6-0.3 0.4 0.1 0.9-0.8 1.6-0.7 0.6-1.9 0.7-2.7 0.9 0.1 0.2 0.3 0.5 0.4 0.7-0.5 0.2-0.9 0.5-1.4 0.5 1.9 0.7 4.2-0.7 5.9 0-1.1 2.2-5.9 6.3-4.9 8.4-0.5 0-1.1 0.1-1.6 0 1.3 0.6 3.1 0.4 4.6 0.3-0.4 2.4-4.1 5.9-6 7 0.1 1 0.6 0.5-0.3 1.6 1.7-0.3 2.9 0.6 4.5 0.5-1 1.7-5.2 3.2-4.8 5.5 1.4-0.3 2.9-0.3 4.3-0.2 0.1 0.1 0 0.6 0 0.7 0.2 0 0.8-0.1 0.8-0.1-1 2-2.3 2.8-3.6 4.2-0.4 0.5-1 2-1.3 2.3-0.8 0.6-1.8 0.8-2.7 1.2q0 0 0 0-0.1 0-0.2 0.1c-9 0-17.9 0.2-26.8 1-8.5 0.7-16.9 1.8-25.3 2.7-1.1-1.8-1.6-3.6-3.2-5.3 2.3-2 5.7-4.5 3.5-8.1 1.2 0.6 3.4 0.1 4.6 0.5-0.6-7.5-0.1-10.3-8.6-8.1 0.4-0.6 0.7-2.4 1.3-3.4-5.7-1.9-12 1.1-18 0.8-5-0.3-5-1.9-8.2-2.8-2.3-0.6-5.5-1-8.3-0.6-1.5 0.2-2.1 2.6-3.1 2.7-3.9 0.4-7.5-3.5-9.9 1.2-1.4-1.5-3.9-2.6-5.4-3.9-0.9 2.1-2 4.2-3.4 6-0.7-0.1-1.1-0.4-1.7-0.5-3.2 2.6-4.3 11.4-8.3 11.3-2.3-0.1-4.1-4.2-5.3-5.4-0.3-4-2.1-8.8-6.3-9.9-0.1 3.4-0.9 9.2-5.2 9.7-1 3.6-2.2 7.3-2.9 11-8.2 4.2-10.2-7.3-9.5-12.7-4.7 0.5-4.2-4.2-6.6-6.8-0.8-0.9-3.4-1-4.8-2.7-2.5-3-1.7-4.9-2-8.7-0.3-5.2-0.3-6.3-3.4-10.9-1.4-2-5.8-5.9-4.8-9.3-1.4-1.4-2.9-3.1-4.6-4 5.7 6.2-0.6 9.3-2.8 14.6-1.5 3.7 0.6 11.7-4.6 11.7 3.3 5.8-4.4 5.7-6.2 10.1-2.1 4.9-0.2 8.1-3.3 12.7-2.8-2.5-4.1-7.2-4.8-11.1-0.2 0.1-0.2 0.8-0.6 1-2.6-3-5-8.3-7.3-10.7-2.3-2.3-3.3-1.3-5.6-4 8.2 10.2-2 18.6-10.5 22.9q0.8 0 1.5 0c-5.8 5.7-18 1-18.2-8.1-2.5-0.9-3.3-1.6-4.7-4-0.1 2.3 2.4 5.6 2 7.2-1.1 4.5-2.7 0.8-5 3.8-2.4 3.4-0.9 10.2-8.5 7.2 0.4 4.9-1.3 5.2-4.1 7.9-3.5 0.8-7.3 0.5-10.7 2.1l-0.1 0.1c-0.5-0.4-0.9-1-1.2-1.8 2.5-1.1 5.9-0.7 8.6-0.6-1.3-1.9-3.7-2.2-4.9-3.7-0.6-0.6-1-2.8-1.7-3.8-1-1.4-2.5-2.4-3.7-3.6 2.6-1 5.7-0.6 8.4-1.5-0.7-1.6-3.4-5.5-5-6.1-1-3.1-3.4-5.2-6.1-6.6 3.2-0.2 6.2-0.3 9.4-0.8-0.4-1.5-1.6-1.9-3-1.3 0.7-2.8-2.1-3.4-3.7-4.7-2.4-1.9-5.3-7.6-8.5-9.7q0 0 0-0.1 0 0.1 0 0.1c-1.7 6.9-7.3 4.8-11 9.7-1.3 1.7-3.5 3.2-4.5 5 3.1-0.1 6 1.1 9 1.3-3.6 0.2-6.7 3.7-8.5 6.4-0.9 1.2-2.2 4.3-3.5 4.5 2.7 1.1 7.3 1.7 10.4 1.7-2.4 2.2-4.9 3.3-7.1 5.8-1.8 1.9-4.3 2.4-6.1 4.5h-1.4q-0.1-0.6 0-1.4c-4.1 0.7-6.9-13.1-11.8-10.3-1-0.9-2-2-3.1-3-1.9 3.9-4.6 0-8.1 1.4 0.8 0.7 1.5 1.7 2 2.7-0.8 0.2-3.2-0.4-3.7 0.2-1.4 1.6 1.7 1.9 1.6 2.8-0.1 2.3-3.8 1.5-2.2 4.7-4 2.9-4.1-0.3-7.1-2.5-1.1-0.7-3.2-2-4.4-1.7-2 0.5-1.6 1.8-2.8 2.5-0.7 0.4-2.6-0.1-3.1 0.6-0.9 1.1 0.4 1.5 0.2 2.2-0.1 0.2-0.2 1.8-0.2 2.1-0.1 0.4-1.1 0.4-1.3 0.9-0.2 0.4-0.4 0.8-0.4 1q-0.5 0-0.9 0-1.1-0.1-2.2-0.1 0.1-0.3 0.2-0.5c-3.4-0.6-1.7-2.7-3.1-4.7-1.3-1.8-4.2-2.2-6.1-3.4 0-0.1-0.1-0.3-0.1-0.4 2.5 0.1 12.7-0.3 12.1-3-0.7 0.3-1.7 0-2.4 0.2-1-3.1-8-6.3-10.7-7.7 1.6 0.2 3 0.7 4.5 1 0.2-0.4 0.3-0.6 0.4-1 3.1-0.1 7.5 0.7 10.1-0.7-3.6-4.1-8.2-9.2-13.7-11.8 3.3 0.1 8.1-0.4 11.4-1.4-3.6-4.6-9.3-8.7-12.5-13.4 2.6-0.4 5.5 0.8 7.7-0.1-0.4-0.3-0.5-0.2-0.9-0.4 0-1.9-3.4-4.2-4.7-5.4-1.5-1.2-2.5-1.8-4.3-2.5-1.2-0.4-2.1-0.4-3.2-1.2-1-0.7-0.4-2-0.9-2.3l0.3-1.9q-0.6-0.1-1.2-0.2c7.9-4.2 15.2-9.2 23.1-14.5 8.9-5.9 19-9.1 29-12.8 4.4-1.6 8.9-3.4 13.2-5.5 13.1-6.6 25.8-12.8 37.1-22.2 6.8-5.7 12.9-6.7 19.8-7.9 0 3.4-8.4 5.4-9.6 7.2 2.5 1.8 11.6 2.6 9.8 6.3-2.5 1.3-6.1 1.8-8.9 2.6-7.5 2.1-18.8 0.3-24.8 5.9 3 2.2 10.9 1 14.8 1 7.9 0.1 14 2.2 21.3-1 7.3-3.1 13.6-1.7 21.2-2.6 8.1-1 17-1.6 24.8-3.9-3.3-1.3-7.3-1-11-1.2-4.6-0.4-8.2-2.9-12.9-2.7-2.1 0.1-4.1 0.6-6.2 0-1.1-0.4-1.7-1.4-2.8-1.8-3.5-0.9-7.5 0.9-10.9-0.3 2.3-2.5 5.7-4 8.7-5.4 3-1.4 1.7-2 3.7-4.4 1.4-1.7 4-1.6 5.6-3.3-0.3-0.4-0.3-1-0.6-1.4 0.9-0.8 1.9-1.7 3-2.5 3.2-1.3 6.3-2.8 8.8-4.4 2-1.3 4.9-5.8 6.4-6.5q1.1-0.5 2.3-0.8l0.2 0.6c7.2 2.7 26.6 7 29.8 14.8 9.7-3.9 19.1 2.9 28 6.5 4.6 1.9 10.3 2.3 14.7 4.4 3.6 1.8 5.4 4.2 9.4 5.5 5.4 1.7 11.9-0.5 14.2 6.1-7.6 5.6-15.2 5.5-23.8 8.4-9 3.1-17.5 5.2-27.1 7.8 11.3 0.7 24.3 1.2 36.5 6.4 16.6 7 34.5 3.2 51.4 8.3 8.6 2.5 15.2 4.5 24.5 3.5 2.8-0.3 3.5 0.3 6.3-0.6 2.4-0.8 4.9-3.8 7.1-4.2 1.5-0.2 4.8 1.5 5.5 1.3 1.9-0.5 3.5-2.8 4.6-3.1 3.7-1.3 19-2.2 19.3 4.5 9.2 0.5 19.2 2.5 7.8 11.6-4.2 3.3-12.3 6.3-17.5 6.9 3.8 1 8.8 0.7 13.1 0.4 7.9-0.5 10.1-0.7 16.3 2.7 5.6 3 10.9 4.8 15.8 9.6 1.3 1.3 2.8 2.3 4.3 3.3q-0.4 0.5-0.9 1c0.4-0.2 0.9-0.4 1.5-0.6 2 1.3 3.9 2.6 5.2 4.4-0.7 1.2-1.4 2.5-2.2 3.5-1.1 1.3-2.4 1.5-3.6 2.7-0.5 0.4-1 2-1.5 2.6 2.1 0.2 4.3-0.5 6.4-0.2 1.7 0.3 2.5 0.7 4.5 0.5-4.1 3.4-9.3 5.9-9.9 11.6l-1.1 2.8c-0.7 0-1.4 0.4-2.4 1.6-1.7-3.6-2.6 0.8-4.6 0.3-1 1.7-2.8 3.7-5.1 2.7l-0.1-0.1c-0.4-0.2-0.8-0.5-1-0.9 0.7-0.5 1.5-0.8 2.4-0.8-0.7-0.7-1.2-1.8-1.9-2.5-1.5-1.6-3.9-2-5.2-3.8 2.3-0.2 4.6-0.5 6.8 0.2-1.5-2.4-4.1-3.4-6.3-5 0.3-0.1 1.2-0.4 1.8-0.3 0-0.3 0-0.4 0-0.7 1.8-0.1 3.5 0 5.3 0.4-1.7-3.1-5.6-5.8-7.8-9 1.9 0 3.6 0 5.5 0.1-0.5-2.1-3.8-5.5-5.5-6.7 1.8-1 4.3-0.3 6.5-0.4-0.9-1.1-0.8-2.7-2.4-2.6 2.2-3.6-4.4-6.1-4.4-9.4zm-318.1-19.4c9.4-2 18.9-3.1 28.4-4.4-9.1-2.4-19.4-0.8-28.8-2.9-5.9-1.3-8.2 2.3-14 2.6-3.7 0.2-6.9-1.4-10.9-1.1-3.4 0.4-6.9 1.6-10.4 1.4-0.3 1.1 2.8 2.7 4.1 4.8 1.4 2.2 0.1 2.9 2.8 4.6 2.7 1.8 3.4 1 6.4 0.7 3.4-0.4 5.6 0.4 8.7-1.2 4.9-2.6 8.2-3.3 13.7-4.5z"/><path class="k" d="m584.6 521c1.3-0.4 2.6 0 3.8 0.3-1.4 1-2.3 2.3-3.1 3.6-1.3-1.8-3.2-3.1-5.2-4.4 1.7-0.6 4.1-1.1 4.5 0.5z"/><path class="j" d="m579.5 520.1q0.3 0.2 0.6 0.4c-0.6 0.2-1.1 0.4-1.5 0.6q0.5-0.5 0.9-1z"/><path class="g" d="m448.9 561.1q-0.1 0-0.1 0.1c-25.6 1.3-51.4 2.5-77.1 1.1-12.6-0.6-25.1-2.4-37.8-2.3-10.1 0.1-19.7 2-29.7 2.5q-7 0.3-14 0.4-6.9 0.1-13.9-0.1c-1.3-0.2-2.4-0.5-3.4-1.3l0.1-0.1c3.4-1.6 7.2-1.3 10.7-2.1 2.8-2.7 4.5-3 4.1-7.9 7.6 3 6.1-3.8 8.5-7.2 2.3-3 3.9 0.7 5-3.8 0.4-1.6-2.1-4.9-2-7.2 1.4 2.4 2.2 3.1 4.7 4 0.2 9.1 12.4 13.8 18.2 8.1q-0.7 0-1.5 0c8.5-4.3 18.7-12.7 10.5-22.9 2.3 2.7 3.3 1.7 5.6 4 2.3 2.4 4.7 7.7 7.3 10.7 0.4-0.2 0.4-0.9 0.6-1 0.7 3.9 2 8.6 4.8 11.1 3.1-4.6 1.2-7.8 3.3-12.7 1.8-4.4 9.5-4.3 6.2-10.1 5.2 0 3.1-8 4.6-11.7 2.2-5.3 8.5-8.4 2.8-14.6 1.7 0.9 3.2 2.6 4.6 4-1 3.4 3.4 7.3 4.8 9.3 3.1 4.6 3.1 5.7 3.4 10.9 0.3 3.8-0.5 5.7 2 8.7 1.4 1.7 4 1.8 4.8 2.7 2.4 2.6 1.9 7.3 6.6 6.8-0.7 5.4 1.3 16.9 9.5 12.7 0.7-3.7 1.9-7.4 2.9-11 4.3-0.5 5.1-6.3 5.2-9.7 4.2 1.1 6 5.9 6.3 9.9 1.2 1.2 3 5.3 5.3 5.4 4 0.1 5.1-8.7 8.3-11.3 0.6 0.1 1 0.4 1.7 0.5 1.4-1.8 2.5-3.9 3.4-6 1.5 1.3 4 2.4 5.4 3.9 2.4-4.7 6-0.8 9.9-1.2 1-0.1 1.6-2.5 3.1-2.7 2.8-0.4 6 0 8.3 0.6 3.2 0.9 3.2 2.5 8.2 2.8 6 0.3 12.3-2.7 18-0.8-0.6 1-0.9 2.8-1.3 3.4 8.5-2.2 8 0.6 8.6 8.1-1.2-0.4-3.4 0.1-4.6-0.5 2.2 3.6-1.2 6.1-3.5 8.1 1.6 1.7 2.1 3.5 3.2 5.3-8.5 1-16.9 1.8-25.5 2.3q-8.1 0.4-16.1 0.8z"/><path class="f" d="m493.3 583.1c-6.2-0.4-12.7 1.1-18.7 2.3-6.4 1.2-11.5-0.1-17.8 0.3-6.1 0.4-10.2 2.8-16.6 2.3-6.9-0.5-12.1 1.9-18.8 1.9-5.5 0-7.2-1.7-11.8-1.1-7.2 1.1-11.8 1.2-19 0.5-6.2-0.6-13 0.2-19.3-0.1-5.9-0.3-11.3 1.7-17.2 1.5 5.8 3.4 15.4 1.7 22 1.8 8 0.2 14 2.1 21.1 4 7.3 2 15.1-0.6 22.5-1.2 5.5-0.5 7.3 1.2 11.6 2 8.7 1.8 25-3.1 32.5 2.7-6.3 6.6-23.4 4.3-31.9 4.7-8.9 0.5-18.5-1.4-27.3-0.3-11.5 1.4-22.9 2.4-34.8 3.2 2.8 3.2 21.3 5.9 26.9 5.9 6.8 0 19.4-1.1 25.7 3.3-11.1 1.2-22.7 4.1-33.6 4.7-6.7 0.4-12.8-1.5-19.2-0.5-6.1 0.9-12.3-0.4-18.2-0.3-4.4 0-9 0.3-13.1 0.2-8.2-0.3-15.4-1.2-23.5-2.9-8.3-1.6-16.4-0.4-24.5-3.4-6.1-2.3-13-3.8-18.6-5.9 13.8 3.9 31.4 2.1 45.3 0.5 5.3-0.7 18.5-0.8 22.6-4.8-10-7.9-27.9-2.3-39.4-2.4-6.4 0-13.1-3.3-19.5-4.4-5-0.8-11.9-0.1-16.2-2.4 9.2 0.7 17.6 0 26.7-0.5 8.3-0.5 16.5 2.3 24.3 1.5 6.3-0.6 19.7-4.7 24.8-8.9-7.2-1-20.7 0.4-26.5-4.8 6.8-0.1 20.1 0.3 25.5-4.7 4-3.7 2-7.2-4.4-4.9-2.6-7.8-23-5.1-30.9-6.2-4.8-0.6-8.9-2.1-13.3-3.6q-0.3-0.1-0.5-0.2 7-0.1 14-0.4c10-0.5 19.6-2.4 29.7-2.5 12.7-0.1 25.2 1.7 37.8 2.3 25.7 1.4 51.5 0.2 77.1-1.1-2.6 0.3-5.4 0.8-7.5 1.6-1.3 0.6-4.1 3.1-4.7 3.2-3.6 1.1-7.1-0.7-10.5 0.2-3 0.7-2.7 2.9-5.3 3.7-5.3 1.8-13.1-0.1-17.6 1.7-1.7 0.7-2.2 2.7-4.3 3.3-3.6 1-7.4 0.2-10.9 1.6 4.8 1.2 11 0.8 16.2 1.8 6.5 1.3 9.6 0.4 16.5-0.6 9.2-1.3 18.9 1.1 28.1 1.3 4.2 0.1 8.2 0.2 12.6 0 3.8-0.1 8.6-1.5 12.3-1.2 5.1 0.5 13.9 3.4 19.6 5.3z"/><path class="f" d="m450.9 568.2c17.5-4.6 38-6 55.2-2.2-18.8 4.7-40.4 8.4-55.2 2.2z"/><path class="f" d="m464.9 589.9c5.5-0.5 10.6-1.6 16.1-1.3-3.8 6.4-15.4 6.6-21.7 4.8-6-1.8-12.1-2.4-18.1-3.4 2.9 0.2 5.8-1.5 5.4-0.5 6.3 0 12.3 0.9 18.3 0.4z"/><path class="f" d="m417.7 608.8c10.1 1.5 21.5 0.6 31.9 0.5-10.9 4.3-25.3 4.5-31.9-0.5z"/><path class="o" d="m405.5 368.7c-0.5 11.2-2.4 21.9-5.7 32.1-2.6 0.5-5.3 0.7-7.6 1.1-4.9 1-9.9 1.9-14.9 1.9-5.5 0-11.6 2.5-17 1.6-2.7-0.4-4.7-2.3-7.6-2.3-3.7 0.1-7.4 1.9-11 2.5-5.8 0.9-11.8 0.5-17.5 2.3 11.1 0.7 22.1-1 33-0.7 9.9 0.3 19.7 0.8 29.5 1.4 3.6 0.2 7.1-0.2 10.5-0.5q-1.6 4-3.4 7.9-1.7-0.6-3.6-0.9c-7.8-1.5-17.5 0-24.5 0-8-0.1-18.8-2-26.6 0.3q-1.2 0.3-2.3 0.8c-1.5 0.7-4.4 5.2-6.4 6.5-2.5 1.6-5.6 3.1-8.8 4.4-4.4 1.8-9.1 3.4-12.8 4.6-4.6 1.5-8.6 2.2-12.4 2.9-6.9 1.2-13 2.2-19.8 7.9-11.3 9.4-24 15.6-37.1 22.2-4.3 2.1-8.8 3.9-13.2 5.5q-7.3-3.9-14-8.9-3.9-2.9-7.6-6.1c-17.9-15.6-31.1-36.3-37.4-59.8 0.5 0.1 1 0.1 1.6-0.1 2.9-0.6 4.8-2.2 8.3-2.5 14-1.2 28.3 0.7 42.2-1.2 8.7-1.2 16-3.1 24.7-1.4 7.2 1.4 14.7-1.2 21.8-2.3 11.6-1.9 23.2-3 34.9-3 6 0 12.1 0 17.8-1.7-3.1-1.4-6.7-1.2-9.9-1.9-3-0.6-5.9-1.9-9-2.1-3-0.1-5.9 1.1-8.9 1-2.6 0-5.2-0.6-7.9-0.7-6.2-0.2-12.3-0.1-18.4 0.8-6.8 1-13.5-0.2-20.2 0.2-5.2 0.3-10.4 2.3-15.6 2.1-3.1-0.1-6.4-0.7-9.5-1-6-0.8-11.3-0.5-17.2 0.1-5 0.5-9.9 0.4-14.8 0.8-7.5 0.8-14.8 2.1-22.3 2.4-1.2-6.9-1.8-13.9-1.8-21.1q0-6.5 0.7-12.8c11.9 0.3 23.4-1.4 35.4-1.4 10.3 0 20.4 0 30.5 0.2 6.9 0.1 21.9-0.3 27.5-4.7-23.1-6-45.2 0.6-67.9-6.8-7.5-2.5-11.3 0.6-18.8 0-1.9-0.1-3.2-0.8-4.4-1.5 3.9-17.2 11.5-33 21.9-46.6 22.1-28.9 57-47.6 96.3-47.6 49.2 0 91.5 29.2 110.5 71.3 6.9 15.2 10.8 32.1 10.8 49.9q0 2.5-0.1 4.9z"/><path class="m" d="m392.2 401.9c2.3-0.4 5-0.6 7.6-1.1q-1.2 3.7-2.6 7.3c-3.4 0.3-6.9 0.7-10.5 0.5-9.8-0.6-19.6-1.1-29.5-1.4-10.9-0.3-21.9 1.4-33 0.7 5.7-1.8 11.7-1.4 17.5-2.3 3.6-0.6 7.3-2.4 11-2.5 2.9 0 4.9 1.9 7.6 2.3 5.4 0.9 11.5-1.6 17-1.6 5 0 10-0.9 14.9-1.9z"/><path class="k" d="m334 448.9c3.7 0.2 7.7-0.1 11 1.2-7.8 2.3-16.7 2.9-24.8 3.9-7.6 0.9-13.9-0.5-21.2 2.6-7.3 3.2-13.4 1.1-21.3 1-3.9 0-11.8 1.2-14.8-1 6-5.6 17.3-3.8 24.8-5.9 2.8-0.8 6.4-1.3 8.9-2.6 1.8-3.7-7.3-4.5-9.8-6.3 1.2-1.8 9.6-3.8 9.6-7.2 3.8-0.7 7.8-1.4 12.4-2.9 3.7-1.2 8.4-2.8 12.8-4.6-1.1 0.8-2.1 1.7-3 2.5 0.3 0.4 0.3 1 0.6 1.4-1.6 1.7-4.2 1.6-5.6 3.3-2 2.4-0.7 3-3.7 4.4-3 1.4-6.4 2.9-8.7 5.4 3.4 1.2 7.4-0.6 10.9 0.3 1.1 0.4 1.7 1.4 2.8 1.8 2.1 0.6 4.1 0.1 6.2 0 4.7-0.2 8.3 2.3 12.9 2.7z"/><path class="h" d="m334.9 572.9c6.4-2.3 8.4 1.2 4.4 4.9-5.4 5-18.7 4.6-25.5 4.7l-0.6-2.3q2.2-0.6 4.4-1.3c-1.9-3.1-6.4-5.2-10.1-6.1-5.1-1.3-10.7-0.6-15.9-1.9-2.6-0.6-5-2.1-7.4-2.1-1.7-1.6-4.1-2.8-6.1-3.6 0.3-0.4 0.3-1.2 0.6-1.7-0.8-0.3-1.6-0.5-2.4-0.7q7 0.2 13.9 0.1 0.2 0.1 0.5 0.2c4.4 1.5 8.5 3 13.3 3.6 7.9 1.1 28.3-1.6 30.9 6.2z"/><path class="p" d="m308.7 381.3c3.2 0.7 6.8 0.5 9.9 1.9-5.7 1.7-11.8 1.7-17.8 1.7-11.7 0-23.3 1.1-34.9 3-7.1 1.1-14.6 3.7-21.8 2.3-8.7-1.7-16 0.2-24.7 1.4-13.9 1.9-28.2 0-42.2 1.2-3.5 0.3-5.4 1.9-8.3 2.5-0.6 0.2-1.1 0.2-1.6 0.1q-1.4-5.2-2.4-10.5c7.5-0.3 14.8-1.6 22.3-2.4 4.9-0.4 9.8-0.3 14.8-0.8 5.9-0.6 11.2-0.9 17.2-0.1 3.1 0.3 6.4 0.9 9.5 1 5.2 0.2 10.4-1.8 15.6-2.1 6.7-0.4 13.4 0.8 20.2-0.2 6.1-0.9 12.2-1 18.4-0.8 2.7 0.1 5.3 0.7 7.9 0.7 3 0.1 5.9-1.1 8.9-1 3.1 0.2 6 1.5 9 2.1z"/><path class="g" d="m152.7 558.3c1.8-1.7 4.4-3.4 5.6-4.2 2.3-1.7 7.2-3.9 8.5-5.8-4.7-0.2-8.7-1-13.6-1.1 3-3.3 8.8-4.7 11.2-10-1.6-0.7-13 1.5-12.4-2.1 3-0.3 4-2.3 6-4.2 3-2.6 5.7-4.6 9.4-6-1.6-0.3-3.3-0.2-5-0.6-2.1-0.5-4.2-1.9-6.4-1.8 2.1-4.6 6-8.3 10.7-10.4-3.4 0.5-6.8-2.4-10.1-1.7 2.6-0.8 6.4-1.5 8.7-2.7 1.9-1 3.4-2.5 5.2-3.4 2.7-1.3 3.1-0.9 3.8-4.4v-0.3c0.4-0.1 0.6-0.1 0.8 0 0.5 0.3-0.1 1.6 0.9 2.3 1.1 0.8 2 0.8 3.2 1.2 1.8 0.7 2.8 1.3 4.3 2.5 1.3 1.2 4.7 3.5 4.7 5.4 0.4 0.2 0.5 0.1 0.9 0.4-2.2 0.9-5.1-0.3-7.7 0.1 3.2 4.7 8.9 8.8 12.5 13.4-3.3 1-8.1 1.5-11.4 1.4 5.5 2.6 10.1 7.7 13.7 11.8-2.6 1.4-7 0.6-10.1 0.7-0.1 0.4-0.2 0.6-0.4 1-1.5-0.3-2.9-0.8-4.5-1 2.7 1.4 9.7 4.6 10.7 7.7 0.7-0.2 1.7 0.1 2.4-0.2 0.6 2.7-9.6 3.1-12.1 3 0 0.1 0.1 0.3 0.1 0.4 1.9 1.2 4.8 1.6 6.1 3.4 1.4 2-0.3 4.1 3.1 4.7q-0.1 0.2-0.2 0.5c-0.2 1.3 0.6 2.3 0.8 3.4q0.5-0.5 1-1c1-1.2 0.9-1.3 1.3-2.3 0-0.2 0.2-0.6 0.4-1 0.2-0.5 1.2-0.5 1.3-0.9 0-0.3 0.1-1.9 0.2-2.1 0.2-0.7-1.1-1.1-0.2-2.2 0.5-0.7 2.4-0.2 3.1-0.6 1.2-0.7 0.8-2 2.8-2.5 1.2-0.3 3.3 1 4.4 1.7 3 2.2 3.1 5.4 7.1 2.5-1.6-3.2 2.1-2.4 2.2-4.7 0.1-0.9-3-1.2-1.6-2.8 0.5-0.6 2.9 0 3.7-0.2-0.5-1-1.2-2-2-2.7 3.5-1.4 6.2 2.5 8.1-1.4 1.1 1 2.1 2.1 3.1 3 4.9-2.8 7.7 11 11.8 10.3q-0.1 0.8 0 1.4c0.2 4.3 4.5 5.5 8.5 5.6 1.2-1.2 2.4-2.4 3.6-3.7-1.2-0.6-2.8-0.3-4.1-0.6-2.4-0.5-3.7-1.8-6.6-1.3 1.8-2.1 4.3-2.6 6.1-4.5 2.2-2.5 4.7-3.6 7.1-5.8-3.1 0-7.7-0.6-10.4-1.7 1.3-0.2 2.6-3.3 3.5-4.5 1.8-2.7 4.9-6.2 8.5-6.4q0.5 0.1 1 0.1-0.5-0.1-1-0.1c-3-0.2-5.9-1.4-9-1.3 1-1.8 3.2-3.3 4.5-5 3.7-4.9 9.3-2.8 11-9.7q0 0 0 0c3.2 2.1 6.1 7.8 8.5 9.7 1.6 1.3 4.4 1.9 3.7 4.7 1.4-0.6 2.6-0.2 3 1.3-3.2 0.5-6.2 0.6-9.4 0.8 2.7 1.4 5.1 3.5 6.1 6.6 1.6 0.6 4.3 4.5 5 6.1-2.7 0.9-5.8 0.5-8.4 1.5 1.2 1.2 2.7 2.2 3.7 3.6 0.7 1 1.1 3.2 1.7 3.8 1.2 1.5 3.6 1.8 4.9 3.7-2.7-0.1-6.1-0.5-8.6 0.6 0.3 0.8 0.7 1.4 1.2 1.8 1 0.8 2.1 1.1 3.4 1.3 0.8 0.2 1.6 0.4 2.4 0.7-0.3 0.5-0.3 1.3-0.6 1.7 2 0.8 4.4 2 6.1 3.6 2.4 0 4.8 1.5 7.4 2.1 5.2 1.3 10.8 0.6 15.9 1.9 3.7 0.9 8.2 3 10.1 6.1q-2.2 0.7-4.4 1.3c-11.5 2.7-24.1 1.4-35.5 3.9-7.1 1.5-13.6 5.4-21 5.1-3.8-0.1-7.4-2.1-11.3-1.4-2.5 0.4-3.6 2.4-5.9 2.8-6.1 1-12.6 0.2-19.1 1.3-3.1 0.5-6 1.8-9.3 2-4.3 0.2-11.5-2.7-15.6-0.1-6.2 4 3.9 10.2-6.1 12.9-4.2 1.2-8.4-1.5-12.4-0.9-3.3 0.4-6.5 3.5-9.8 4-4.3 0.8-4.5-0.6-8.6-1.6-6.4-1.5-13.2-0.4-19.6 0.5-7 1.1-13.5-0.2-20.5-0.6-11.5-0.6-21.1 3.4-32.1 5.3-1.9 0.3-8.8 0-9.9 0.8-2.4 1.6-0.2 3.6-1.7 5.3-1.4 1.7-1.9 1.4-3.6 2.9-2.2 1.9-4.5 1.7-6 4.4-1 1.8 0.5 5-0.6 6.4-3.2 4-22.4 5.8-31.7 6 0.4-6.4 1.5-13.1 1.8-19.4 1.3-24.4-2-49.2-1.8-73.4 1.9 1.4 2.5 1.3 2.8 5.2 0.3 0.1 0.6 0 0.9 0.1-2.2 3.3 3.9 9.6 7.2 10.1 2.4 0.4 4.4-1.2 7-1q0.2 0 0.4 0c1.1 0.2 1.4 1.4 2.7 1.3 0.9 0 2.2-1.3 3-1.6 0.6 2.6 2.9 3.6 5.4 3.3h0.7c0-1.9 0.1-3.7 0.7-5.1h-0.7c-0.9 0.1-2.1 0-3.4-0.3-0.6-0.2-1.6 0.2-2.2 0.1-0.8-0.1 0-1.6-1.4-1.7-1.9-0.2-3.2 2-5 2q-0.1 0-0.2 0c-0.9 0-0.4-1.5-1.1-1.6-2.6-0.4-5.1 1-7.6 0.2 3.1 0.1 4-2.4 5.5-4.5 2.5-3.5 6.5-7.2 10-9.9-1.4 0.9-5.2 0.8-7.3 0.8-0.1-0.5-0.8-1.4-0.8-1.9-0.7 0.5-2 0.5-2.7 0.9-0.3-4-6.5-0.5-8.8-0.3 1.8-3 4.6-4.1 7.7-6.1q0.4-0.2 0.8-0.5c4.8-2.9 8.8-5.8 12.4-10.1-2.3-0.4-3.8-1.7-6 0.1-0.5-0.9-1.1-0.7-1.6-1.3-0.8 1-1.6 1.9-2.5 2.6-0.1-0.4-0.8-1.2-1-1.8-1.9 0.2-4 0.1-5.8 1.1 3.7-6.2 10.4-12.1 15.2-17.6-0.1-0.2-0.3-0.5-0.3-0.9-1.2 1.5-2.6 2.4-3.7 0.5-1.6 1.3-3.1 1.2-3.1-0.8-3.3 0.4-4.3 0.1-4.2-0.6 0.2-1.2 3.7-3.3 5.6-5.2 4.7-4.5 7.8-11.4 13-15.4 1.7 2.4 4.2 5.1 6 7.3 1.6 2.2 1.7 4.2 5.3 4.1 0 0.8 0.4 2.4 1 3 0.7 0.6 2 0 2.7 0.6 0.7 0.4 0.5 1.2 1.1 1.7 1.1 0.8 1.6 1.9 3 2.4-2 1-8 2.2-10 1.5 1.2 0.9 2.4 1.6 3.8 2.6 2.3 1.8 3.5 4.2 5.9 5.9 2.9 2.1 5.5 2.6 6.4 6.2-0.9 0.1-2.2-0.6-2.9-0.4-0.1 0-2.3 0.7-2.3 0.8-2.8-0.3-4.6-3.4-5.9 0.7-0.4-0.4-1.7-0.9-2.1-1.3-0.2 0.1-0.8 0.7-1 0.9-2.8-0.5-0.5 1.1 0.4 1.8 2.1 1.5 4.8 0.9 6.7 3.1q0.5 0.5 1 1.2c0.7 1 1.4 2.1 2.1 2.9 2.6 3.2 5.1 7 7.7 10.3-3 0.2-6.3 0.8-8.8-1.1-0.1 0.5-0.8 1.5-0.9 2.2-1.4-0.5-2.9-1.1-4.4-1-0.2 0.2 0 0.6-0.1 0.9-0.5 0-1.3 0-1.9 0 2.5 1.2 5.3 1 7.6 2.3 1.3 0.8 3.1 2.5 4.3 3.5 1.9 1.6 5.8 3.5 5.7 6.1 0.6 0.2 0.9 0.4 1.2 0.6-1.9 0.2-4.1 0.1-6-0.2-0.7 3.5-3.9 1.2-5.7 0.5-1 3.4-2.8 0.5-4.6 0.3-1.8-0.2-3.8 3.2-5.6 0.1-0.1 0-0.2 4-0.2 7.8 3.2-1 6.5-2.1 9.6-2.7 2.8-0.6 5.6-0.7 8.5-1.3 1.8-0.4 3.7-1.4 5.4-1.7 1.1-0.2 3.2 0.5 3.8 0.3 3.4-1.2 3.5-5.4 3.7-8.5 1.6 1.1 2.5 2.8 4.3 3 2.9 0.3 4-1.9 4.8 2.1 1.9-0.3 3.5-1.6 5.4-1.6-0.1 0.5 0.1 1.1 0 1.6 0.5 0.2 0.9 0.4 1.3 0.7 3.1-2.3 7-4.5 9.4-7-1.7-0.9-3.2 0.3-4.7 0.2-0.8 0-3.4-0.6-5-0.7q0-0.3 0-0.6c-1.8-0.1-3.7 0.1-5.4-0.1 3.5-1.1 10.6-6.4 12.8-9.7-1.2-0.4-2.3-0.1-3.3 0.6-0.1-0.3-0.3-0.7-0.4-1-1.2 0.2-2.3 0.8-3.4 1.4-0.8-3-3.4-1-5.6-1 1.4-2.6 5-2.8 6.9-4.7 2.1-2.1 2.7-3.6 5.7-4.1-3.5 0.3-7.8-0.7-11.6-0.7 1.5-1.8 4-2.4 5.6-4.4 2.3-2.6 5-6.1 7.9-8.1 2 1.3 4.8 1.6 6.8 3 1.4 1.1 1.8 2.6 2.9 3.6 2 1.7 5 2.6 6.8 4.6-2.3 1-4.9 1-7.3 1.4 1.8 1.8 4.6 2.8 6.2 4.6 1.2 1.3 1.4 2.8 2.7 4.1-2.2 0.8-6.7 1.5-9.3 1.8 2.7 1.6 4.8 3.5 6.7 5.6 1.1 1.3 1.7 2.7 3.6 2.8 0.2 0.4 0.2 0.9 0.3 1.2-3.1 0.9-5.7 1.2-8.6 2.2 1 2 6.1 4.3 8.3 5.1-0.7 0.4-3.2 1.7-4.7 2.9-0.7 0.6-1.2 1.2-1.2 1.6 0 0.7 3.2 2.6 3.7 2.8 3.9 1.1 7.5 1.2 10.6-0.8q-0.3-0.3-0.6-0.8c-2-0.3-4.1 0.3-6-0.4 0.2-0.9 1-1.9 2.1-2.8z"/><path class="e" d="m327.5 180.6c-13.1 4.6-28.4 5-42.1 7.3-15.4 2.7-31.5 6.6-47.2 5.2-17.6-1.5-34.2 1.7-51.7 4.5-13.1 2.2-25.5 1.4-38.8 1.3-15.1 0-31.4 0.3-46.5-1.2-6.1-0.7-17.8-1.2-16.2-1.5 5.6-4.9 18.1-6.8 25.4-6.3 5.9 0.4 11.1 2.3 17.2 1.8 6.2-0.4 11.8-2.7 17.9-3.9 9.4-1.9 18.9-0.9 28.4-0.5 11 0.4 21.5-2.1 32.4-2.6 40.6-1.6 80.7-2 121.2-4.1z"/><path class="f" d="m278.3 82c3.5-0.1 8.7-1.1 11.7 0.6-4 2.5-11.3 1.9-16 2.4-11.4 1.1-22.4 4.4-33.8 5.5-7.2 0.8-11.7-0.5-18.6-2.1-7.2-1.8-13.9-0.3-21.1-0.8-5.8-0.3-11.5-1.9-17.5-1.9-7.1-0.1-14.2-0.4-21.2-0.4-8.1 0-16.4 0.9-19.7 0.7 1-3.7 14.4-5.1 17.4-5.6 7.4-1.5 13.9 0.8 21.3 0.5 7-0.3 14.1-3.3 21-3.1 4.7 0.2 9.4 1.4 14.1 1.8 14.4 1.1 29 1.7 43.4 1.7 6.4 0 12.7 0.7 19 0.7z"/><path class="f" d="m286.9 602.7c-2.5 0.2-6.1 3-9.9 3.6-6 0.8-14.2-2.7-19.9-4.1 4.9-0.4 9.2 0.5 14.1 0.5 5.3 0.1 10.5-2.9 15.7 0z"/><path class="k" d="m269.8 487.7c-9.5 1.3-19 2.4-28.4 4.4-5.5 1.2-8.8 1.9-13.7 4.5-3.1 1.6-5.3 0.8-8.7 1.2-3 0.3-3.7 1.1-6.4-0.7-2.7-1.7-1.4-2.4-2.8-4.6-1.3-2.1-4.4-3.7-4.1-4.8 3.5 0.2 7-1 10.4-1.4 4-0.3 7.2 1.3 10.9 1.1 5.8-0.3 8.1-3.9 14-2.6 9.4 2.1 19.7 0.5 28.8 2.9z"/><path class="j" d="m250.9 558.1c-1.2 1.3-2.4 2.5-3.6 3.7-4-0.1-8.3-1.3-8.5-5.6h1.4c2.9-0.5 4.2 0.8 6.6 1.3 1.3 0.3 2.9 0 4.1 0.6z"/><path class="p" d="m257.2 345.1c-5.6 4.4-20.6 4.8-27.5 4.7-10.1-0.2-20.2-0.2-30.5-0.2-12 0-23.5 1.7-35.4 1.4q0.7-7.3 2.3-14.2c1.2 0.7 2.5 1.4 4.4 1.5 7.5 0.6 11.3-2.5 18.8 0 22.7 7.4 44.8 0.8 67.9 6.8z"/><path fill-rule="evenodd" class="e" d="m70.6 385.7c3.1 0.1 6 0.3 9.2 0.6 7 0.6 13.4-1 20.2-0.7 1 0 3.9 1.9 5.7 2.1 5.4 0.6 11.7-1.5 17.1-2.3 13.7-2 26.9-0.2 40.6-0.5q0.8 0 1.5 0 1 5.3 2.4 10.5c6.3 23.5 19.5 44.2 37.4 59.8q-0.6 0.1-1.4 0.1c-17.3-0.4-34.2 8.4-51.2 9.4 7.3 0.2 14.7-1 21.9-1.5 6.4-0.4 14.1-2.6 20.5-1.8 1.7 0.3 4 2 5.5 2 4 0.1 8.1-1.2 12.3-2.1q6.7 5 14 8.9c-10 3.7-20.1 6.9-29 12.8-7.9 5.3-15.2 10.3-23.1 14.5-4.4-0.9-8.6-2.4-12.6-2.7-6.3-0.5-12.8 0.2-19.1-0.8-10.5-1.8-15.2-5-22.2-13.1-6.7-7.7-9.7-8.3-18.6-11.7-6-2.3-11-2.7-17.5-4.4-8-2.2-11.6-8.6-17.7-13.7-2.3-1.9-6.6-4.3-11-6.8 3.4-0.1 8.7-0.4 11.2-0.5 7.4-0.5 14.2-2.9 21.7-2.7 13.6 0.2 27 1 40.6 0 14.1-1.1 28.6-10.3 42.4-9.5-16.8-2-34.3-6.6-51.6-6.1-6 0.2-12 1.8-18 1.4-5.7-0.4-9.5-3.7-14.8-2.7-8.5 1.5-9.9 5.2-18.9 3.2-7.8-1.8-14.7-1.7-22.8-1.3q0-0.5 0-1c-1.3-14.5-1.2-28.1-10.3-37.8-5.3-5.7-10.3-4.5-13.8-12.3-1.4-3-1.9-7.3-2-12 3.3 0.1 6.5 0.4 9.5 0.1 8.2-0.7 15.7-3.2 23.9-1.9 14.7 2.4 29.2 1.9 44.2 1.3 12.6-0.6 33.9-5.4 45 1.5-4.3 1.3-3.4 4.8-5.8 6.4-5.1 3.4-12.7 1.2-18.4 4.1-7.3 3.5-11.2 7.4-20.2 8.3-8.6 0.9-18 2.9-26.8 2.9zm-0.1 0q-1.1-0.1-2.3-0.1 1.2 0.1 2.3 0.1z"/><path class="n" d="m204.7 455.2q3.7 3.2 7.6 6.1c-4.2 0.9-8.3 2.2-12.3 2.1-1.5 0-3.8-1.7-5.5-2-6.4-0.8-14.1 1.4-20.5 1.8-7.2 0.5-14.6 1.7-21.9 1.5 17-1 33.9-9.8 51.2-9.4q0.8 0 1.4-0.1z"/><path class="j" d="m193.5 558.4q0.4 0 0.9 0c-0.4 1-0.3 1.1-1.3 2.3q-0.5 0.5-1 1c-0.2-1.1-1-2.1-0.8-3.4q1.1 0 2.2 0.1z"/><path class="i" d="m165.6 274.6c8.3 4.1 15.8 10.5 22.4 15.6-10.4 13.6-18 29.4-21.9 46.6-1.4-1-2.7-2.1-4.5-2.8-4.2-1.6-12.8-1.5-15 3.4 4.8-11.6-11.1-13.3-14.9-1.4-0.9-5.6-3.2-10.5-9-11.9-4.1-1.1-10 0.2-11.3 4.2-1.2-21.7-41-17.7-40.3 1q-0.5-0.3-1-0.6c-3.6-1.7-9.6-0.5-13.6-0.1-10.5 1.3-13.4 4.8-12.8 15-2.8-0.7-7.2-2.2-10-2-5.5 0.3-8.6 5.3-12.6 7h-1.1c0.6-5.9 1.2-11.4 1.2-15.4 0-6.3-0.4-13-0.5-19.5 7.5-12.3 29.8-23.5 35.9-6.5-2.7-18.9 22.2-26.5 27-7.8-2.7-10.3 27.9-26.5 35-28.8 15.8-5 32-3.3 47 4z"/><path class="j" d="m129.7 515.8c-2.9 2-5.6 5.5-7.9 8.1-1.6 2-4.1 2.6-5.6 4.4 3.8 0 8.1 1 11.6 0.7-3 0.5-3.6 2-5.7 4.1-1.9 1.9-5.5 2.1-6.9 4.7 2.2 0 4.8-2 5.6 1 1.1-0.6 2.2-1.2 3.4-1.4 0.1 0.3 0.3 0.7 0.4 1 1-0.7 2.1-1 3.3-0.6-2.2 3.3-9.3 8.6-12.8 9.7 1.7 0.2 3.6 0 5.4 0.1q0 0.3 0 0.6c1.6 0.1 4.2 0.7 5 0.7 1.5 0.1 3-1.1 4.7-0.2-2.4 2.5-6.3 4.7-9.4 7-0.4-0.3-0.8-0.5-1.3-0.7 0.1-0.5-0.1-1.1 0-1.6-1.9 0-3.5 1.3-5.4 1.6-0.8-4-1.9-1.8-4.8-2.1-1.8-0.2-2.7-1.9-4.3-3-0.2 3.1-0.3 7.3-3.7 8.5-0.6 0.2-2.7-0.5-3.8-0.3-1.7 0.3-3.6 1.3-5.4 1.7-2.9 0.6-5.7 0.7-8.5 1.3-3.1 0.6-6.4 1.7-9.6 2.7 0-3.8 0.1-7.8 0.2-7.8 1.8 3.1 3.8-0.3 5.6-0.1 1.8 0.2 3.6 3.1 4.6-0.3 1.8 0.7 5 3 5.7-0.5 1.9 0.3 4.1 0.4 6 0.2-0.3-0.2-0.6-0.4-1.2-0.6 0.1-2.6-3.8-4.5-5.7-6.1-1.2-1-3-2.7-4.3-3.5-2.3-1.3-5.1-1.1-7.6-2.3 0.6 0 1.4 0 1.9 0 0.1-0.3-0.1-0.7 0.1-0.9 1.5-0.1 3 0.5 4.4 1 0.1-0.7 0.8-1.7 0.9-2.2 2.5 1.9 5.8 1.3 8.8 1.1-2.6-3.3-5.1-7.1-7.7-10.3-0.7-0.8-1.4-1.9-2.1-2.9 0.8 0 1.5 0 1.9 0 7.1-0.7 14.1-1.6 20.9-3.8 9.1-3 14.8-8.8 23.3-13.3q1.5-0.8 3-1.4c6.8-2.7 14.1-3.1 21.2-4.9 7.5-1.8 14.1-4.5 20.3-7.7q0.6 0.1 1.2 0.2l-0.3 1.9c-0.2-0.1-0.4-0.1-0.8 0v0.3c-0.7 3.5-1.1 3.1-3.8 4.4-1.8 0.9-3.3 2.4-5.2 3.4-2.3 1.2-6.1 1.9-8.7 2.7 3.3-0.7 6.7 2.2 10.1 1.7-4.7 2.1-8.6 5.8-10.7 10.4 2.2-0.1 4.3 1.3 6.4 1.8 1.7 0.4 3.4 0.3 5 0.6-3.7 1.4-6.4 3.4-9.4 6-2 1.9-3 3.9-6 4.2-0.6 3.6 10.8 1.4 12.4 2.1-2.4 5.3-8.2 6.7-11.2 10 4.9 0.1 8.9 0.9 13.6 1.1-1.3 1.9-6.2 4.1-8.5 5.8-1.2 0.8-3.8 2.5-5.6 4.2q-4.3 0.1-8.6 0.4c1.5-1.2 4-2.5 4.7-2.9-2.2-0.8-7.3-3.1-8.3-5.1 2.9-1 5.5-1.3 8.6-2.2-0.1-0.3-0.1-0.8-0.3-1.2-1.9-0.1-2.5-1.5-3.6-2.8-1.9-2.1-4-4-6.7-5.6 2.6-0.3 7.1-1 9.3-1.8-1.3-1.3-1.5-2.8-2.7-4.1-1.6-1.8-4.4-2.8-6.2-4.6 2.4-0.4 5-0.4 7.3-1.4-1.8-2-4.8-2.9-6.8-4.6-1.1-1-1.5-2.5-2.9-3.6-2-1.4-4.8-1.7-6.8-3z"/><path class="l" d="m55.5 444.3c4.4 2.5 8.7 4.9 11 6.8 6.1 5.1 9.7 11.5 17.7 13.7 6.5 1.7 11.5 2.1 17.5 4.4 8.9 3.4 11.9 4 18.6 11.7 7 8.1 11.7 11.3 22.2 13.1 6.3 1 12.8 0.3 19.1 0.8 4 0.3 8.2 1.8 12.6 2.7-6.2 3.2-12.8 5.9-20.3 7.7-7.1 1.8-14.4 2.2-21.2 4.9-1.5-1-3.1-1.9-4.6-2.7-2.4-1.2-4.4 0.4-6.1-2.6 1.8-1.9 2.8-4.7 2.6-7.3-0.6-7.4-5.8-7.8-12-9.3-3.1-0.8-6.3-0.6-9.4-1.4-1.9-0.5-2.7-2-4.9-2.5-4-0.9-8.5 1.2-12.6 0-6-1.7-7.9-4.1-14.9-3.6-4.9 0.3-12.3 2.3-16.7-0.2 2.3-2.1 6.9-4.3 9.8-5.6 3.9-1.8 9.6-1.3 12-5.1-1.7-1.6-2.9-0.3-5-1.1-3.2-1.2-4.1-2.8-8.2-3 0.8-4.5-3.3-8.1-7.5-8.6-0.2-5.6-4.2-8.5-8.8-11.1h-0.1q-0.1-3.9-0.2-7.7c2.7 2.1 6.1 4.1 9.4 6z"/><path class="n" d="m171.4 431.6c-13.8-0.8-28.3 8.4-42.4 9.5-13.6 1-27 0.2-40.6 0-7.5-0.2-14.3 2.2-21.7 2.7-2.5 0.1-7.8 0.4-11.2 0.5-3.3-1.9-6.7-3.9-9.4-6q-0.3-6.1-0.8-12.2c8.1-0.4 15-0.5 22.8 1.3 9 2 10.4-1.7 18.9-3.2 5.3-1 9.1 2.3 14.8 2.7 6 0.4 12-1.2 18-1.4 17.3-0.5 34.8 4.1 51.6 6.1z"/><path fill-rule="evenodd" class="m" d="m111.4 328.3c1.3-4 7.2-5.3 11.3-4.2 5.8 1.4 8.1 6.3 9 11.9 3.8-11.9 19.7-10.2 14.9 1.4 2.2-4.9 10.8-5 15-3.4 1.8 0.7 3.1 1.8 4.5 2.8q-1.6 6.9-2.3 14.2c-2.9-0.1-5.8-0.3-8.8-0.6-14.2-1.9-30 2.3-44.3 2.8-7.8 0.3-16.7-0.7-24.4-2.2-8.5-1.7-17.4-0.9-26.2-0.5-9.5 0.5-19.1 4.2-28.6 2.7-3.8-0.6-6.9-4-10.4-4.6 4-1.7 7.1-6.7 12.6-7 2.8-0.2 7.2 1.3 10 2-0.6-10.2 2.3-13.7 12.8-15 4-0.4 10-1.6 13.6 0.1q0.5 0.3 1 0.6 0.1 2.3 1 4.9c1.7-1.4 0.7-3.6-1-4.9-0.7-18.7 39.1-22.7 40.3-1zm0 0q-0.4 1.3 0 3 0.1-1.6 0-3z"/><path class="i" d="m164.9 384.9q-0.7 0-1.5 0c-13.7 0.3-26.9-1.5-40.6 0.5-5.4 0.8-11.7 2.9-17.1 2.3-1.8-0.2-4.7-2.1-5.7-2.1-6.8-0.3-13.2 1.3-20.2 0.7-3.2-0.3-6.1-0.5-9.2-0.6 8.8 0 18.2-2 26.8-2.9 9-0.9 12.9-4.8 20.2-8.3 5.7-2.9 13.3-0.7 18.4-4.1 2.4-1.6 1.5-5.1 5.8-6.4-11.1-6.9-32.4-2.1-45-1.5-15 0.6-29.5 1.1-44.2-1.3-8.2-1.3-15.7 1.2-23.9 1.9-3 0.3-6.2 0-9.5-0.1 0-4.6 0.4-9.6 0.8-14.4h1.1c3.5 0.6 6.6 4 10.4 4.6 9.5 1.5 19.1-2.2 28.6-2.7 8.8-0.4 17.7-1.2 26.2 0.5 7.7 1.5 16.6 2.5 24.4 2.2 14.3-0.5 30.1-4.7 44.3-2.8 3 0.3 5.9 0.5 8.8 0.6q-0.7 6.3-0.7 12.8c0 7.2 0.6 14.2 1.8 21.1z"/><path class="j" d="m156.6 561.5q0.3 0.5 0.6 0.8c-3.1 2-6.7 1.9-10.6 0.8-0.5-0.2-3.7-2.1-3.7-2.8 0-0.4 0.5-1 1.2-1.6q4.3-0.3 8.6-0.4c-1.1 0.9-1.9 1.9-2.1 2.8 1.9 0.7 4 0.1 6 0.4z"/><path class="b" d="m64.5 486.5c-5.2 4-8.3 10.9-13 15.4-1.9 1.9-5.4 4-5.6 5.2l-0.6-0.1q0.2-2.1 0.2-4.5c0.1-18.6 1.1-37.7 0.8-56.5h0.1c4.6 2.6 8.6 5.5 8.8 11.1 4.2 0.5 8.3 4.1 7.5 8.6 4.1 0.2 5 1.8 8.2 3 2.1 0.8 3.3-0.5 5 1.1-2.4 3.8-8.1 3.3-12 5.1-2.9 1.3-7.5 3.5-9.8 5.6 4.4 2.5 11.8 0.5 16.7 0.2 7-0.5 8.9 1.9 14.9 3.6 4.1 1.2 8.6-0.9 12.6 0 2.2 0.5 3 2 4.9 2.5 3.1 0.8 6.3 0.6 9.4 1.4 6.2 1.5 11.4 1.9 12 9.3 0.2 2.6-0.8 5.4-2.6 7.3 1.7 3 3.7 1.4 6.1 2.6 1.5 0.8 3.1 1.7 4.6 2.7q-1.5 0.6-3 1.4c-8.5 4.5-14.2 10.3-23.3 13.3-6.8 2.2-13.8 3.1-20.9 3.8-0.4 0-1.1 0-1.9 0q-0.5-0.7-1-1.2c-1.9-2.2-4.6-1.6-6.7-3.1-0.9-0.7-3.2-2.3-0.4-1.8 0.2-0.2 0.8-0.8 1-0.9 0.4 0.4 1.7 0.9 2.1 1.3 1.3-4.1 3.1-1 5.9-0.7 0-0.1 2.2-0.8 2.3-0.8 0.7-0.2 2 0.5 2.9 0.4-0.9-3.6-3.5-4.1-6.4-6.2-2.4-1.7-3.6-4.1-5.9-5.9-1.4-1-2.6-1.7-3.8-2.6 2 0.7 8-0.5 10-1.5-1.4-0.5-1.9-1.6-3-2.4-0.6-0.5-0.4-1.3-1.1-1.7-0.7-0.6-2 0-2.7-0.6-0.6-0.6-1-2.2-1-3-3.6 0.1-3.7-1.9-5.3-4.1-1.8-2.2-4.3-4.9-6-7.3z"/><path class="q" d="m71.1 329.3c1.7 1.3 2.7 3.5 1 4.9q-0.9-2.6-1-4.9z"/><path class="j" d="m63 558.7h0.7c-0.6 1.4-0.7 3.2-0.7 5.1h-0.7c-2.5 0.3-4.8-0.7-5.4-3.3l0.5-2c0.6 0.1 1.6-0.3 2.2-0.1 1.3 0.3 2.5 0.4 3.4 0.3z"/><path class="j" d="m57.4 558.5l-0.5 2c-0.8 0.3-2.1 1.6-3 1.6-1.3 0.1-1.6-1.1-2.7-1.3q-0.2 0-0.4 0l0.2-2c1.8 0 3.1-2.2 5-2 1.4 0.1 0.6 1.6 1.4 1.7z"/><path class="b" d="m56.9 508c0 0.4 0.2 0.7 0.3 0.9-4.8 5.5-11.5 11.4-15.2 17.6 1.8-1 3.9-0.9 5.8-1.1 0.2 0.6 0.9 1.4 1 1.8 0.9-0.7 1.7-1.6 2.5-2.6 0.5 0.6 1.1 0.4 1.6 1.3 2.2-1.8 3.7-0.5 6-0.1-3.6 4.3-7.6 7.2-12.4 10.1-4.5 1.8-8.9 3.6-13.5 4.8 0.7-15.3 10.6-18.5 12.3-33.7l0.6 0.1c-0.1 0.7 0.9 1 4.2 0.6 0 2 1.5 2.1 3.1 0.8 1.1 1.9 2.5 1 3.7-0.5z"/><path class="j" d="m50.3 543.8c2.1 0 5.9 0.1 7.3-0.8-3.5 2.7-7.5 6.4-10 9.9-1.5 2.1-2.4 4.6-5.5 4.5 2.5 0.8 5-0.6 7.6-0.2 0.7 0.1 0.2 1.6 1.1 1.6q0.1 0 0.2 0l-0.2 2c-2.6-0.2-4.6 1.4-7 1-3.3-0.5-9.4-6.8-7.2-10.1-0.3-0.1-0.6 0-0.9-0.1-0.3-3.9-0.9-3.8-2.8-5.2q0-2.4 0-4.8 0-0.5 0.1-0.9c4.6-1.2 9-3 13.5-4.8q-0.4 0.3-0.8 0.5c-3.1 2-5.9 3.1-7.7 6.1 2.3-0.2 8.5-3.7 8.8 0.3 0.7-0.4 2-0.4 2.7-0.9 0 0.5 0.7 1.4 0.8 1.9z"/><g style="display:none"><path fill-rule="evenodd" class="a" d="m288.5 714.6v-0.3q-0.5 0.6-1 1-0.5 0.4-1.1 0.6-0.6 0.2-1.3 0.2-1 0-1.8-0.4-0.8-0.4-1.3-1.1-0.6-0.8-0.9-1.8-0.3-1-0.3-2.1 0-2.4 1.2-3.8 1.2-1.3 3.1-1.3 1.1 0 1.9 0.3 0.8 0.4 1.5 1.2v-3.8q0-0.8 0.3-1.2 0.3-0.4 0.9-0.4 0.6 0 0.9 0.4 0.3 0.3 0.3 1.1v11.4q0 0.7-0.3 1.1-0.3 0.4-0.9 0.4-0.5 0-0.9-0.4-0.3-0.4-0.3-1.1zm-5.1-3.8q0 1 0.3 1.8 0.3 0.7 0.9 1.1 0.6 0.4 1.3 0.4 0.6 0 1.2-0.4 0.6-0.3 0.9-1.1 0.3-0.7 0.3-1.8 0-1.1-0.3-1.8-0.3-0.7-0.9-1.1-0.6-0.4-1.3-0.4-0.7 0-1.2 0.4-0.6 0.4-0.9 1.1-0.3 0.8-0.3 1.8z"/><path fill-rule="evenodd" class="a" d="m299.9 711.4h-5q0 0.9 0.3 1.6 0.4 0.7 0.9 1 0.6 0.4 1.3 0.4 0.5 0 0.9-0.2 0.3-0.1 0.7-0.3 0.4-0.2 0.7-0.5 0.3-0.3 0.7-0.7 0.2-0.2 0.6-0.2 0.4 0 0.7 0.2 0.2 0.3 0.2 0.7 0 0.3-0.3 0.8-0.2 0.4-0.8 0.9-0.6 0.4-1.4 0.7-0.8 0.3-1.9 0.3-2.5 0-3.9-1.4-1.4-1.5-1.4-3.9 0-1.2 0.3-2.1 0.4-1 1-1.7 0.7-0.7 1.7-1.1 0.9-0.4 2.1-0.4 1.5 0 2.6 0.7 1.1 0.6 1.6 1.6 0.6 1 0.6 2.1 0 1-0.6 1.3-0.6 0.2-1.6 0.2zm-5-1.4h4.7q-0.1-1.4-0.8-2-0.6-0.7-1.6-0.7-1 0-1.6 0.7-0.6 0.7-0.7 2z"/><path class="a" d="m311.7 712.7q0 1.1-0.5 1.8-0.5 0.8-1.5 1.2-1 0.4-2.5 0.4-1.4 0-2.4-0.5-1-0.4-1.5-1-0.4-0.7-0.4-1.3 0-0.4 0.3-0.7 0.3-0.3 0.7-0.3 0.4 0 0.7 0.2 0.2 0.2 0.4 0.5 0.4 0.7 0.9 1.1 0.6 0.3 1.5 0.3 0.8 0 1.3-0.4 0.5-0.3 0.5-0.7 0-0.7-0.5-1-0.5-0.4-1.7-0.6-1.3-0.4-2.2-0.7-0.8-0.4-1.3-1-0.5-0.6-0.5-1.5 0-0.8 0.4-1.4 0.5-0.7 1.4-1.2 0.9-0.4 2.2-0.4 1 0 1.8 0.2 0.8 0.2 1.3 0.6 0.6 0.4 0.9 0.8 0.2 0.4 0.2 0.8 0 0.5-0.3 0.7-0.3 0.3-0.8 0.3-0.4 0-0.7-0.2-0.3-0.2-0.6-0.7-0.3-0.4-0.7-0.6-0.4-0.2-1.1-0.2-0.7 0-1.2 0.3-0.4 0.3-0.4 0.7 0 0.4 0.3 0.7 0.3 0.3 0.9 0.4 0.6 0.2 1.6 0.4 1.2 0.3 2 0.8 0.8 0.4 1.1 0.9 0.4 0.6 0.4 1.3z"/><path class="a" d="m314.4 704.3q-0.6 0-0.9-0.3-0.4-0.3-0.4-0.9 0-0.6 0.4-1 0.4-0.3 0.9-0.3 0.5 0 0.9 0.3 0.4 0.3 0.4 1 0 0.6-0.4 0.9-0.4 0.3-0.9 0.3zm1.3 2.7v7.5q0 0.8-0.4 1.2-0.4 0.4-0.9 0.4-0.6 0-1-0.4-0.3-0.4-0.3-1.2v-7.4q0-0.8 0.3-1.2 0.4-0.4 1-0.4 0.5 0 0.9 0.4 0.4 0.4 0.4 1.1z"/><path fill-rule="evenodd" class="a" d="m327 707.4v7.6q0 1.3-0.2 2.2-0.3 0.9-0.9 1.5-0.6 0.6-1.6 0.9-1 0.3-2.5 0.3-1.3 0-2.4-0.4-1-0.3-1.6-0.9-0.6-0.6-0.6-1.2 0-0.5 0.4-0.8 0.3-0.3 0.7-0.3 0.6 0 1 0.5 0.3 0.2 0.5 0.5 0.2 0.3 0.5 0.5 0.2 0.1 0.6 0.2 0.4 0.1 0.9 0.1 1 0 1.6-0.3 0.5-0.2 0.7-0.7 0.3-0.5 0.3-1.1 0-0.6 0.1-1.9-0.6 0.9-1.4 1.3-0.8 0.4-1.9 0.4-1.3 0-2.3-0.6-0.9-0.7-1.5-1.9-0.5-1.2-0.5-2.8 0-1.1 0.3-2.1 0.4-0.9 0.9-1.5 0.6-0.7 1.4-1 0.8-0.3 1.7-0.3 1.1 0 1.9 0.4 0.8 0.4 1.5 1.3v-0.4q0-0.6 0.3-1 0.4-0.4 0.9-0.4 0.7 0 1 0.5 0.2 0.5 0.2 1.4zm-7.5 3.3q0 1.6 0.7 2.4 0.7 0.8 1.8 0.8 0.6 0 1.2-0.3 0.6-0.4 0.9-1.1 0.4-0.7 0.4-1.7 0-1.6-0.7-2.4-0.7-0.9-1.8-0.9-1.1 0-1.8 0.8-0.7 0.9-0.7 2.4z"/><path class="a" d="m331.2 707v0.3q0.6-0.9 1.4-1.3 0.9-0.5 1.9-0.5 1 0 1.8 0.5 0.9 0.4 1.3 1.2 0.2 0.5 0.3 1.1 0.1 0.5 0.1 1.4v4.8q0 0.8-0.4 1.2-0.4 0.4-0.9 0.4-0.6 0-1-0.4-0.3-0.4-0.3-1.2v-4.3q0-1.3-0.4-2-0.3-0.7-1.4-0.7-0.7 0-1.3 0.4-0.5 0.5-0.8 1.2-0.2 0.6-0.2 2.2v3.2q0 0.8-0.4 1.2-0.3 0.4-0.9 0.4-0.6 0-0.9-0.4-0.4-0.4-0.4-1.2v-7.5q0-0.7 0.3-1.1 0.4-0.4 0.9-0.4 0.4 0 0.6 0.2 0.3 0.2 0.5 0.5 0.2 0.3 0.2 0.8z"/><path fill-rule="evenodd" class="a" d="m346.9 711.4h-5q0 0.9 0.3 1.6 0.4 0.7 0.9 1 0.6 0.4 1.3 0.4 0.5 0 0.9-0.2 0.3-0.1 0.7-0.3 0.4-0.2 0.7-0.5 0.3-0.3 0.7-0.7 0.2-0.2 0.6-0.2 0.4 0 0.7 0.2 0.2 0.3 0.2 0.7 0 0.3-0.3 0.8-0.2 0.4-0.8 0.9-0.6 0.4-1.4 0.7-0.8 0.3-1.9 0.3-2.5 0-3.9-1.4-1.4-1.5-1.4-3.9 0-1.2 0.3-2.1 0.4-1 1-1.7 0.7-0.7 1.7-1.1 0.9-0.4 2.1-0.4 1.5 0 2.6 0.7 1.1 0.6 1.6 1.6 0.6 1 0.6 2.1 0 1-0.6 1.3-0.6 0.2-1.6 0.2zm-5-1.4h4.7q-0.1-1.4-0.8-2-0.6-0.7-1.6-0.7-1 0-1.6 0.7-0.6 0.7-0.7 2z"/><path fill-rule="evenodd" class="a" d="m357.5 714.6v-0.3q-0.5 0.6-1 1-0.5 0.4-1.1 0.6-0.6 0.2-1.3 0.2-1 0-1.8-0.4-0.7-0.4-1.3-1.1-0.6-0.8-0.9-1.8-0.3-1-0.3-2.1 0-2.4 1.2-3.8 1.2-1.3 3.1-1.3 1.1 0 1.9 0.3 0.8 0.4 1.5 1.2v-3.8q0-0.8 0.3-1.2 0.3-0.4 0.9-0.4 0.6 0 0.9 0.4 0.3 0.3 0.3 1.1v11.4q0 0.7-0.3 1.1-0.3 0.4-0.9 0.4-0.5 0-0.9-0.4-0.3-0.4-0.3-1.1zm-5.1-3.8q0 1 0.3 1.8 0.4 0.7 0.9 1.1 0.6 0.4 1.3 0.4 0.7 0 1.2-0.4 0.6-0.3 0.9-1.1 0.4-0.7 0.4-1.8 0-1.1-0.4-1.8-0.3-0.7-0.9-1.1-0.6-0.4-1.3-0.4-0.7 0-1.2 0.4-0.6 0.4-0.9 1.1-0.3 0.8-0.3 1.8z"/><path fill-rule="evenodd" class="a" d="m368.1 703.2v3.9q0.7-0.7 1.5-1.1 0.7-0.4 1.9-0.4 1.3 0 2.2 0.6 1 0.6 1.5 1.7 0.6 1.2 0.6 2.8 0 1.2-0.3 2.2-0.3 0.9-0.9 1.7-0.6 0.7-1.4 1.1-0.8 0.4-1.8 0.4-0.6 0-1.1-0.2-0.5-0.1-0.9-0.3-0.4-0.3-0.6-0.5-0.3-0.3-0.7-0.8v0.3q0 0.7-0.4 1.1-0.3 0.4-0.8 0.4-0.6 0-0.9-0.4-0.4-0.4-0.4-1.1v-11.3q0-0.8 0.4-1.2 0.3-0.4 0.9-0.4 0.5 0 0.9 0.4 0.3 0.3 0.3 1.1zm0.1 7.7q0 1.5 0.7 2.3 0.7 0.9 1.9 0.9 1 0 1.7-0.9 0.7-0.8 0.7-2.4 0-1-0.3-1.8-0.3-0.7-0.9-1.1-0.5-0.4-1.2-0.4-0.8 0-1.3 0.4-0.6 0.4-1 1.1-0.3 0.8-0.3 1.9z"/><path class="a" d="m379.1 716.4l0.3-0.6-3.2-8q-0.3-0.7-0.3-1 0-0.4 0.2-0.6 0.1-0.3 0.4-0.5 0.3-0.2 0.7-0.2 0.5 0 0.8 0.4 0.3 0.3 0.5 1l2.2 6.4 2.1-5.9q0.2-0.8 0.4-1.2 0.2-0.4 0.4-0.5 0.3-0.2 0.7-0.2 0.3 0 0.5 0.2 0.3 0.1 0.5 0.4 0.1 0.3 0.1 0.6 0 0.2-0.1 0.5-0.1 0.3-0.2 0.7l-3.4 8.8q-0.4 1.2-0.9 1.8-0.4 0.7-1.1 1.1-0.7 0.3-1.8 0.3-1.2 0-1.7-0.2-0.6-0.3-0.6-0.9 0-0.5 0.3-0.7 0.2-0.3 0.8-0.3 0.2 0 0.4 0.1 0.2 0.1 0.4 0.1 0.5 0 0.7-0.2 0.3-0.1 0.5-0.4 0.2-0.4 0.4-1z"/><path class="a" d="m416.7 705.8h0.6v-0.8q0-1.2 0.3-2 0.3-0.7 1.1-1 0.7-0.3 2-0.3 2.3 0 2.3 1.1 0 0.3-0.3 0.6-0.2 0.3-0.5 0.3-0.2 0-0.6-0.1-0.3-0.1-0.6-0.1-0.7 0-0.9 0.5-0.2 0.4-0.2 1.1v0.7h0.6q1.5 0 1.5 0.9 0 0.6-0.4 0.8-0.4 0.1-1.1 0.1h-0.6v6.9q0 0.8-0.4 1.2-0.3 0.4-0.9 0.4-0.5 0-0.9-0.4-0.4-0.4-0.4-1.2v-6.9h-0.7q-0.6 0-0.9-0.2-0.3-0.3-0.3-0.7 0-0.9 1.3-0.9z"/><path class="a" d="m425.2 712.3v2.2q0 0.8-0.4 1.2-0.4 0.4-0.9 0.4-0.6 0-0.9-0.4-0.4-0.4-0.4-1.2v-7.2q0-1.8 1.3-1.8 0.6 0 0.9 0.4 0.3 0.4 0.3 1.2 0.5-0.8 1-1.2 0.4-0.4 1.3-0.4 0.8 0 1.5 0.4 0.8 0.4 0.8 1.1 0 0.5-0.3 0.8-0.3 0.3-0.7 0.3-0.2 0-0.7-0.2-0.6-0.1-1-0.1-0.5 0-0.9 0.3-0.4 0.3-0.6 0.8-0.2 0.6-0.2 1.5-0.1 0.8-0.1 1.9z"/><path fill-rule="evenodd" class="a" d="m437.1 711.4h-5.1q0.1 0.9 0.4 1.6 0.3 0.7 0.9 1 0.6 0.4 1.3 0.4 0.5 0 0.8-0.2 0.4-0.1 0.8-0.3 0.3-0.2 0.6-0.5 0.4-0.3 0.8-0.7 0.2-0.2 0.6-0.2 0.4 0 0.7 0.2 0.2 0.2 0.2 0.6 0 0.4-0.3 0.9-0.2 0.4-0.8 0.9-0.6 0.4-1.4 0.7-0.8 0.3-1.9 0.3-2.5 0-3.9-1.4-1.4-1.5-1.4-3.9 0-1.2 0.3-2.2 0.4-0.9 1-1.6 0.7-0.7 1.6-1.1 1-0.4 2.2-0.4 1.5 0 2.6 0.7 1.1 0.6 1.6 1.6 0.6 1 0.5 2.1 0 1-0.5 1.2-0.6 0.3-1.6 0.3zm-5.1-1.4h4.7q-0.1-1.4-0.7-2-0.6-0.7-1.6-0.7-1 0-1.6 0.7-0.6 0.7-0.8 2z"/><path fill-rule="evenodd" class="a" d="m447.9 711.4h-5.1q0 0.9 0.4 1.6 0.3 0.7 0.9 1 0.6 0.4 1.3 0.4 0.4 0 0.8-0.2 0.4-0.1 0.8-0.3 0.3-0.2 0.6-0.5 0.3-0.3 0.8-0.7 0.2-0.2 0.6-0.2 0.4 0 0.6 0.2 0.3 0.2 0.3 0.6 0 0.4-0.3 0.9-0.3 0.4-0.8 0.9-0.6 0.4-1.4 0.7-0.9 0.3-2 0.3-2.5 0-3.8-1.4-1.4-1.5-1.4-3.9 0-1.2 0.3-2.2 0.4-0.9 1-1.6 0.7-0.7 1.6-1.1 1-0.4 2.2-0.4 1.5 0 2.6 0.7 1.1 0.6 1.6 1.6 0.5 1 0.5 2.1 0 1-0.5 1.2-0.6 0.3-1.6 0.3zm-5.1-1.4h4.7q-0.1-1.4-0.7-2-0.6-0.7-1.6-0.7-1 0-1.6 0.7-0.6 0.7-0.8 2z"/><path fill-rule="evenodd" class="a" d="m453.6 707v0.3q0.7-0.9 1.5-1.3 0.8-0.5 1.8-0.5 1.2 0 2.2 0.7 1 0.6 1.6 1.8 0.6 1.2 0.6 2.8 0 1.2-0.4 2.2-0.3 1-0.9 1.7-0.6 0.6-1.4 1-0.8 0.4-1.7 0.4-1.1 0-1.9-0.5-0.7-0.4-1.4-1.3v3.9q0 1.7-1.3 1.7-0.7 0-0.9-0.4-0.3-0.5-0.3-1.3v-11.2q0-0.7 0.4-1.1 0.3-0.4 0.8-0.4 0.6 0 0.9 0.4 0.4 0.4 0.4 1.1zm5.1 3.8q0-1.1-0.4-1.8-0.3-0.7-0.8-1.1-0.6-0.4-1.2-0.4-1.1 0-1.9 0.8-0.7 0.9-0.7 2.5 0 1.5 0.7 2.4 0.8 0.9 1.9 0.9 0.6 0 1.1-0.4 0.6-0.4 0.9-1.1 0.4-0.8 0.4-1.8z"/><path class="a" d="m463.9 704.3q-0.6 0-0.9-0.3-0.4-0.3-0.4-1 0-0.5 0.4-0.9 0.4-0.3 0.9-0.3 0.5 0 0.9 0.3 0.4 0.3 0.4 0.9 0 0.6-0.4 1-0.4 0.3-0.9 0.3zm1.3 2.7v7.5q0 0.8-0.4 1.2-0.4 0.4-0.9 0.4-0.6 0-1-0.4-0.3-0.4-0.3-1.2v-7.4q0-0.8 0.3-1.2 0.4-0.4 1-0.4 0.5 0 0.9 0.4 0.4 0.4 0.4 1.1z"/><path class="a" d="m473.5 714.9l-2.3-3.8-1.4 1.4v2q0 0.8-0.4 1.2-0.4 0.4-0.9 0.4-0.6 0-0.9-0.4-0.4-0.4-0.4-1.2v-11.1q0-0.8 0.4-1.3 0.3-0.4 0.9-0.4 0.6 0 1 0.4 0.3 0.4 0.3 1.2v6.3l2.9-3.1q0.6-0.6 0.9-0.8 0.3-0.2 0.7-0.2 0.4 0 0.8 0.3 0.3 0.3 0.3 0.8 0 0.6-1.1 1.5l-1.3 1.3 2.6 4.2q0.3 0.4 0.5 0.7 0.1 0.2 0.1 0.4 0 0.7-0.4 1-0.3 0.4-0.8 0.4-0.5 0-0.8-0.3-0.2-0.2-0.7-0.9z"/><path class="a" d="m479.2 716.1q-0.6 0-1.1-0.4-0.4-0.4-0.4-1.1 0-0.6 0.4-1 0.4-0.4 1-0.4 0.6 0 1.1 0.4 0.4 0.4 0.4 1 0 0.7-0.4 1.1-0.5 0.4-1 0.4z"/><path class="a" d="m492.1 712.9q0 0.4-0.3 1-0.3 0.6-0.9 1-0.6 0.5-1.5 0.9-0.9 0.3-2 0.3-2.5 0-3.8-1.4-1.3-1.4-1.3-3.8 0-1.6 0.6-2.8 0.6-1.2 1.8-1.9 1.1-0.7 2.7-0.7 1.1 0 1.9 0.3 0.8 0.3 1.4 0.8 0.6 0.4 0.9 1 0.3 0.5 0.3 0.9 0 0.5-0.3 0.8-0.4 0.4-0.9 0.4-0.3 0-0.5-0.2-0.2-0.2-0.5-0.6-0.5-0.7-1-1-0.5-0.4-1.3-0.4-1.1 0-1.8 0.9-0.7 0.9-0.7 2.5 0 0.7 0.1 1.3 0.2 0.6 0.6 1 0.3 0.5 0.8 0.7 0.5 0.2 1 0.2 0.8 0 1.4-0.3 0.5-0.4 1-1.1 0.2-0.5 0.5-0.7 0.3-0.3 0.7-0.3 0.4 0 0.7 0.4 0.4 0.4 0.4 0.8z"/><path fill-rule="evenodd" class="a" d="m503.2 710.8q0 1.2-0.3 2.1-0.4 1-1.1 1.7-0.6 0.7-1.6 1.1-0.9 0.4-2.1 0.4-1.2 0-2.1-0.4-1-0.4-1.7-1.1-0.7-0.7-1-1.7-0.4-0.9-0.4-2.1 0-1.2 0.4-2.2 0.3-0.9 1-1.6 0.7-0.7 1.7-1.1 0.9-0.4 2.1-0.4 1.1 0 2.1 0.4 1 0.4 1.7 1.1 0.6 0.7 1 1.7 0.3 0.9 0.3 2.1zm-2.6 0q0-1.6-0.7-2.5-0.6-0.9-1.8-0.9-0.8 0-1.4 0.4-0.5 0.4-0.9 1.2-0.3 0.8-0.3 1.8 0 1 0.3 1.8 0.3 0.7 0.9 1.1 0.6 0.4 1.4 0.4 1.2 0 1.8-0.8 0.7-0.9 0.7-2.5z"/><path class="a" d="m513.1 711v3.4q0 0.9-0.3 1.3-0.4 0.4-1 0.4-0.6 0-1-0.4-0.3-0.4-0.3-1.3v-4.1q0-1-0.1-1.5-0.1-0.6-0.4-0.9-0.3-0.4-0.9-0.4-1.3 0-1.7 0.9-0.4 0.9-0.4 2.5v3.5q0 0.8-0.3 1.3-0.4 0.4-1 0.4-0.6 0-1-0.4-0.3-0.5-0.3-1.3v-7.4q0-0.7 0.3-1.1 0.3-0.4 0.9-0.4 0.5 0 0.9 0.4 0.3 0.3 0.3 1v0.2q0.7-0.8 1.5-1.2 0.7-0.4 1.7-0.4 1 0 1.7 0.4 0.7 0.4 1.1 1.2 0.7-0.8 1.4-1.2 0.8-0.4 1.7-0.4 1.1 0 1.8 0.5 0.8 0.4 1.2 1.2 0.3 0.7 0.3 2.2v5q0 0.9-0.4 1.3-0.3 0.4-0.9 0.4-0.6 0-1-0.4-0.4-0.5-0.4-1.3v-4.3q0-0.9 0-1.4-0.1-0.5-0.4-0.8-0.3-0.3-1-0.4-0.5 0.1-1 0.4-0.4 0.3-0.7 0.8-0.3 0.6-0.3 2.3z"/><g style="display:none"><path class="a" d="m392.4 710.2q0 0 0 0 0 0 0 0z"/><path class="a" d="m392.6 711q0 0 0 0-0.1-0.4-0.1-0.7 0 0.4 0.1 0.7z"/><path class="a" d="m393.4 713.4q0 0 0 0 0 0 0 0z"/><path class="a" d="m393.3 713.3q0-0.1 0-0.2 0 0.1 0 0.2z"/><path class="a" d="m392.8 711.9q0.2 0.6 0.5 1.2-0.3-0.6-0.5-1.2 0 0 0 0z"/><path class="a" d="m402.5 700.2c0.5 0 0.8 0.1 1.3 0.2l0.1-0.8c0 0-1.2-0.4-2.7-0.2l-0.1-0.5c0.4-0.1 0.8-0.5 0.8-1 0-0.6-0.5-1-1.1-1-0.5 0-1 0.4-1 1 0 0.5 0.3 0.9 0.8 1l0.2 0.5c-1.7 0.2-3 0.9-3 0.9l0.2 0.7q1.5-0.5 2.7-0.6c0.7-0.1 1.3-0.2 1.8-0.2z"/><path class="a" d="m393.4 704.1q0.1-0.1 0.1-0.2l-0.3-0.2-0.5-0.3c0 0-0.8 0.7-1.4 2q0 0-0.1-0.1-0.2-0.3-0.7-0.3 0 0 0 0-0.3 0-0.5-0.1 0.2-0.2 0.2-0.5c0-0.3-0.3-0.6-0.7-0.6-0.4 0-0.7 0.3-0.7 0.6 0 0.4 0.3 0.7 0.7 0.7q0.1 0 0.2 0c0.1 0.2 0.4 0.3 0.8 0.3q0.3 0 0.4 0.2c0.1 0.1 0.2 0.3 0.2 0.4q0 0 0 0c-0.5 1.2-0.3 2.7-0.3 2.7h1c0-0.5 0.1-1.5 0.4-2.2 0.5-1.5 1.2-2.4 1.2-2.4z"/><path class="a" d="m411.7 701.1c-0.4 0-0.7 0.3-0.7 0.7q0 0.1 0 0.2c-0.2 0.1-0.3 0.4-0.3 0.8q0 0.3-0.2 0.4-0.1 0.1-0.3 0.1c-0.7-1.1-1.7-1.7-1.7-1.7l-0.8 0.8q0.9 0.8 1.8 2c0.3 0.5 0.8 1.3 1.1 2l1-0.5c0 0-0.5-1.2-1.1-2.2q0.2-0.1 0.3-0.2 0.3-0.3 0.3-0.7 0-0.3 0.2-0.5 0.1 0.2 0.4 0.2c0.3 0 0.6-0.3 0.6-0.7 0-0.4-0.3-0.7-0.6-0.7z"/><path class="a" d="m409 710.3c-1.4 0.7-3.7 1.6-6.8 2-1.2 0.2-2.3 0.3-3.4 0.3-1.4 0-2.6-0.1-3.6-0.3-1-0.1-1.9-0.3-2.4-0.4q0.2 0.6 0.5 1.2 0 0 0 0 0 0.1 0 0.2 0.1 0 0.1 0.1 0 0 0 0 0.5 0.9 1.1 1.6c1.4 1.5 2.9 1.8 2.9 1.8h0.1c0 0 1.3 0.4 3.3 0.4q2.9 0 5.6-1.1c1.4-0.7 2.7-1.8 3.3-2.7q0.7-1.1 1-2.3c0.2-0.4 0.2-1.1 0.2-1.8-0.4 0.2-1 0.6-1.9 1z"/><path fill-rule="evenodd" class="a" d="m393.6 704.6h0.1c0.9-0.9 2.1-1.6 3.5-2.1q1.4-0.5 2.5-0.6c0.8-0.1 1.3-0.1 1.8-0.1 0.5 0 0.8 0 1.2 0.1 1.1 0.2 3.3 0.9 5.3 3.8 0.7 1 1.5 2.6 1.7 3.6-0.2 0.2-1 0.7-2.1 1.3-1.3 0.6-3.6 1.5-6.5 1.9-4.7 0.7-8.8-0.3-9.5-0.5q-0.1-0.4-0.1-0.7-0.1-0.1-0.1-0.1 0 0 0 0 0-0.5 0-1.1c0 0 0-1.4 0.3-2.4 0.5-1.3 1.1-2.2 1.2-2.3 0.3-0.4 0.6-0.7 0.7-0.8zm9.8 1.9c0 1 0.8 1.8 1.7 1.8 1 0 1.8-0.8 1.8-1.8 0-1-0.8-1.7-1.8-1.7-0.9 0-1.7 0.7-1.7 1.7zm-9.3 1c0 1.6 1.2 2.8 2.8 2.8 1.5 0 2.8-1.2 2.8-2.8 0-1.5-1.3-2.8-2.8-2.8-1.6 0-2.8 1.3-2.8 2.8z"/></g></g></svg>