<?xml version="1.0" encoding="utf-8"?>
<!-- Generator: Adobe Illustrator 22.1.0, SVG Export Plug-In . SVG Version: 6.00 Build 0)  -->
<svg version="1.1" id="Layer_1" xmlns="http://www.w3.org/2000/svg" xmlns:xlink="http://www.w3.org/1999/xlink" x="0px" y="0px"
	 viewBox="0 0 512 512" style="enable-background:new 0 0 512 512;" xml:space="preserve">
<g>
	<path d="M31,31v450h450V31H31z M275.9,382c0,43.8-25.7,63.8-63.2,63.8c-33.9,0-53.4-17.5-63.5-38.7l34.5-20.8
		c6.6,11.8,12.7,21.7,27.2,21.7c13.9,0,22.7-5.4,22.7-26.6V237.6h42.3V382L275.9,382z M375.9,445.7c-39.3,0-64.7-18.7-77-43.2
		l34.5-19.9c9,14.8,20.9,25.7,41.7,25.7c17.5,0,28.7-8.7,28.7-20.9c0-14.5-11.5-19.6-30.8-28.1l-10.5-4.5
		c-30.5-13-50.7-29.3-50.7-63.8c0-31.7,24.2-55.8,61.9-55.8c26.9,0,46.2,9.3,60.1,33.9l-32.9,21.1c-7.2-13-15.1-18.1-27.2-18.1
		c-12.4,0-20.2,7.8-20.2,18.1c0,12.7,7.8,17.8,26,25.7l10.5,4.5c36,15.4,56.1,31.1,56.1,66.5C445.9,424.9,416,445.7,375.9,445.7
		L375.9,445.7z"/>
</g>
</svg>
