<svg xmlns="http://www.w3.org/2000/svg" xmlns:xlink="http://www.w3.org/1999/xlink" zoomAndPan="magnify" preserveAspectRatio="xMidYMid meet" version="1.0" viewBox="77.86 129.27 141.77 34.73"><defs><g/><clipPath id="41a24b620f"><path d="M 134 151 L 138 151 L 138 154 L 134 154 Z M 134 151 " clip-rule="nonzero"/></clipPath><clipPath id="29684dbabf"><path d="M 135.894531 150.890625 L 137.921875 152.398438 L 136.445312 154.390625 L 134.414062 152.882812 Z M 135.894531 150.890625 " clip-rule="nonzero"/></clipPath><clipPath id="749ce10150"><path d="M 136.90625 151.644531 C 136.347656 151.230469 135.5625 151.339844 135.15625 151.886719 C 134.746094 152.4375 134.867188 153.21875 135.429688 153.632812 C 135.988281 154.050781 136.773438 153.941406 137.179688 153.390625 C 137.589844 152.839844 137.464844 152.058594 136.90625 151.644531 Z M 136.90625 151.644531 " clip-rule="nonzero"/></clipPath></defs><g clip-path="url(#41a24b620f)"><g clip-path="url(#29684dbabf)"><g clip-path="url(#749ce10150)"><path fill="#282929" d="M 135.894531 150.890625 L 137.921875 152.398438 L 136.445312 154.390625 L 134.414062 152.882812 Z M 135.894531 150.890625 " fill-opacity="1" fill-rule="nonzero"/></g></g></g><g fill="#394149" fill-opacity="1"><g transform="translate(79.831904, 163.608553)"><g><path d="M 29.320312 -8.882812 C 28.945312 -9.289062 28.351562 -9.328125 27.945312 -8.957031 C 27.871094 -8.917969 20.214844 -2.230469 14.605469 -3.121094 C 12.929688 -3.382812 11.480469 -4.386719 10.664062 -5.871094 C 9.957031 -7.171875 8.65625 -7.988281 7.207031 -8.136719 C 5.386719 -8.25 3.382812 -7.171875 1.261719 -4.941406 C 1.152344 -4.832031 0.964844 -4.792969 0.816406 -4.867188 C 0.667969 -4.941406 0.59375 -5.089844 0.632812 -5.277344 C 0.742188 -5.984375 1.078125 -7.765625 1.226562 -8.433594 C 1.226562 -8.324219 1.488281 -8.84375 1.488281 -8.882812 C 4.644531 -13.191406 14.082031 -26.867188 10.40625 -31.25 C 9.921875 -31.917969 9.03125 -32.21875 8.210938 -31.992188 C 7.46875 -31.769531 5.203125 -31.066406 1.710938 -18.652344 C 0.855469 -15.644531 0.0742188 -12.410156 -0.558594 -9.363281 L -0.816406 -9.03125 C -1.078125 -8.695312 -1.078125 -8.25 -0.855469 -7.878906 C -1.410156 -5.128906 -1.785156 -2.601562 -1.96875 -0.667969 C -2.007812 -0.222656 -1.746094 0.1875 -1.335938 0.335938 C -0.929688 0.484375 -0.445312 0.335938 -0.1875 -0.0390625 C 3.605469 -5.535156 6.019531 -6.242188 7.097656 -6.207031 C 7.878906 -6.132812 8.582031 -5.648438 8.957031 -4.941406 C 10.070312 -2.9375 12.039062 -1.523438 14.34375 -1.1875 C 20.808594 -0.1875 28.871094 -7.207031 29.246094 -7.507812 C 29.617188 -7.878906 29.652344 -8.472656 29.320312 -8.882812 Z M 8.769531 -30.136719 C 8.84375 -30.136719 8.882812 -30.023438 8.917969 -29.988281 C 10.703125 -27.980469 3.308594 -13.042969 2.378906 -13.636719 C 1.488281 -14.195312 7.207031 -30.136719 8.769531 -30.136719 Z M 8.769531 -30.136719 "/></g></g></g><g fill="#394149" fill-opacity="1"><g transform="translate(107.922424, 163.608553)"><g><path d="M 25.492188 -10.105469 C 25.121094 -10.480469 24.488281 -10.480469 24.117188 -10.070312 C 24.042969 -9.996094 13.972656 0.148438 7.28125 -2.378906 C 4.308594 -3.53125 3.046875 -6.984375 2.5625 -10.40625 C 3.234375 -12.039062 4.347656 -14.753906 5.386719 -17.800781 C 5.5 -18.171875 5.609375 -18.207031 6.058594 -18.246094 C 11.074219 -18.617188 16.054688 -18.800781 18.988281 -18.800781 C 19.546875 -18.800781 19.953125 -19.25 19.953125 -19.769531 C 19.953125 -20.324219 19.546875 -20.734375 18.988281 -20.734375 C 16.164062 -20.734375 11.519531 -20.511719 6.761719 -20.25 C 6.578125 -20.214844 6.242188 -20.324219 6.503906 -20.996094 C 8.285156 -26.085938 9.550781 -31.25 8.769531 -32.8125 C 7.988281 -34.371094 6.949219 -34.410156 6.429688 -34.296875 C 3.679688 -33.777344 1.671875 -26.644531 0.78125 -20.808594 C 0.707031 -20.289062 0.445312 -19.84375 -0.0390625 -19.804688 C -5.871094 -19.359375 -10.664062 -19.027344 -10.738281 -19.027344 C -11.296875 -18.988281 -11.707031 -18.542969 -11.667969 -17.984375 C -11.667969 -17.464844 -11.222656 -17.019531 -10.664062 -17.054688 L -10.589844 -17.054688 C -10.480469 -17.054688 -5.984375 -17.390625 -0.371094 -17.800781 C -0.1875 -17.835938 0 -17.800781 0.148438 -17.652344 C 0.296875 -17.539062 0.410156 -17.351562 0.410156 -17.167969 C -0.148438 -8.324219 2.082031 -2.265625 6.578125 -0.558594 C 7.542969 -0.222656 8.546875 -0.0390625 9.585938 -0.0390625 C 16.945312 -0.0390625 25.121094 -8.324219 25.527344 -8.695312 C 25.714844 -8.882812 25.789062 -9.140625 25.789062 -9.402344 C 25.789062 -9.660156 25.675781 -9.921875 25.492188 -10.105469 Z M 2.75 -20.882812 C 3.605469 -26.53125 5.3125 -30.992188 6.316406 -32.144531 C 6.429688 -32.21875 6.578125 -32.253906 6.726562 -32.21875 C 6.835938 -32.179688 6.949219 -32.105469 7.023438 -31.957031 C 7.46875 -30.992188 6.207031 -26.273438 4.308594 -20.660156 C 4.234375 -20.324219 3.976562 -20.066406 3.605469 -20.027344 C 3.417969 -19.992188 3.234375 -19.992188 3.011719 -19.992188 C 2.636719 -19.992188 2.710938 -20.585938 2.75 -20.847656 Z M 2.304688 -15.050781 C 1.933594 -15.050781 2.082031 -17.652344 2.414062 -18.023438 C 2.710938 -18.207031 3.085938 -18.246094 3.382812 -18.058594 C 3.714844 -17.761719 2.710938 -15.050781 2.304688 -15.050781 Z M 2.304688 -15.050781 "/></g></g></g><g fill="#394149" fill-opacity="1"><g transform="translate(145.979591, 161.748477)"><g><path d="M 1.3125 -12.5 L 3.21875 -12.5 L 3.21875 -7.390625 L 7.609375 -7.390625 L 7.609375 -12.5 L 9.515625 -12.5 L 9.515625 0 L 7.609375 0 L 7.609375 -5.796875 L 3.21875 -5.796875 L 3.21875 0 L 1.3125 0 Z M 1.3125 -12.5 "/></g></g></g><g fill="#394149" fill-opacity="1"><g transform="translate(160.713595, 161.748477)"><g><path d="M 1.546875 -12.5 L 3.453125 -12.5 L 3.453125 0 L 1.546875 0 Z M 1.546875 -12.5 "/></g></g></g><g fill="#394149" fill-opacity="1"><g transform="translate(169.619284, 161.748477)"><g><path d="M 1.3125 -12.5 L 6.78125 -12.5 L 6.78125 -10.828125 L 3.203125 -10.828125 L 3.203125 -7.375 L 6.09375 -7.375 L 6.09375 -5.671875 L 3.203125 -5.671875 L 3.203125 -1.6875 L 7.34375 -1.6875 L 7.34375 0 L 1.3125 0 Z M 1.3125 -12.5 "/></g></g></g><g fill="#394149" fill-opacity="1"><g transform="translate(181.464616, 161.748477)"><g><path d="M 5.625 0.171875 C 4.0625 0.171875 2.925781 -0.296875 2.21875 -1.234375 C 1.519531 -2.179688 1.171875 -3.550781 1.171875 -5.34375 L 1.171875 -12.5 L 3.078125 -12.5 L 3.078125 -5.296875 C 3.078125 -3.972656 3.273438 -3.023438 3.671875 -2.453125 C 4.066406 -1.878906 4.71875 -1.59375 5.625 -1.59375 C 6.53125 -1.59375 7.175781 -1.875 7.5625 -2.4375 C 7.957031 -3 8.15625 -3.953125 8.15625 -5.296875 L 8.15625 -12.5 L 10.078125 -12.5 L 10.078125 -5.34375 C 10.078125 -3.5625 9.707031 -2.195312 8.96875 -1.25 C 8.226562 -0.300781 7.113281 0.171875 5.625 0.171875 Z M 5.625 0.171875 "/></g></g></g><g fill="#394149" fill-opacity="1"><g transform="translate(196.623425, 161.748477)"><g><path d="M 3.703125 -10.828125 L 0.515625 -10.828125 L 0.515625 -12.5 L 8.828125 -12.5 L 8.828125 -10.828125 L 5.59375 -10.828125 L 5.59375 0 L 3.703125 0 Z M 3.703125 -10.828125 "/></g></g></g><g fill="#394149" fill-opacity="1"><g transform="translate(209.86211, 161.748477)"><g><path d="M 7.5625 0 L 5.046875 -4.71875 C 4.523438 -4.695312 4.0625 -4.6875 3.65625 -4.6875 L 3.171875 -4.6875 L 3.171875 0 L 1.328125 0 L 1.328125 -12.5 L 4.171875 -12.5 C 5.609375 -12.5 6.789062 -12.195312 7.71875 -11.59375 C 8.644531 -11 9.109375 -10.035156 9.109375 -8.703125 C 9.109375 -7.867188 8.910156 -7.144531 8.515625 -6.53125 C 8.128906 -5.925781 7.550781 -5.460938 6.78125 -5.140625 L 9.765625 0 Z M 4.390625 -6.234375 C 5.492188 -6.234375 6.253906 -6.472656 6.671875 -6.953125 C 7.085938 -7.441406 7.296875 -8.019531 7.296875 -8.6875 C 7.296875 -10.164062 6.300781 -10.90625 4.3125 -10.90625 L 3.171875 -10.90625 L 3.171875 -6.234375 Z M 4.390625 -6.234375 "/></g></g></g></svg>