<svg xmlns="http://www.w3.org/2000/svg" viewBox="0 0 24 24" id="nuxt-dot-js"><path d="M17.476 21H1.524a1.51 1.51 0 0 1-1.321-.756 1.472 1.472 0 0 1-.006-1.484L8.172 4.766C8.446 4.286 8.942 4 9.5 4s1.054.286 1.327.766l7.976 13.994a1.475 1.475 0 0 1-.006 1.484 1.51 1.51 0 0 1-1.321.756zM9.5 5a.52.52 0 0 0-.459.262L1.066 19.256a.478.478 0 0 0 .002.486.522.522 0 0 0 .456.258h15.951a.523.523 0 0 0 .457-.258.48.48 0 0 0 .002-.486L9.958 5.262A.518.518 0 0 0 9.5 5z"></path><path d="M22.589 21H8.411c-.516 0-.975-.262-1.228-.701a1.339 1.339 0 0 1 .001-1.354l7.089-12.246C14.527 6.262 14.985 6 15.5 6s.973.262 1.227.698l7.089 12.245c.246.425.246.932.001 1.355-.253.44-.712.702-1.228.702zM15.5 7a.41.41 0 0 0-.361.2l-7.09 12.245a.34.34 0 0 0 0 .354.41.41 0 0 0 .362.201H22.59a.407.407 0 0 0 .361-.201.34.34 0 0 0 0-.354L15.861 7.2A.41.41 0 0 0 15.5 7z"></path></svg>